<?xml version="1.0" encoding="utf-8"?>
<!-- Generator: Adobe Illustrator 27.5.0, SVG Export Plug-In . SVG Version: 6.00 Build 0)  -->
<svg version="1.1" xmlns="http://www.w3.org/2000/svg" xmlns:xlink="http://www.w3.org/1999/xlink" x="0px" y="0px"
	 viewBox="0 0 500 500" style="enable-background:new 0 0 500 500;" xml:space="preserve">
<g id="Background_Simple">
	<g>
		<path style="fill:#E8AA14;" d="M455.96,238.25c-4.936,41.801-24.022,90.403-62.141,112.73
			c-57.595,33.742-52.774,85.638-165.193,108.199c-17.527,3.519-34.161,5-49.846,4.708c-8.432-0.156-16.593-0.836-24.465-1.995
			C82.867,451.456,34.785,401.792,17.145,341.841c-23.214-78.845,23.139-130.463,53.862-161.564
			c30.724-31.1,53.226-128.004,163.567-151.052c16.824-3.507,34.029-5.296,51.229-4.867c39.259,0.963,82.08,13.855,111.71,40.761
			c2.225,2.022,4.388,4.118,6.497,6.278C445.194,113.669,462.693,181.261,455.96,238.25z"/>
		<path style="opacity:0.7;fill:#FFFFFF;" d="M455.96,238.25c-4.936,41.801-24.022,90.403-62.141,112.73
			c-57.595,33.742-52.774,85.638-165.193,108.199c-17.527,3.519-34.161,5-49.846,4.708c-8.432-0.156-16.593-0.836-24.465-1.995
			C82.867,451.456,34.785,401.792,17.145,341.841c-23.214-78.845,23.139-130.463,53.862-161.564
			c30.724-31.1,53.226-128.004,163.567-151.052c16.824-3.507,34.029-5.296,51.229-4.867c39.259,0.963,82.08,13.855,111.71,40.761
			c2.225,2.022,4.388,4.118,6.497,6.278C445.194,113.669,462.693,181.261,455.96,238.25z"/>
	</g>
</g>
<g id="Window">
	<g>
		<g>
			
				<rect x="152.423" y="50.538" style="fill:#FFFFFF;stroke:#BFBFBF;stroke-linejoin:round;stroke-miterlimit:10;" width="294.335" height="247.307"/>
			
				<rect x="157.617" y="54.902" style="fill:#FFFFFF;stroke:#BFBFBF;stroke-linejoin:round;stroke-miterlimit:10;" width="283.946" height="238.577"/>
			
				<rect x="247.389" y="50.538" style="fill:#FFFFFF;stroke:#BFBFBF;stroke-linejoin:round;stroke-miterlimit:10;" width="7.71" height="247.307"/>
			
				<rect x="349.555" y="50.538" style="fill:#FFFFFF;stroke:#BFBFBF;stroke-linejoin:round;stroke-miterlimit:10;" width="7.71" height="247.307"/>
		</g>
		
			<line style="fill:#FFFFFF;stroke:#BFBFBF;stroke-linejoin:round;stroke-miterlimit:10;" x1="235.981" y1="82.002" x2="180.721" y2="137.262"/>
		
			<line style="fill:#FFFFFF;stroke:#BFBFBF;stroke-linejoin:round;stroke-miterlimit:10;" x1="241.513" y1="76.471" x2="238.257" y2="79.727"/>
		
			<line style="fill:#FFFFFF;stroke:#BFBFBF;stroke-linejoin:round;stroke-miterlimit:10;" x1="202.014" y1="125.227" x2="185.967" y2="141.274"/>
		
			<line style="fill:#FFFFFF;stroke:#BFBFBF;stroke-linejoin:round;stroke-miterlimit:10;" x1="288.707" y1="201.467" x2="273.606" y2="216.568"/>
		
			<line style="fill:#FFFFFF;stroke:#BFBFBF;stroke-linejoin:round;stroke-miterlimit:10;" x1="299.527" y1="190.647" x2="291.285" y2="198.889"/>
		
			<line style="fill:#FFFFFF;stroke:#BFBFBF;stroke-linejoin:round;stroke-miterlimit:10;" x1="305.081" y1="194.967" x2="285.023" y2="215.025"/>
		
			<line style="fill:#FFFFFF;stroke:#BFBFBF;stroke-linejoin:round;stroke-miterlimit:10;" x1="408.023" y1="75.362" x2="375.13" y2="108.255"/>
		
			<line style="fill:#FFFFFF;stroke:#BFBFBF;stroke-linejoin:round;stroke-miterlimit:10;" x1="414.32" y1="69.065" x2="410.905" y2="72.48"/>
		
			<line style="fill:#FFFFFF;stroke:#BFBFBF;stroke-linejoin:round;stroke-miterlimit:10;" x1="420.553" y1="199.227" x2="401.051" y2="218.729"/>
		
			<line style="fill:#FFFFFF;stroke:#BFBFBF;stroke-linejoin:round;stroke-miterlimit:10;" x1="432.218" y1="187.561" x2="423.587" y2="196.193"/>
		
			<line style="fill:#FFFFFF;stroke:#BFBFBF;stroke-linejoin:round;stroke-miterlimit:10;" x1="409.383" y1="201.756" x2="383.462" y2="227.678"/>
	</g>
</g>
<g id="Poster">
	<g>
		
			<rect x="33.764" y="58.803" style="fill:#FFFFFF;stroke:#BFBFBF;stroke-linejoin:round;stroke-miterlimit:10;" width="88.082" height="226.51"/>
		<rect x="54.52" y="77.978" style="fill:#BFBFBF;" width="46.543" height="2.069"/>
		<rect x="45.212" y="72.393" style="fill:#BFBFBF;" width="65.16" height="2.896"/>
		<g>
			<path style="fill:#BFBFBF;" d="M88.294,101.993c0,0,0.358-5.019-1.972-8.066c-2.33-3.047-7.708-3.047-10.038-2.151
				c-2.33,0.896-4.66,2.509-5.198,5.198c-0.538,2.689-0.359,5.915-0.359,5.915s-1.792,0.358-1.255,2.33
				c0.538,1.972,1.613,3.047,1.613,3.047s0.538,2.509,0.896,3.585c0.359,1.076,2.33,3.406,2.33,3.406s0.359,2.689-0.896,3.585
				c-1.255,0.896-4.302,1.613-8.604,3.047c-4.302,1.434-8.245,5.198-9.142,10.038c-0.896,4.84-0.358,8.783-0.358,8.783L53.7,150.927
				c0,0-1.613,3.764-1.792,8.783c-0.179,5.019-1.076,15.057-1.076,15.057s1.076,0.717-1.434,1.972
				c-2.509,1.255-2.689,2.151-3.047,3.047c-0.358,0.896-0.538,2.689-1.255,3.226c-0.717,0.538-3.047,0-2.689,1.793
				c0.358,1.792,2.868,0.717,2.868,0.717l1.613-0.359c0,0,0,8.245,0,9.142c0,0.896,0.538,2.151,1.434,1.076
				c0,0,0.896,1.255,1.434,0.717l0.873-0.504c0,0,1.059,0.436,1.558,0.249c0.498-0.187,1.495-1.558,1.495-1.558
				s0.249,0.748,1.184-0.374c0.935-1.122,1.059-2.492,1.308-3.427c0.249-0.935,1.059-6.044,1.308-6.916c0.249-0.872,0-5.483,0-5.483
				l-0.187-1.994c0,0,4.05-11.028,4.735-13.645c0.685-2.617,1.433-5.358,1.682-7.601c0.249-2.243,1.308-6.667,1.308-6.667
				l0.436-0.187c0,0,0.062,10.53-0.187,11.9c-0.249,1.371-2.118,3.925-1.932,7.165c0.187,3.24-0.935,8.723-1.246,10.592
				c-0.312,1.869-2.679,8.224-1.682,18.63c0.997,10.405,3.083,16.24,4.295,20.866c1.211,4.626,0.881,7.599,0.33,12.005
				c-0.551,4.406,0.33,6.388,1.872,12.005c1.542,5.617,4.295,11.564,4.626,13.767s-0.661,2.423-1.212,3.745
				c-0.551,1.322-3.524,4.736-3.634,6.168c-0.11,1.432,0.881,2.533,3.634,3.304c2.753,0.771,4.736,0.771,6.058-0.991
				c1.321-1.762,1.432-2.863,1.321-4.185c-0.11-1.322-0.44-1.542,0-2.753c0.441-1.211,0.991-1.872,0.661-3.965
				c-0.33-2.092-0.11-0.22-0.991-4.515c-0.881-4.295,0.11-9.912,0.11-12.335c0-2.423,0-8.15-0.551-11.014
				c-0.551-2.864-0.661-1.542-0.991-5.507c-0.33-3.965,0.22-4.406,0.22-7.269c0-2.863-0.551-5.066-0.551-5.066
				s2.203-11.454,2.313-11.895c0.11-0.441,1.762-8.04,1.762-8.04s0.661,0.11,0.881,0.661c0.22,0.551,3.084,19.163,3.084,19.163
				s-1.101,2.974-0.991,4.956c0.11,1.982,1.322,7.599,1.322,7.599s-0.881,3.524-1.652,9.031c-0.771,5.507,0.44,11.234,0.33,14.648
				c-0.11,3.414-0.44,5.066-0.771,6.608s-0.881,3.745-0.33,5.397c0.551,1.652,0.551,1.652,0.551,1.652s-0.441,2.533-0.33,4.516
				c0.11,1.982,0.991,3.304,2.313,3.524c1.322,0.22,2.203-0.991,2.203-0.991s1.542,0.991,3.414,0.441
				c1.872-0.551,3.194-1.322,2.753-2.863c-0.441-1.542-0.771-2.643-1.982-4.295c-1.211-1.652-1.982-1.872-2.313-3.855
				c-0.33-1.982-0.22-4.295,0.44-6.057c0.661-1.762,3.524-7.159,4.846-14.318c1.322-7.159,1.101-7.599,0.771-10.132
				c-0.33-2.533-0.11-7.93,0.441-10.683c0.551-2.753,4.405-12.665,4.405-20.705s-1.652-17.952-2.092-19.714
				c-0.441-1.762-0.771-5.176-0.771-5.176s0.661-2.643,0-4.956c-0.661-2.313-1.101-3.194-1.652-5.727
				c-0.551-2.533-0.991-6.388-0.991-6.718s0-4.295,0-4.295s2.093,5.066,3.084,8.591c0.991,3.524,0.991,5.617,2.093,8.921
				c1.101,3.304,3.414,9.472,3.855,10.793c0.441,1.322-0.551,3.635-0.11,7.159c0.44,3.524,0.881,9.582,1.652,10.463
				s1.652-0.11,1.652-0.11s0.33,1.762,0.991,1.982c0.661,0.22,1.542-0.441,1.542-0.441s0.22,1.101,1.322,0.661
				c1.101-0.441,1.322-1.212,1.322-1.212s1.652,0.661,1.432-1.542c-0.22-2.203-0.771-5.176-0.771-5.837s0.11-2.753,0.11-2.753
				s1.101,0.881,1.983,0.991c0.881,0.11,1.762,0.991,2.423,0c0.661-0.991,0.11-1.322-1.101-2.093
				c-1.211-0.771-1.322-0.991-2.203-2.313c-0.881-1.322-0.11-1.652-1.982-3.304c-1.872-1.652-3.084-2.423-3.084-3.855
				c0-1.432,1.432-10.353,0.11-16.741c-1.322-6.388-1.982-8.04-2.203-9.031c-0.22-0.991-2.203-8.48-2.203-8.48
				s1.762-6.939-1.322-12.776c-3.084-5.837-7.269-5.397-10.463-6.828c-3.194-1.432-5.727-1.762-6.168-2.643
				c-0.441-0.881-0.661-2.423-0.661-2.423s2.864-3.965,2.974-5.287c0.11-1.322,0.11-1.322,0.11-1.322s1.762-0.661,2.203-4.075
				C90.588,101.392,88.294,101.993,88.294,101.993z"/>
			<g>
				<path style="fill:#FFFFFF;" d="M114.551,185.043c0.402-1.204-0.401-0.502-0.903-1.104c-0.502-0.602-1.104-1.506-1.104-1.506
					c0.502-0.602-1.807-2.51-2.108-2.71c-0.301-0.201-2.108-1.907-2.108-1.907c-0.301-1.004-1.506-1.004-1.807-2.509
					c-0.301-1.506-2.309-16.161-2.309-16.562c0-0.402,0.201-0.602,0.301-1.506c0.078-0.701-0.515-1.577-1.579-1.984
					c0.023-0.042,0.055-0.079,0.073-0.124c0.401-1.004,0.502-1.506,0-3.011c-0.502-1.506-0.803-2.811-1.004-3.513
					c-0.201-0.703-3.413-16.161-3.513-17.767c-0.1-1.606,1.104-3.112,0.402-4.617c-0.703-1.506-2.108-1.606-2.409-1.506
					c-0.286,0.095-0.212-0.534-1.41-0.769c-0.041-0.512-0.464-0.916-0.986-0.916c-0.28,0-0.532,0.117-0.713,0.303
					c-0.499-0.05-1.888-0.149-5.119-0.149c-0.897,0-1.71,0.071-2.443,0.182c-0.721-0.885-2.031-1.587-3.683-1.965
					c0.118-0.109,0.195-0.261,0.195-0.434v-0.35c0-0.328-0.266-0.594-0.594-0.594h-0.985l-0.011-0.589h0.359
					c0.328,0,0.594-0.266,0.594-0.594c0-0.328-0.266-0.594-0.594-0.594h-0.381l-0.03-1.62c0.364-0.079,0.7-0.196,0.98-0.349
					c1.067-0.582,3.008-1.844,3.299-3.008c0.291-1.164,0.388-4.269,0.388-4.269s1.455-0.97,1.552-3.202
					c0.097-2.232,1.164-4.561,0.194-7.957c-0.97-3.396-5.919-5.822-9.703-4.755c0,0-2.717,0.388-4.367,2.329
					c-1.649,1.941-1.871,2.357-1.746,3.978c0.097,1.261,0.388,3.784,0.194,5.046c-0.194,1.261,0.485,2.814,1.067,3.202
					s0.776,0.873,0.776,0.873s-0.097,3.687,0.582,4.561c0.679,0.873,2.135,2.329,3.493,3.105c0.277,0.158,0.577,0.272,0.884,0.361
					l-0.043,1.704h-0.282c-0.328,0-0.594,0.266-0.594,0.594c0,0.328,0.266,0.594,0.594,0.594h0.252l-0.015,0.589h-0.874
					c-0.328,0-0.594,0.266-0.594,0.594v0.35c0,0.132,0.051,0.247,0.124,0.346c-1.825,0.344-3.287,1.068-4.08,2.007
					c-0.646-0.083-1.348-0.135-2.112-0.135c-3.231,0-4.62,0.099-5.12,0.149c-0.181-0.186-0.433-0.303-0.713-0.303
					c-0.519,0-0.94,0.399-0.985,0.906c-1.254,0.227-1.175,0.875-1.465,0.778c-0.301-0.1-1.706,0-2.409,1.506
					c-0.703,1.506,0.502,3.011,0.402,4.617c-0.1,1.606-3.312,17.064-3.513,17.767c-0.201,0.703-0.502,2.007-1.004,3.513
					c-0.502,1.506-0.402,2.008,0,3.011c0.018,0.045,0.051,0.082,0.073,0.124c-1.064,0.407-1.657,1.283-1.579,1.984
					c0.1,0.903,0.301,1.104,0.301,1.506c0,0.402-2.008,15.056-2.309,16.562c-0.301,1.506-1.506,1.506-1.807,2.509
					c0,0-1.807,1.706-2.108,1.907c-0.301,0.201-2.61,2.108-2.108,2.71c0,0-0.602,0.903-1.104,1.506
					c-0.502,0.602-1.305-0.1-0.903,1.104c0,0-2.509-0.201-2.007,0.602c0.502,0.803,2.108,0.703,2.509,0.201
					c0.012-0.014,0.018-0.026,0.028-0.039c0.425,0.251,0.941,0.008,1.277-0.462c0.502-0.703,2.71-3.313,2.108-3.112
					c0.402-0.602,0.903-1.405,0.903-1.405s0.402,1.606,0,2.509c-0.402,0.903-1.204,2.509-0.903,3.011c0,0-0.301,0.903-0.301,1.706
					c0,0.609-0.23,3.122-0.035,4.125c-0.08,0.532-0.166,1.214-0.166,1.697c0,0.903,0.301,2.007,0.903,0.703
					c0.602-1.305,0.502-3.513,0.502-3.513l-0.112,0.03c0.144-0.585,0.212-1.211,0.212-1.636c0-0.903,0.201-2.811,0.201-2.811
					s-0.006-0.011-0.016-0.027c0.145-0.131,0.262-0.345,0.317-0.676c0.201-1.204,0.201-1.606,0.502-2.61
					c0.185-0.616,0.671-0.929,0.927-1.195c-0.071,0.734-0.08,1.826-0.123,1.995c-0.054,0.218-0.653,1.088-0.544,1.904
					c0.031,0.232,0.141,0.428,0.285,0.582c-0.022,0.025-0.047,0.04-0.068,0.071c0,0-0.489,0.109-0.544,0.925
					c-0.054,0.816-0.109,1.36-0.326,1.849c-0.218,0.49-0.653,1.088,0,1.414c0,0-0.435,0.272-0.544,0.87
					c-0.058,0.317-0.13,0.894-0.096,1.367c-0.105,0.441-0.362,1.621-0.23,2.059c0.163,0.544,0.163,1.523,0.761,0.925
					c0.598-0.598,0.707-2.828,0.707-2.828s-0.091,0.017-0.218,0.029c0.041-0.156,0.086-0.343,0.163-0.573
					c0.272-0.816,0.435-1.305,0.381-1.577c-0.011-0.054-0.036-0.117-0.068-0.18c0.099-0.105,0.172-0.289,0.231-0.582
					c0.163-0.816,0.054-1.088,0.326-1.523c0.272-0.435,0.544-0.707,0.653-1.468c0.109-0.761,0.109-0.761,0.109-0.761
					c0.381-0.653,0.218-1.36,0.326-2.121s0.326-2.447,0.326-2.447s-0.018-0.013-0.045-0.033c0.4,0.12,0.786,0.226,1.139,0.281
					c-0.001,0.01-0.006,0.014-0.007,0.024c0,0,0.218,2.611,0.326,3.589c0.048,0.43,0.108,0.716,0.2,0.892
					c-0.12,0.218-0.254,0.521-0.254,0.794c0,0.489-0.054,1.632-0.163,2.175c-0.042,0.21-0.042,0.459,0.006,0.675
					c-0.021,0.01-0.047,0.014-0.061,0.032c0,0-0.381,2.556-0.054,2.719c0.326,0.163,0.435,0.326,0.707-0.381
					c0.272-0.707,0.544-1.197,0.598-1.577c0.054-0.381,0.054-0.381,0.054-0.381s-0.099-0.058-0.236-0.13
					c0.14-0.151,0.123-0.435,0.454-1.392c0.489-1.414,0.326-2.339,0.272-2.774c-0.054-0.435-0.054-0.435-0.054-0.435
					s-0.118-0.007-0.276,0.005c0.074-0.487,0.042-1.148-0.104-1.909c-0.215-1.12-0.293-1.789-0.317-2.022
					c0.161-0.084,0.298-0.208,0.398-0.393c0.526-0.964-0.096-2.082-0.329-2.684c0.215-0.34,0.391-0.863,0.731-1.833
					c0.703-2.008,2.309-6.424,2.811-11.042c0.502-4.617,1.004-6.123,1.004-6.123s1.004-1.405,0.903-2.911
					c-0.033-0.5-0.235-0.92-0.549-1.258c0.228-0.149,0.271-0.376,0.448-0.85c0.301-0.803,0.502-0.803,0.402-2.208
					c-0.1-1.405-1.205-1.104-1.205-1.104s-0.201-3.714,0.602-6.926c0.803-3.212,1.907-6.826,2.108-8.432
					c0.201-1.606,1.506-7.026,1.506-7.026l2.509-0.502c0,0,0.918,1.064,1.481,1.849c0.087,0.193,0.207,0.377,0.354,0.555
					c0.011,0.022,0.019,0.041,0.028,0.06c-1.023,0.603-1.635,1.329-1.635,2.173c0,0.318,0.09,0.617,0.252,0.901
					c-1.052,0.619-1.573,1.52-1.425,2.51c0.05,0.335,0.173,0.658,0.357,0.968c-0.518,0.608-0.743,1.337-0.618,2.11
					c0.096,0.59,0.376,1.15,0.805,1.659c-0.682,1.161-0.846,2.349-0.429,3.377c0.12,0.297,0.29,0.565,0.492,0.81
					c-0.035,0.053-0.066,0.11-0.083,0.175c-0.029,0.116-0.342,1.417-0.286,2.964c-0.202,2.29-0.134,5.504,1.592,6.73
					c0.908,0.645,1.874,0.976,2.833,0.976c0.278,0,0.556-0.028,0.832-0.084c1.379-0.281,2.65-1.266,3.578-2.775
					c0.562-0.912,0.964-2.271,1.429-3.845c0.486-1.642,1.011-3.408,1.771-4.828c0.014-0.019,0.029-0.038,0.043-0.057l-0.096,3.801
					h-0.144c-0.328,0-0.594,0.266-0.594,0.594v0.027c0,0.328,0.266,0.594,0.594,0.594h0.113l-0.021,0.851h-0.378
					c-0.328,0-0.594,0.266-0.594,0.594v0.391c0,0.328,0.266,0.594,0.594,0.594h0.338l-0.04,1.579h-0.592
					c-0.328,0-0.594,0.266-0.594,0.594v0.391c0,0.328,0.266,0.594,0.594,0.594h0.553l-0.035,1.369h-0.935
					c-0.328,0-0.594,0.266-0.594,0.594v0.391c0,0.328,0.266,0.594,0.594,0.594h0.895l-0.027,1.074h-0.868
					c-0.328,0-0.594,0.266-0.594,0.594v0.391c0,0.328,0.266,0.594,0.594,0.594h0.828l-0.026,1.015h-1.208
					c-0.328,0-0.594,0.266-0.594,0.594v0.391c-3.226-2.226-6.855-3.023-8.892-1.341c-2.036,1.682-2.567,5.134-1.682,6.551
					c0.885,1.416,2.921,2.213,3.01,3.275c0.052,0.619-0.045,1.389,0.109,2.098c-0.808-0.119-1.842-0.117-2.188,0.576
					c-0.596,1.193,0,2.641,0,2.641s-1.448,0.085-1.278,1.193c0.17,1.108,0.937,1.874,0.937,1.874s1.619,14.227,2.215,19.679
					c0.596,5.452,0.511,12.012,0,12.779c-0.511,0.767-2.641,1.874-2.045,4.43c0.559,2.396,1.343,2.471,2.281,2.331
					c-0.372,0.079-1.174,0.37-1.174,1.418c0,1.363-0.085,2.3,0.17,3.237c0.256,0.937,4.6,26.75,4.6,26.75s0.17,5.537,0.682,5.963
					l-0.511,2.556c0,0-0.078,0.014-0.128,0.044c-0.658,0.222-1.073,0.942-0.766,1.565l-1.917,2.054c0,0,0.096,0.163,0.259,0.294
					c-0.02,0.009-0.04,0.012-0.059,0.025c-0.025,0.018-0.044,0.039-0.065,0.06c-0.026-0.059-0.061-0.085-0.061-0.085
					s-0.183-0.405-0.444-0.299c-0.261,0.106-0.286,0.465-0.313,0.587c-0.027,0.122-0.199,0.156-0.375,0.373
					c-0.176,0.216-0.36,0.382,0.012,0.604c0.145,0.087,0.525-0.066,0.575-0.292c0.05-0.226,0.011-0.052,0.141-0.224
					c0.069-0.092,0.176-0.125,0.273-0.174c-0.01,0.15,0.002,0.288,0.002,0.364c0,0.178-0.228,0.279-0.406,0.634
					c-0.178,0.355-0.383,0.642,0.203,0.838c0.228,0.076,0.711-0.254,0.711-0.584c0-0.33,0-0.076,0.127-0.355
					c0.127-0.279,0.508-0.305,0.533-0.685c0.025-0.381-0.203-0.482-0.203-0.482s-0.059-0.077-0.149-0.158
					c0.03-0.005,0.059-0.005,0.091-0.015c0,0,0.986-1.157,1.608-1.972c0.096,0.055,0.204,0.107,0.319,0.158
					c-0.307,0.588-0.708,1.339-0.846,1.512c-0.123,0.154-0.161,0.338-0.134,0.493c-0.053,0.008-0.106,0.026-0.158,0.061
					c-0.38,0.263-0.292,0.847-0.292,1.051c0,0.204-0.263,0.321-0.467,0.73c-0.204,0.409-0.44,0.739,0.234,0.964
					c0.263,0.088,0.818-0.292,0.818-0.672c0-0.38,0-0.088,0.146-0.409c0.146-0.321,0.584-0.35,0.613-0.789
					c0.029-0.438-0.234-0.555-0.234-0.555s-0.027-0.035-0.071-0.083c0.114-0.054,0.217-0.178,0.305-0.413
					c0.153-0.408,0.439-1.038,0.723-1.658c0.09,0.027,0.182,0.052,0.276,0.076c-0.204,0.688-0.451,1.502-0.562,1.786
					c-0.047,0.121-0.055,0.231-0.041,0.33c-0.326,0.276-0.251,0.817-0.251,1.013c0,0.204-0.263,0.321-0.467,0.73
					c-0.204,0.409-0.44,0.739,0.234,0.964c0.263,0.088,0.818-0.292,0.818-0.672c0-0.38,0-0.088,0.146-0.409
					c0.146-0.321,0.584-0.35,0.613-0.789c0.025-0.371-0.151-0.505-0.208-0.539c0.121-0.15,0.193-0.42,0.325-0.95
					c0.101-0.405,0.224-0.874,0.325-1.291c0.198,0.023,0.398,0.04,0.597,0.045c-0.011,0.733-0.029,1.731-0.047,2.034
					c-0.01,0.169,0.031,0.332,0.112,0.475c-0.048,0.197-0.105,0.396-0.199,0.576c-0.122,0.234-0.132,0.489-0.065,0.733
					c-0.094,0.1-0.174,0.224-0.227,0.377c-0.234,0.672-0.175,0.993,0.35,1.168c0.526,0.175,1.139,0.058,1.431-0.292
					c0,0,0.007-0.074,0.005-0.183c0.507-0.036,0.737-0.426,0.783-0.839c0.058-0.526,0.029-0.584,0.117-0.818
					c0.088-0.234-0.117-1.022-0.175-1.168c0,0-0.04-0.051-0.106-0.123c0.017-0.097,0.033-0.202,0.047-0.315
					c0.089-0.71,0.159-1.469,0.022-2.024c0.812-0.368,1.212-0.879,1.012-1.539c-0.115-0.381-0.39-0.672-0.733-0.848
					c0.213-0.408,0.189-0.904,0.118-1.297c-0.138-0.758-0.164-1.286-0.169-1.463c0.111-0.176,0.177-0.413,0.169-0.752
					c0-0.937-0.256-2.13-0.596-3.834c-0.341-1.704-0.852-2.982-0.852-2.982s-2.215-23.854-2.045-24.876
					c0.17-1.022,2.045-0.767,1.278-2.982c-0.456-1.318-1.003-1.939-1.514-2.229c0.08-0.07,0.159-0.149,0.236-0.242
					c1.278-1.533,1.363-2.811,0.426-4.771c-0.937-1.959-1.107-1.704-1.534-2.982c-0.426-1.278-2.726-26.835-2.726-27.858
					s0-1.533,0-1.533s1.533-0.596,1.022-1.619c-0.511-1.022-1.193-1.278-0.852-1.959c0.341-0.682,1.599-1.298,1.599-1.298
					s-1.239,0.797,0.177,2.744c1.416,1.948,3.541,2.39,4.869,1.948c1.328-0.443,2.921-2.744,2.921-2.744l0.679-0.17l0.679,0.17
					c0,0,1.593,2.302,2.921,2.744c1.328,0.443,3.452,0,4.869-1.948c0.893-1.228,0.73-1.997,0.488-2.399
					c0.375,0.243,0.82,0.587,1.003,0.953c0.341,0.682-0.341,0.937-0.852,1.959c-0.511,1.022,1.022,1.619,1.022,1.619
					s0,0.511,0,1.533s-2.3,26.58-2.726,27.858c-0.426,1.278-0.596,1.022-1.533,2.982c-0.937,1.959-0.852,3.237,0.426,4.771
					c0.077,0.092,0.156,0.172,0.236,0.242c-0.512,0.29-1.058,0.911-1.514,2.229c-0.767,2.215,1.107,1.959,1.278,2.982
					c0.17,1.022-2.045,24.876-2.045,24.876s-0.511,1.278-0.852,2.982c-0.341,1.704-0.596,2.896-0.596,3.834
					c-0.008,0.339,0.058,0.575,0.169,0.752c-0.005,0.177-0.031,0.706-0.169,1.463c-0.071,0.393-0.095,0.889,0.118,1.297
					c-0.343,0.176-0.618,0.467-0.734,0.848c-0.199,0.66,0.2,1.171,1.012,1.539c-0.137,0.555-0.066,1.314,0.022,2.024
					c0.014,0.113,0.03,0.217,0.047,0.315c-0.066,0.072-0.106,0.123-0.106,0.123c-0.059,0.146-0.263,0.935-0.175,1.168
					c0.088,0.234,0.058,0.292,0.117,0.818c0.046,0.413,0.277,0.803,0.783,0.839c-0.001,0.109,0.005,0.183,0.005,0.183
					c0.292,0.35,0.905,0.467,1.431,0.292c0.526-0.175,0.584-0.496,0.351-1.168c-0.053-0.153-0.133-0.277-0.227-0.377
					c0.067-0.243,0.057-0.498-0.065-0.733c-0.094-0.18-0.152-0.378-0.199-0.576c0.081-0.143,0.122-0.307,0.112-0.475
					c-0.018-0.303-0.036-1.302-0.047-2.034c0.199-0.005,0.399-0.022,0.597-0.045c0.102,0.417,0.224,0.886,0.326,1.291
					c0.132,0.53,0.204,0.8,0.325,0.95c-0.057,0.035-0.233,0.169-0.209,0.539c0.029,0.438,0.467,0.467,0.613,0.789
					c0.146,0.321,0.146,0.029,0.146,0.409c0,0.38,0.555,0.759,0.818,0.672c0.674-0.225,0.438-0.555,0.234-0.964
					c-0.204-0.409-0.467-0.526-0.467-0.73c0-0.196,0.076-0.737-0.251-1.013c0.014-0.099,0.006-0.209-0.041-0.33
					c-0.111-0.284-0.358-1.098-0.562-1.786c0.094-0.024,0.187-0.049,0.276-0.076c0.284,0.62,0.571,1.25,0.723,1.658
					c0.088,0.235,0.191,0.359,0.305,0.413c-0.045,0.048-0.071,0.083-0.071,0.083s-0.263,0.117-0.234,0.555
					c0.029,0.438,0.467,0.467,0.613,0.789c0.146,0.321,0.146,0.029,0.146,0.409c0,0.38,0.555,0.759,0.818,0.672
					c0.674-0.225,0.438-0.555,0.234-0.964c-0.204-0.409-0.467-0.526-0.467-0.73c0-0.204,0.088-0.788-0.292-1.051
					c-0.052-0.036-0.105-0.054-0.158-0.061c0.027-0.155-0.011-0.339-0.134-0.493c-0.138-0.172-0.54-0.924-0.847-1.512
					c0.116-0.051,0.223-0.104,0.319-0.158c0.622,0.814,1.608,1.972,1.608,1.972c0.032,0.01,0.06,0.01,0.091,0.015
					c-0.09,0.081-0.149,0.158-0.149,0.158s-0.228,0.102-0.203,0.482c0.025,0.381,0.406,0.406,0.533,0.685s0.127,0.025,0.127,0.355
					c0,0.33,0.482,0.66,0.711,0.584c0.586-0.195,0.381-0.482,0.203-0.838c-0.178-0.355-0.406-0.457-0.406-0.634
					c0-0.076,0.012-0.214,0.002-0.364c0.097,0.049,0.204,0.082,0.273,0.174c0.129,0.172,0.091-0.002,0.141,0.224
					c0.05,0.226,0.431,0.378,0.575,0.292c0.371-0.223,0.187-0.388,0.012-0.604c-0.176-0.216-0.347-0.251-0.374-0.373
					c-0.027-0.122-0.052-0.481-0.313-0.587c-0.261-0.106-0.444,0.299-0.444,0.299s-0.035,0.027-0.061,0.085
					c-0.021-0.021-0.039-0.042-0.065-0.06c-0.019-0.013-0.039-0.017-0.059-0.025c0.163-0.131,0.259-0.294,0.259-0.294l-1.917-2.054
					c0.307-0.623-0.107-1.343-0.766-1.565c-0.05-0.03-0.128-0.044-0.128-0.044l-0.511-2.556c0.511-0.426,0.682-5.963,0.682-5.963
					s4.345-25.813,4.6-26.75c0.256-0.937,0.17-1.874,0.17-3.237c0-1.048-0.801-1.339-1.174-1.418
					c0.938,0.14,1.722,0.066,2.281-2.331c0.596-2.556-1.534-3.663-2.045-4.43c-0.511-0.767-0.596-7.326,0-12.779
					c0.596-5.452,2.215-19.679,2.215-19.679s0.767-0.767,0.937-1.874c0.17-1.107-1.278-1.193-1.278-1.193s0.596-1.448,0-2.641
					c-0.305-0.611-1.146-0.684-1.895-0.612c0.143-0.7,0.05-1.454,0.101-2.062c0.089-1.062,2.124-1.859,3.01-3.275
					c0.885-1.416,0.354-4.869-1.682-6.551c-2.026-1.674-5.629-0.892-8.843,1.309v-0.358c0-0.328-0.266-0.594-0.594-0.594h-1.608
					l-0.019-1.015h1.222c0.328,0,0.594-0.266,0.594-0.594v-0.391c0-0.328-0.266-0.594-0.594-0.594h-1.251l-0.02-1.074h1.271
					c0.328,0,0.594-0.266,0.594-0.594v-0.391c0-0.328-0.266-0.594-0.594-0.594h-1.3l-0.025-1.369h0.908
					c0.328,0,0.594-0.266,0.594-0.594v-0.391c0-0.328-0.266-0.594-0.594-0.594h-0.937l-0.029-1.579h0.671
					c0.328,0,0.594-0.266,0.594-0.594v-0.391c0-0.328-0.266-0.594-0.594-0.594h-0.7l-0.016-0.851h0.43
					c0.328,0,0.594-0.266,0.594-0.594v-0.027c0-0.328-0.266-0.594-0.594-0.594h-0.452l-0.06-3.243
					c0.627,1.322,1.088,2.873,1.518,4.327c0.466,1.573,0.868,2.932,1.429,3.844c0.928,1.509,2.199,2.495,3.578,2.775
					c0.276,0.056,0.553,0.084,0.831,0.084c0.959,0,1.924-0.331,2.833-0.976c1.727-1.227,1.795-4.443,1.592-6.733
					c0.055-1.547-0.257-2.846-0.286-2.962c-0.005-0.021-0.019-0.036-0.026-0.055c0.25-0.275,0.448-0.584,0.588-0.929
					c0.41-1.012,0.261-2.179-0.395-3.323c0.456-0.524,0.754-1.103,0.853-1.714c0.125-0.774-0.099-1.502-0.617-2.11
					c0.183-0.309,0.306-0.633,0.357-0.968c0.155-1.031-0.415-1.969-1.558-2.588c0.134-0.261,0.209-0.535,0.209-0.823
					c0-0.766-0.504-1.435-1.361-2.003c0-0.007-0.001-0.019-0.001-0.024c0-0.402,1.907-2.61,1.907-2.61l2.509,0.502
					c0,0,1.305,5.42,1.506,7.026c0.201,1.606,1.305,5.22,2.108,8.432c0.803,3.212,0.602,6.926,0.602,6.926s-1.104-0.301-1.204,1.104
					c-0.1,1.405,0.1,1.405,0.401,2.208c0.178,0.474,0.22,0.701,0.448,0.85c-0.314,0.338-0.516,0.758-0.549,1.258
					c-0.1,1.506,0.903,2.911,0.903,2.911s0.502,1.506,1.004,6.123c0.502,4.617,2.108,9.034,2.811,11.042
					c0.34,0.97,0.515,1.493,0.731,1.833c-0.233,0.602-0.855,1.719-0.329,2.684c0.101,0.184,0.237,0.308,0.398,0.393
					c-0.023,0.233-0.102,0.902-0.317,2.022c-0.146,0.761-0.179,1.421-0.104,1.909c-0.159-0.012-0.276-0.005-0.276-0.005
					s0,0-0.054,0.435c-0.054,0.435-0.217,1.36,0.272,2.774c0.331,0.957,0.314,1.241,0.454,1.392c-0.138,0.073-0.236,0.13-0.236,0.13
					s0,0,0.054,0.381c0.054,0.381,0.326,0.87,0.598,1.577c0.272,0.707,0.381,0.544,0.707,0.381c0.326-0.163-0.054-2.719-0.054-2.719
					c-0.014-0.017-0.04-0.021-0.061-0.032c0.048-0.216,0.048-0.465,0.006-0.675c-0.109-0.544-0.163-1.686-0.163-2.175
					c0-0.273-0.134-0.576-0.254-0.794c0.092-0.176,0.152-0.462,0.2-0.892c0.109-0.979,0.326-3.589,0.326-3.589
					c-0.001-0.01-0.006-0.014-0.007-0.024c0.353-0.055,0.74-0.161,1.139-0.281c-0.027,0.02-0.045,0.033-0.045,0.033
					s0.218,1.686,0.326,2.447c0.109,0.761-0.054,1.468,0.326,2.121c0,0,0,0,0.109,0.761c0.109,0.761,0.381,1.033,0.653,1.468
					c0.272,0.435,0.163,0.707,0.326,1.523c0.059,0.292,0.132,0.477,0.231,0.582c-0.032,0.062-0.057,0.125-0.068,0.18
					c-0.054,0.272,0.109,0.761,0.381,1.577c0.077,0.23,0.123,0.417,0.163,0.573c-0.127-0.013-0.218-0.029-0.218-0.029
					s0.109,2.23,0.707,2.828c0.598,0.598,0.598-0.381,0.761-0.925c0.132-0.439-0.126-1.618-0.23-2.059
					c0.034-0.473-0.038-1.049-0.096-1.367c-0.109-0.598-0.544-0.87-0.544-0.87c0.653-0.326,0.217-0.924,0-1.414
					s-0.272-1.033-0.326-1.849c-0.054-0.816-0.544-0.925-0.544-0.925c-0.02-0.03-0.046-0.046-0.067-0.071
					c0.144-0.154,0.254-0.35,0.285-0.582c0.109-0.816-0.489-1.686-0.544-1.904c-0.042-0.169-0.052-1.261-0.123-1.995
					c0.256,0.266,0.742,0.58,0.927,1.195c0.301,1.004,0.301,1.405,0.502,2.61c0.055,0.331,0.172,0.545,0.317,0.676
					c-0.01,0.016-0.016,0.027-0.016,0.027s0.201,1.907,0.201,2.811c0,0.426,0.068,1.051,0.212,1.637l-0.112-0.031
					c0,0-0.1,2.208,0.502,3.513c0.602,1.305,0.903,0.201,0.903-0.703c0-0.483-0.086-1.165-0.166-1.697
					c0.195-1.003-0.035-3.516-0.035-4.125c0-0.803-0.301-1.706-0.301-1.706c0.301-0.502-0.502-2.108-0.903-3.011
					c-0.401-0.903,0-2.509,0-2.509s0.502,0.803,0.903,1.405c-0.602-0.201,1.606,2.409,2.108,3.112
					c0.336,0.47,0.852,0.713,1.277,0.462c0.011,0.014,0.017,0.025,0.028,0.039c0.401,0.502,2.007,0.602,2.509-0.201
					C117.061,184.843,114.551,185.043,114.551,185.043z M56.246,168.782c-0.703,2.61-2.208,6.926-2.208,6.926
					s0.201-3.312,1.104-8.432c0.903-5.119,1.405-7.026,1.907-8.13l0.502,1.505C57.551,160.652,56.949,166.173,56.246,168.782z
					 M77.079,163.96l-0.017,0.66c-0.279-0.209-0.573-0.426-0.9-0.66H77.079z M73.001,252.049l0.341,2.471
					c-0.17-0.682-1.789-9.797-1.789-9.797s-2.13-12.864-2.641-15.931c-0.511-3.067-0.17-6.049-0.17-6.049s0.596,1.789,0.767,2.726
					c0.17,0.937,0.682,3.578,1.704,9.627S73.001,252.049,73.001,252.049z M76.428,178.402c-0.443,0.797-0.974,0.974-2.302,0.089
					c-1.328-0.885-0.974-2.567-0.443-2.833c0.531-0.266,3.187,0.62,3.187,0.62S76.871,177.605,76.428,178.402z M73.507,173.71
					c0,0-0.354-0.708-0.354-1.771c0-1.062,0.531-1.947,2.125-0.797c1.594,1.151,3.63,4.869,3.63,4.869L73.507,173.71z
					 M84.307,178.49c-1.328,0.885-1.859,0.708-2.302-0.089c-0.443-0.797-0.443-2.124-0.443-2.124s2.656-0.885,3.187-0.62
					C85.281,175.923,85.635,177.605,84.307,178.49z M89.799,228.792c-0.511,3.067-2.641,15.931-2.641,15.931
					s-1.619,9.115-1.789,9.797l0.341-2.471c0,0,0.767-10.904,1.789-16.953s1.533-8.689,1.704-9.627
					c0.17-0.937,0.767-2.726,0.767-2.726S90.31,225.725,89.799,228.792z M85.281,171.94c0,1.062-0.354,1.771-0.354,1.771l-5.4,2.302
					c0,0,2.036-3.718,3.629-4.869C84.75,169.992,85.281,170.878,85.281,171.94z M82.833,163.96c-0.474,0.339-0.89,0.649-1.262,0.934
					l-0.017-0.934H82.833z M92.203,144.661c-0.017,0.041-0.042,0.078-0.062,0.118c-0.273-0.531-0.657-1.064-1.167-1.584
					c0.372-0.187,0.714-0.394,1.021-0.618C92.368,143.324,92.451,144.049,92.203,144.661z M66.654,142.533
					c0.28,0.21,0.593,0.403,0.93,0.581c-0.501,0.498-0.887,1.007-1.169,1.517C66.178,144.014,66.27,143.285,66.654,142.533z
					 M85.691,132.43c-1.127,0.273-2.457,0.486-3.972,0.599c-0.055-0.613-0.105-1.2-0.143-1.732c1.048-0.103,2.019-0.275,2.895-0.505
					c0.272,0.039,0.542,0.079,0.799,0.124C85.404,131.391,85.547,131.906,85.691,132.43z M91.292,145.677
					c-0.525,0.323-1.226,0.532-2.083,0.601c-3.573,0.286-5.408-1.753-6.504-2.972l-0.024-0.027c1.723,0.689,3.77,1.154,5.779,0.756
					c0.473-0.094,0.921-0.216,1.345-0.359C90.511,144.308,91.012,144.983,91.292,145.677z M68.735,143.62
					c0.473,0.169,0.98,0.309,1.515,0.416c0.513,0.102,1.028,0.147,1.541,0.147c1.444,0,2.858-0.365,4.109-0.853
					c-1.098,1.222-2.938,3.232-6.482,2.948c-0.924-0.075-1.669-0.31-2.204-0.678C67.509,144.913,68.022,144.245,68.735,143.62z
					 M73.598,130.863c0.152-0.025,0.308-0.048,0.466-0.07c0.923,0.243,1.95,0.423,3.063,0.523c-0.038,0.53-0.088,1.116-0.143,1.726
					c-1.451-0.1-2.737-0.292-3.842-0.541C73.299,131.933,73.454,131.374,73.598,130.863z M84.361,129.62
					c-0.923-0.127-1.883-0.218-2.854-0.274c0.011-0.282,0.04-0.484,0.094-0.574c0.035-0.058,0.072-0.12,0.111-0.185
					c0.784-0.15,1.505-0.365,2.131-0.643c0.307,0.294,0.581,0.534,0.695,0.686c0.058,0.077,0.167,0.387,0.309,0.844
					C84.691,129.526,84.528,129.574,84.361,129.62z M73.979,129.562c0.155-0.504,0.274-0.849,0.336-0.931
					c0.102-0.136,0.335-0.346,0.601-0.597c0.625,0.255,1.33,0.457,2.099,0.59c0.031,0.051,0.061,0.101,0.089,0.148
					c0.053,0.089,0.082,0.288,0.094,0.565c-1.029,0.054-2.047,0.149-3.023,0.283C74.107,129.602,74.044,129.582,73.979,129.562z
					 M75.826,127.037c0.126-0.014,0.261-0.023,0.39-0.035c0.031,0.098,0.065,0.194,0.103,0.29c-0.194-0.052-0.379-0.11-0.557-0.171
					C75.783,127.093,75.806,127.065,75.826,127.037z M82.484,127.017c0.149,0.015,0.296,0.031,0.442,0.048
					c-0.166,0.061-0.339,0.117-0.519,0.17C82.433,127.163,82.46,127.09,82.484,127.017z M82.644,125.876
					c-0.005-0.001-0.01-0.001-0.015-0.002c-0.012-0.116-0.034-0.231-0.067-0.345c0.223-0.107,0.506-0.231,0.847-0.358
					C83.072,125.323,82.74,125.548,82.644,125.876z M83.983,124.974c0.169-0.053,0.345-0.106,0.535-0.157
					c-0.093,0.033-0.189,0.063-0.28,0.1C84.238,124.918,84.135,124.935,83.983,124.974z M76.106,125.669
					c-0.383-0.564-1.491-0.751-1.491-0.751c-0.13-0.054-0.266-0.098-0.401-0.143c0.837,0.212,1.491,0.463,1.95,0.672
					C76.14,125.52,76.122,125.594,76.106,125.669z M81.865,124.581c-0.312-0.182-0.678-0.232-1.04-0.21l-0.006-0.321
					c0.621,0.043,1.213,0.109,1.769,0.198C82.3,124.368,82.057,124.483,81.865,124.581z M78.078,124.39
					c-0.388-0.05-0.795-0.032-1.144,0.137c-0.196-0.097-0.432-0.206-0.711-0.32c0.588-0.085,1.21-0.146,1.865-0.18L78.078,124.39z
					 M76.465,140.216c0.013,0.387,0.053,0.66,0.128,0.779c0.121,0.19,0.253,0.383,0.386,0.57c-1.743,0.896-4.2,1.794-6.503,1.336
					c-0.206-0.041-0.39-0.095-0.581-0.145c0.187-0.119,0.381-0.236,0.584-0.35C72.446,141.306,74.759,140.618,76.465,140.216z
					 M66.953,146.843c0.004-0.018-0.002-0.035,0-0.054c0.647,0.344,1.441,0.567,2.372,0.642c0.266,0.021,0.522,0.032,0.772,0.032
					c3.383,0,5.311-1.876,6.437-3.109c-0.214,0.269-0.436,0.554-0.666,0.848c-1.014,1.297-2.163,2.767-3.051,3.491
					c-0.93,0.757-2.664,1.085-4.034,0.762c-0.548-0.129-1.262-0.418-1.552-1.06c-0.208-0.461-0.305-0.93-0.307-1.398
					C66.934,146.946,66.944,146.889,66.953,146.843z M82.608,145.202c-0.479-0.613-0.923-1.18-1.327-1.66
					c-0.035-0.047-0.07-0.093-0.106-0.139l0-0.003c0.201,0.186,0.403,0.383,0.6,0.602l0.069,0.077
					c1.083,1.206,3.041,3.383,6.685,3.383c0.249,0,0.507-0.01,0.772-0.032c0.861-0.069,1.604-0.267,2.224-0.568
					c0.008,0.04,0.017,0.089,0.025,0.132c-0.001,0.469-0.098,0.938-0.307,1.4c-0.29,0.642-1.004,0.931-1.552,1.06
					c-1.37,0.323-3.104-0.005-4.034-0.762C84.77,147.969,83.621,146.5,82.608,145.202z M88.234,142.901
					c-2.305,0.459-4.765-0.441-6.508-1.338c0.132-0.187,0.264-0.379,0.384-0.568c0.072-0.113,0.111-0.368,0.126-0.725
					c1.681,0.408,3.876,1.082,5.759,2.136c0.228,0.127,0.441,0.259,0.648,0.393C88.506,142.832,88.38,142.872,88.234,142.901z
					 M85.996,133.542c0.005,0.017,0.009,0.034,0.014,0.051c-0.098,0.004-0.194,0.008-0.291,0.013
					C85.812,133.584,85.905,133.564,85.996,133.542z M80.797,122.889l-0.01-0.545c1.318,0.163,2.419,0.528,3.198,0.988
					C83.02,123.11,81.945,122.962,80.797,122.889z M78.131,122.302l-0.014,0.563c-1.292,0.061-2.495,0.221-3.567,0.466
					C75.403,122.828,76.641,122.437,78.131,122.302z M67.288,124.717c0,0-0.259-0.136-0.655-0.298
					c0.734-0.036,1.888-0.07,3.633-0.075C68.602,124.421,67.288,124.717,67.288,124.717z M72.527,134.742
					c1.998,0.075,3.822,0.338,4.262,0.406c-0.046,0.497-0.091,0.99-0.133,1.469c-0.386-0.025-0.762-0.056-1.126-0.091
					c-0.314-0.04-0.665-0.081-1.044-0.119c-0.843-0.109-1.613-0.246-2.315-0.401C72.274,135.648,72.396,135.216,72.527,134.742z
					 M68.549,137.643c0.778,0.651,2.237,0.4,2.969-0.247c0.635,0.005,1.271,0.035,1.87,0.079c-1.464,0.39-3.075,0.906-4.429,1.552
					c-0.708-0.267-1.27-0.595-1.694-0.943C67.627,137.891,68.063,137.748,68.549,137.643z M76.55,137.932
					c-0.015,0.208-0.028,0.407-0.04,0.601c-1.618,0.689-3.711,1.283-5.708,0.973C72.724,138.785,74.96,138.246,76.55,137.932z
					 M70.437,140.623c0.273,0.049,0.547,0.079,0.821,0.1c-0.455,0.206-0.906,0.429-1.343,0.673c-0.514,0.287-0.97,0.586-1.377,0.891
					c-0.48-0.218-0.894-0.462-1.231-0.724c0.03-0.035,0.055-0.071,0.086-0.106c0.37-0.422,0.95-0.814,1.645-1.177
					C69.477,140.417,69.943,140.535,70.437,140.623z M68.517,150.581c0.44,0.104,0.906,0.153,1.376,0.153
					c1.363,0,2.762-0.417,3.655-1.144c0.099-0.081,0.201-0.173,0.303-0.266c-1.251,2.834-2.382,4.717-4.903,3.725
					c-1.535-0.604-2.096-2.046-2.255-3.437C67.136,150.066,67.756,150.402,68.517,150.581z M84.927,149.59
					c0.893,0.727,2.291,1.144,3.655,1.144c0.47,0,0.936-0.05,1.376-0.153c0.761-0.18,1.382-0.516,1.824-0.969
					c-0.16,1.391-0.72,2.833-2.255,3.437c-2.522,0.992-3.652-0.892-4.903-3.725C84.726,149.417,84.828,149.509,84.927,149.59z
					 M90.026,142.357c-0.429-0.33-0.913-0.652-1.466-0.961c-0.429-0.24-0.872-0.459-1.32-0.662c0.344-0.018,0.689-0.049,1.033-0.111
					c0.474-0.085,0.922-0.197,1.346-0.328c0.681,0.358,1.249,0.745,1.614,1.161c0.043,0.048,0.077,0.097,0.118,0.146
					C90.989,141.877,90.548,142.135,90.026,142.357z M82.194,138.529c-0.011-0.188-0.024-0.381-0.038-0.582
					c1.591,0.318,3.796,0.853,5.692,1.566C85.867,139.801,83.796,139.212,82.194,138.529z M85.257,137.479
					c0.662-0.05,1.37-0.084,2.076-0.085c0.723,0.64,2.155,0.893,2.941,0.273c0.441,0.102,0.838,0.239,1.172,0.416
					c-0.433,0.355-1.014,0.689-1.743,0.959C88.347,138.391,86.729,137.871,85.257,137.479z M82.047,136.604
					c-0.041-0.475-0.086-0.963-0.132-1.454c0.441-0.068,2.349-0.344,4.409-0.412c0.123,0.446,0.238,0.855,0.337,1.199
					C85.375,136.24,83.828,136.479,82.047,136.604z M67.974,132.85c-0.029,0.338-0.055,0.718-0.074,1.112
					c-0.056,0.015-0.113,0.03-0.168,0.047c-0.102-0.15-0.164-0.298-0.164-0.44C67.568,133.342,67.711,133.097,67.974,132.85z
					 M67.403,135.376c0.018-0.009,0.039-0.018,0.058-0.027c0.134,0.104,0.279,0.205,0.435,0.303c0.02,0.339,0.058,0.656,0.116,0.937
					c-0.525,0.131-1.003,0.304-1.404,0.532c-0.037,0.021-0.068,0.046-0.105,0.068c-0.062-0.129-0.103-0.257-0.121-0.38
					C66.278,136.114,66.879,135.646,67.403,135.376z M66.119,139.873c-0.066-0.407,0.044-0.745,0.235-1.025
					c0.366,0.327,0.81,0.624,1.323,0.884c-0.459,0.299-0.853,0.619-1.153,0.961c-0.011,0.012-0.019,0.025-0.03,0.038
					C66.288,140.437,66.163,140.145,66.119,139.873z M70.501,155.532c-0.915,0.187-1.846-0.049-2.764-0.702
					c-0.529-0.376-0.841-1.105-1.01-1.984c0.441,0.529,1.025,0.976,1.797,1.28c0.621,0.244,1.183,0.353,1.694,0.352
					c1.828,0,3-1.389,3.843-2.921c-0.233,0.692-0.472,1.297-0.737,1.727C72.566,154.518,71.563,155.316,70.501,155.532z
					 M90.738,154.831c-0.918,0.652-1.847,0.889-2.764,0.702c-1.062-0.216-2.064-1.014-2.824-2.248
					c-0.264-0.429-0.504-1.033-0.736-1.725c0.843,1.531,2.014,2.919,3.842,2.919c0.511,0,1.074-0.108,1.694-0.352
					c0.772-0.304,1.355-0.751,1.797-1.28C91.578,153.726,91.267,154.455,90.738,154.831z M92.104,140.693
					c-0.293-0.333-0.675-0.645-1.118-0.937c0.533-0.265,0.994-0.57,1.371-0.907c0.191,0.279,0.301,0.617,0.235,1.025
					c-0.047,0.287-0.19,0.597-0.417,0.909C92.149,140.753,92.13,140.723,92.104,140.693z M92.329,136.809
					c-0.018,0.123-0.06,0.251-0.121,0.38c-0.036-0.022-0.067-0.047-0.104-0.068c-0.366-0.209-0.796-0.372-1.268-0.499
					c0.075-0.349,0.116-0.756,0.133-1.191c0.06-0.044,0.115-0.089,0.171-0.134c0.057,0.026,0.115,0.051,0.169,0.078
					C91.831,135.646,92.433,136.114,92.329,136.809z M90.967,133.57c0,0.042-0.018,0.087-0.027,0.13
					c-0.008-0.13-0.016-0.257-0.025-0.381C90.95,133.404,90.967,133.488,90.967,133.57z M88.585,124.344
					c1.738,0.004,2.897,0.037,3.641,0.073c-0.399,0.163-0.661,0.3-0.661,0.3S90.25,124.42,88.585,124.344z M102.607,168.782
					c-0.703-2.61-1.305-8.131-1.305-8.131l0.502-1.505c0.502,1.104,1.004,3.011,1.907,8.13c0.903,5.119,1.104,8.432,1.104,8.432
					S103.309,171.392,102.607,168.782z"/>
				<path style="fill:#FFFFFF;" d="M105.16,183.702c0.054,0.544-0.054,2.23,0,3.154c0.012,0.208,0.052,0.34,0.107,0.429
					c-0.007,0.261-0.037,1.594,0.11,2.181c0.163,0.653,0.326,1.958,0.707,1.958c0,0,0,1.305,0.163,2.012
					c0.05,0.217,0.117,0.393,0.194,0.535l-0.031,0.009c0,0-0.272,0.653,0,1.36c0.272,0.707,0.761,1.468,1.088,0.544
					c0.326-0.924,0-2.23,0-2.23l-0.088,0.026c0.035-0.319,0.008-0.67-0.021-0.842c-0.054-0.326-0.381-1.414-0.381-1.414h-0.153
					c0.184-0.05,0.31-0.177,0.262-0.49c-0.109-0.707-0.326-0.707-0.381-1.468c-0.054-0.761-0.544-2.284-0.544-2.284
					c0.435-0.163,0.272-0.49,0.163-1.197c-0.109-0.707-0.163-3.916-0.163-3.916l-1.088,0.272
					C105.106,182.342,105.106,183.158,105.16,183.702z"/>
				<path style="fill:#FFFFFF;" d="M52.496,185.986c-0.109,0.707-0.272,1.033,0.163,1.197c0,0-0.49,1.523-0.544,2.284
					c-0.054,0.761-0.272,0.761-0.381,1.468c-0.048,0.313,0.078,0.44,0.262,0.49h-0.153c0,0-0.326,1.088-0.381,1.414
					c-0.029,0.172-0.055,0.523-0.021,0.842l-0.088-0.026c0,0-0.326,1.305,0,2.23c0.326,0.925,0.816,0.163,1.088-0.544
					c0.272-0.707,0-1.36,0-1.36l-0.031-0.009c0.077-0.142,0.144-0.318,0.194-0.535c0.163-0.707,0.163-2.012,0.163-2.012
					c0.381,0,0.544-1.305,0.707-1.958c0.147-0.587,0.118-1.92,0.11-2.181c0.055-0.089,0.095-0.221,0.107-0.429
					c0.054-0.924-0.054-2.61,0-3.154c0.054-0.544,0.054-1.36,0.054-1.36l-1.088-0.272C52.66,182.07,52.605,185.279,52.496,185.986z"
					/>
			</g>
		</g>
	</g>
</g>
<g id="Plant">
	<g>
		<path style="fill:none;stroke:#263238;stroke-linecap:round;stroke-linejoin:round;stroke-miterlimit:10;" d="M396.615,352.54
			c0,0,10.861,17.358,15.405,34.149c3.23,11.937,3.376,35.627,3.376,35.627s0.219-70.289,16.395-97.505"/>
		<path style="fill:none;stroke:#263238;stroke-linecap:round;stroke-linejoin:round;stroke-miterlimit:10;" d="M440.52,263.959
			c0,0-15.662,25.162-20.027,51.351c-4.365,26.189-5.392,91.149-5.392,91.149c-0.257-13.608-2.311-63.419-6.676-84.987
			c-4.365-21.568-12.324-37.23-12.324-37.23"/>
		<g>
			<path style="fill:#E8AA14;" d="M399.498,291.885c0,0,13.108,0.607,19.228-9.233c6.12-9.84,2.096-19.246-3.657-19.934
				c-5.753-0.688-8.251,6.427-10.383,3.014c-2.132-3.413,6.12-9.84-3.128-15.751c-9.247-5.911-13.556,2.566-16.489-0.462
				c-2.933-3.028-0.819-10.945-6.925-14.421c-6.106-3.476-8.957,0.851-12.339,0.996c-3.381,0.145-14.022-5.59-18.268-1.086
				c-4.246,4.504,5.916,15.398,1.141,15.72c-4.775,0.321-6.712,9.632-2.833,15.656c3.879,6.024,16.363,8.41,13.927,11.551
				c-2.435,3.141-14.357,2.951-9.501,9.985c4.857,7.034,21.346,7.496,23.718,8.328c2.372,0.833-7.595,2.661-5.911,9.247
				c1.684,6.586,15.385,7.401,24.197,3.168C401.087,304.432,399.498,291.885,399.498,291.885z"/>
			<path style="fill:none;stroke:#263238;stroke-linecap:round;stroke-linejoin:round;stroke-miterlimit:10;" d="M361.678,247.505
				c0,0,27.841,18.198,37.821,44.38"/>
			<polyline style="fill:none;stroke:#263238;stroke-linecap:round;stroke-linejoin:round;stroke-miterlimit:10;" points="
				360.312,260.251 378.977,262.072 374.424,246.594 			"/>
			<polyline style="fill:none;stroke:#263238;stroke-linecap:round;stroke-linejoin:round;stroke-miterlimit:10;" points="
				375.335,281.648 394,281.648 395.365,264.804 			"/>
		</g>
		<g>
			<path style="fill:#E8AA14;" d="M437.892,269.586c0,0-10.641,0.492-15.608-7.495c-4.968-7.988-1.701-15.623,2.969-16.182
				c4.67-0.559,6.698,5.217,8.429,2.447c1.731-2.77-4.968-7.988,2.539-12.786c7.507-4.799,11.004,2.083,13.385-0.375
				c2.381-2.458,0.665-8.884,5.622-11.706c4.957-2.822,7.271,0.691,10.016,0.808c2.745,0.118,11.383-4.538,14.829-0.882
				c3.447,3.656-4.802,12.5-0.926,12.761c3.876,0.261,5.449,7.819,2.3,12.709c-3.149,4.89-13.283,6.827-11.306,9.377
				c1.977,2.55,11.655,2.396,7.712,8.105c-3.942,5.71-17.328,6.085-19.253,6.761c-1.925,0.676,6.165,2.161,4.799,7.507
				c-1.367,5.346-12.489,6.007-19.643,2.572C436.603,279.771,437.892,269.586,437.892,269.586z"/>
			<path style="fill:none;stroke:#263238;stroke-linecap:round;stroke-linejoin:round;stroke-miterlimit:10;" d="M468.594,233.56
				c0,0-22.601,14.773-30.702,36.026"/>
			<polyline style="fill:none;stroke:#263238;stroke-linecap:round;stroke-linejoin:round;stroke-miterlimit:10;" points="
				469.703,243.907 454.551,245.385 458.247,232.82 			"/>
			<polyline style="fill:none;stroke:#263238;stroke-linecap:round;stroke-linejoin:round;stroke-miterlimit:10;" points="
				457.507,261.276 442.356,261.276 441.247,247.602 			"/>
		</g>
		<g>
			<path style="fill:#E8AA14;" d="M403.084,364.869c0,0,8.632,0.399,12.662-6.081c4.03-6.48,1.38-12.674-2.408-13.127
				c-3.789-0.453-5.434,4.233-6.838,1.985c-1.404-2.248,4.03-6.48-2.06-10.373c-6.09-3.893-8.927,1.69-10.859-0.304
				c-1.931-1.994-0.539-7.207-4.561-9.497c-4.021-2.289-5.899,0.56-8.126,0.656c-2.227,0.095-9.235-3.681-12.031-0.715
				c-2.796,2.966,3.896,10.141,0.751,10.352c-3.145,0.212-4.421,6.343-1.866,10.311c2.555,3.967,10.776,5.538,9.172,7.607
				c-1.604,2.069-9.455,1.944-6.257,6.576c3.198,4.632,14.057,4.936,15.619,5.485c1.562,0.548-5.002,1.753-3.893,6.09
				c1.109,4.337,10.132,4.874,15.935,2.087C404.13,373.132,403.084,364.869,403.084,364.869z"/>
			<path style="fill:none;stroke:#263238;stroke-linecap:round;stroke-linejoin:round;stroke-miterlimit:10;" d="M378.177,335.643
				c0,0,18.335,11.985,24.907,29.227"/>
			<polyline style="fill:none;stroke:#263238;stroke-linecap:round;stroke-linejoin:round;stroke-miterlimit:10;" points="
				377.277,344.037 389.569,345.236 386.571,335.043 			"/>
			<polyline style="fill:none;stroke:#263238;stroke-linecap:round;stroke-linejoin:round;stroke-miterlimit:10;" points="
				387.171,358.128 399.462,358.128 400.362,347.035 			"/>
		</g>
		<g>
			<path style="fill:#E8AA14;" d="M428.683,331.065c0,0-13.005-1.748-17.265-12.525c-4.26-10.776,1.381-19.31,7.164-18.958
				c5.783,0.352,6.968,7.8,9.676,4.824c2.708-2.976-4.26-10.776,5.895-14.938c10.156-4.162,12.878,4.95,16.306,2.496
				s2.764-10.621,9.393-12.949c6.629-2.328,8.661,2.44,11.961,3.187c3.301,0.747,14.796-2.991,18.168,2.199
				c3.371,5.191-8.575,14.092-3.935,15.262s4.881,10.677-0.013,15.911c-4.894,5.233-17.603,5.347-15.769,8.873
				c1.834,3.526,13.598,5.472,7.561,11.523c-6.037,6.052-22.342,3.556-24.825,3.951c-2.482,0.395,6.996,3.977,4.162,10.156
				c-2.835,6.178-16.461,4.529-24.374-1.212C424.875,343.125,428.683,331.065,428.683,331.065z"/>
			<path style="fill:none;stroke:#263238;stroke-linecap:round;stroke-linejoin:round;stroke-miterlimit:10;" d="M473.833,294.167
				c0,0-30.648,12.924-45.15,36.898"/>
			<polyline style="fill:none;stroke:#263238;stroke-linecap:round;stroke-linejoin:round;stroke-miterlimit:10;" points="
				472.896,306.952 454.207,305.405 461.455,290.991 			"/>
			<polyline style="fill:none;stroke:#263238;stroke-linecap:round;stroke-linejoin:round;stroke-miterlimit:10;" points="
				454.288,325.316 435.924,321.977 437.594,305.16 			"/>
		</g>
		<path style="fill:#263238;stroke:#263238;stroke-linecap:round;stroke-linejoin:round;stroke-miterlimit:10;" d="M394.094,389.334
			c-0.93,2.503-1.464,23.799-1.464,26.626c0,18.728,10.331,23.075,23.075,23.075c12.744,0,23.075-3.344,23.075-23.075
			c0-2.827-0.533-24.123-1.464-26.626H394.094z"/>
	</g>
</g>
<g id="Character_1">
	<g>
		<path style="fill:#FFFFFF;stroke:#263238;stroke-linejoin:round;stroke-miterlimit:10;" d="M97.508,218.777
			c0,0-3.3,13.799-2.55,17.999c0.75,4.2,6.6,7.35,10.049,6c3.45-1.35,8.55-7.65,8.55-7.65l-3-12.149L97.508,218.777z"/>
		<path style="fill:#FFFFFF;stroke:#263238;stroke-linejoin:round;stroke-miterlimit:10;" d="M126.569,414.085
			c0,0-2.635,6.589-4.832,8.785c-2.196,2.196-8.565,6.369-9.005,9.004c-0.439,2.635,3.294,4.173,7.467,5.271
			c4.173,1.098,9.883-1.098,11.859-1.976c1.977-0.879,10.322-1.579,12.518-2.457c2.196-0.878,0.439-15.991,0.439-15.991
			L126.569,414.085z"/>
		<path style="fill:#FFFFFF;stroke:#263238;stroke-linejoin:round;stroke-miterlimit:10;" d="M146.774,408.869
			c0,0-1.318,11.86-1.977,16.691c-0.659,4.832-1.318,9.831,1.977,11.148c3.294,1.318,14.495,2.416,17.57,0.659
			c3.075-1.757,2.635-7.415,0.659-14.004c-1.977-6.589-3.734-11.42-3.734-11.42S157.096,405.355,146.774,408.869z"/>
		<path style="fill:#E8AA14;stroke:#263238;stroke-linejoin:round;stroke-miterlimit:10;" d="M113.392,274.461
			c0,0,0.878,60.176,2.855,77.307c1.977,17.13,10.103,56.388,10.103,56.388s-2.196,1.537-1.977,3.734
			c0.22,2.196,1.098,5.93,1.098,5.93s6.149,2.416,9.663,2.635c3.514,0.22,10.542-1.977,10.542-1.977l-2.196-139.185L113.392,274.461
			z"/>
		<path style="fill:#E8AA14;stroke:#263238;stroke-linejoin:round;stroke-miterlimit:10;" d="M143.48,279.293l1.318,129.082
			l-0.878,3.953l1.757,6.149c0,0,5.688-4.881,8.982-4.003c3.294,0.878,9.493,4.497,9.493,4.497s2.609-8.126,3.048-11.201
			c0.439-3.075-1.098-10.322-0.439-15.154c0.659-4.832,6.202-42.608,6.202-42.608l2.582-73.791L143.48,279.293z"/>
		<g>
			<path style="fill:#E8AA14;stroke:#263238;stroke-linejoin:round;stroke-miterlimit:10;" d="M137.406,165.08
				c0,0-27.899,7.5-28.499,8.4s-16.949,45.898-16.949,45.898l22.349,7.5l-4.8,50.098c0,0,16.199,7.8,35.998,6.9
				c19.799-0.9,32.398-3.75,32.398-3.75l1.95-58.647l19.573,2.072c0,0-13.124-47.369-14.623-49.319c-1.5-1.95-25.499-8.1-25.499-8.1
				L137.406,165.08z"/>
			
				<line style="fill:none;stroke:#263238;stroke-linejoin:round;stroke-miterlimit:10;" x1="177.004" y1="218.627" x2="179.854" y2="190.129"/>
			
				<line style="fill:none;stroke:#263238;stroke-linejoin:round;stroke-miterlimit:10;" x1="114.307" y1="205.278" x2="114.307" y2="183.829"/>
		</g>
		<polyline style="fill:none;stroke:#263238;stroke-linejoin:round;stroke-miterlimit:10;" points="131.706,167.03 144.606,223.877 
			163.955,167.78 		"/>
		
			<rect x="138.756" y="224.477" style="fill:#FFFFFF;stroke:#263238;stroke-linejoin:round;stroke-miterlimit:10;" width="11.849" height="20.999"/>
		<g>
			<path style="fill:#FFFFFF;stroke:#263238;stroke-linejoin:round;stroke-miterlimit:10;" d="M136.356,153.68l0.15,13.949
				c0,0,5.993,11.104,7.35,13.199c1.65,2.55,4.95,7.05,4.95,7.05l11.549-20.099l0.3-9.6L136.356,153.68z"/>
			<g>
				<path style="fill:#FFFFFF;stroke:#263238;stroke-linejoin:round;stroke-miterlimit:10;" d="M139.775,121.386
					c0,0-4.25,3.157-4.736,7.893c-0.486,4.736-0.243,10.443-0.243,10.443s-1.7-2.186-3.036,0.971
					c-1.336,3.157,0.729,6.557,1.821,7.164c1.093,0.607,2.064,1.579,2.064,1.579s0.122,9.229,4.007,13.721
					c3.886,4.493,9.957,5.343,16.15,3.521c4.865-1.431,6.314-7.771,7.043-13.236c0.729-5.464,1.579-18.457,1.093-24.043
					c-0.486-5.586-6.324-10.366-11.414-11.05C144.389,117.258,139.775,121.386,139.775,121.386z"/>
				<path style="fill:#263238;stroke:#263238;stroke-linejoin:round;stroke-miterlimit:10;" d="M151.675,151.622
					c-7.758-0.541-12.963,2.868-15.13,4.659c0.58,2.451,1.531,5.053,3.108,6.877c3.886,4.493,9.957,5.343,16.15,3.521
					c3.853-1.133,5.56-5.347,6.467-9.765C159.874,154.367,156.397,151.951,151.675,151.622z"/>
				<path style="fill:none;stroke:#263238;stroke-linejoin:round;stroke-miterlimit:10;" d="M163.575,139.358
					c0,0,2.064-0.729,2.186,1.943c0.121,2.671-2.429,5.586-2.429,5.586L163.575,139.358z"/>
				<path style="fill:#263238;stroke:#263238;stroke-linejoin:round;stroke-miterlimit:10;" d="M152.525,118.351
					c-8.136-1.093-12.75,3.036-12.75,3.036s-4.25,3.157-4.736,7.893c-0.486,4.736-0.243,10.443-0.243,10.443
					s-0.017-0.021-0.042-0.049l0.406,0.899c0,0,1.821-2.064,2.793-3.157c0.971-1.093-0.364-3.886,0-6.314
					c0.364-2.429,3.521-5.707,5.707-5.95c2.186-0.243,2.064,1.943,5.586,2.793c3.521,0.85,8.379-0.729,9.593-2.186
					c1.214-1.457,3.521,1.093,3.4,6.072c-0.121,4.979-0.607,5.343-0.121,6.557c0.486,1.214,1.7,2.914,1.7,2.914
					s0.021-0.148,0.058-0.415c0.22-4.433,0.296-8.809,0.063-11.485C163.453,123.815,157.615,119.035,152.525,118.351z"/>
				<path style="fill:#263238;" d="M147.06,143.243c0,0.805-0.489,1.457-1.093,1.457c-0.604,0-1.093-0.652-1.093-1.457
					c0-0.805,0.489-1.457,1.093-1.457C146.571,141.786,147.06,142.439,147.06,143.243z"/>
				<path style="fill:#263238;" d="M158.717,143.243c0,0.805-0.489,1.457-1.093,1.457c-0.604,0-1.093-0.652-1.093-1.457
					c0-0.805,0.489-1.457,1.093-1.457C158.228,141.786,158.717,142.439,158.717,143.243z"/>
				<circle style="fill:none;stroke:#263238;stroke-linejoin:round;stroke-miterlimit:10;" cx="144.719" cy="143.52" r="5.066"/>
				<path style="fill:none;stroke:#263238;stroke-linejoin:round;stroke-miterlimit:10;" d="M163.506,143.52
					c0,2.798-2.268,5.066-5.066,5.066c-2.798,0-5.066-2.268-5.066-5.066c0-2.798,2.268-5.066,5.066-5.066
					C161.238,138.454,163.506,140.723,163.506,143.52z"/>
				<polyline style="fill:#FFFFFF;stroke:#263238;stroke-linejoin:round;stroke-miterlimit:10;" points="152.403,141.058 
					152.525,153.443 146.696,150.529 				"/>
				<path style="fill:none;stroke:#263238;stroke-linejoin:round;stroke-miterlimit:10;" d="M149.785,143.52c0,0,2.132-1.787,3.59,0
					"/>
				
					<line style="fill:none;stroke:#263238;stroke-linejoin:round;stroke-miterlimit:10;" x1="139.653" y1="143.52" x2="135.161" y2="140.572"/>
				<path style="fill:none;stroke:#FFFFFF;stroke-linejoin:round;stroke-miterlimit:10;" d="M145.36,154.051
					c0,0,1.822,3.036,6.8,2.186"/>
			</g>
		</g>
		<path style="fill:#FFFFFF;stroke:#263238;stroke-linejoin:round;stroke-miterlimit:10;" d="M137.106,209.778l14.032-6.662
			c0.469-0.223,1.031-0.068,1.32,0.365l0,0c0.363,0.544,0.143,1.285-0.458,1.542l-14.593,6.254L137.106,209.778z"/>
		<g>
			<path style="fill:#FFFFFF;stroke:#263238;stroke-linejoin:round;stroke-miterlimit:10;" d="M156.133,221.587
				c0,0-9.936-13.234-10.577-13.743c-0.641-0.509-10.257,0.509-10.257,0.509l-2.244,6.447l4.167,8.653l5.288-1.866
				c0,0,3.365,4.581,8.814,6.278c5.449,1.697,25.481,9.501,33.334,9.671c7.853,0.17,11.539-1.866,13.141-5.599
				c1.602-3.733,0.801-7.465-5.449-10.519c-6.25-3.054-19.231,0-25.641,0C160.3,221.418,156.133,221.587,156.133,221.587z"/>
			
				<line style="fill:none;stroke:#263238;stroke-linejoin:round;stroke-miterlimit:10;" x1="142.512" y1="221.587" x2="149.402" y2="220.569"/>
			<path style="fill:none;stroke:#263238;stroke-linejoin:round;stroke-miterlimit:10;" d="M136.422,221.078
				c0,0,6.891-4.751,7.532-4.751c0.641,0,4.327,0.17,4.327,0.17"/>
			<polyline style="fill:none;stroke:#263238;stroke-linejoin:round;stroke-miterlimit:10;" points="134.819,218.364 
				139.947,212.595 144.434,211.577 			"/>
			<polyline style="fill:none;stroke:#263238;stroke-linejoin:round;stroke-miterlimit:10;" points="133.377,215.988 
				137.383,210.05 142.832,208.863 			"/>
		</g>
		<polygon style="fill:#263238;stroke:#263238;stroke-linejoin:round;stroke-miterlimit:10;" points="99.008,205.278 
			116.265,238.83 148.206,240.376 130.494,206.051 		"/>
		<g>
			<path style="fill:#FFFFFF;stroke:#263238;stroke-linejoin:round;stroke-miterlimit:10;" d="M105.158,225.677
				c0,0,0.45,2.85,2.25,3c1.8,0.15,8.7-1.05,9.149-2.4c0.45-1.35-0.75-1.95-1.65-1.65
				C114.007,224.927,106.058,224.327,105.158,225.677z"/>
			<path style="fill:#FFFFFF;stroke:#263238;stroke-linejoin:round;stroke-miterlimit:10;" d="M107.408,228.677
				c0,0,0.3,1.65,1.5,2.7c1.2,1.05,7.2-0.3,9.15-1.2c1.95-0.9,1.8-2.1,1.2-2.4c-0.6-0.3-4.05,0-4.05,0
				S108.757,228.527,107.408,228.677z"/>
			<path style="fill:#FFFFFF;stroke:#263238;stroke-linejoin:round;stroke-miterlimit:10;" d="M110.257,231.827
				c0,0,0.6,2.1,1.95,2.7c1.35,0.6,5.1-1.05,6.9-1.95c1.8-0.9-1.05-2.4-1.05-2.4S111.607,232.277,110.257,231.827z"/>
			<path style="fill:#FFFFFF;stroke:#263238;stroke-linejoin:round;stroke-miterlimit:10;" d="M113.557,235.127
				c0,0-0.9,1.05,1.35,1.2c2.25,0.15,4.2-3.75,4.2-3.75L113.557,235.127z"/>
		</g>
	</g>
</g>
<g id="Character_2">
	<g>
		<g>
			<g>
				<g>
					<path style="fill:#FFFFFF;stroke:#263238;stroke-linejoin:round;stroke-miterlimit:10;" d="M300.598,135.455
						c0,0-0.162,7.931,0.647,9.711c0.809,1.78,3.561,3.885,3.075,6.312c-0.486,2.428-1.78,5.665-1.133,5.827
						c0.647,0.162,4.046-0.809,4.046-0.809s7.769,10.035,8.902,9.55c1.133-0.486,7.769-6.96,7.769-6.96l5.503,13.758l13.11-16.348
						l-10.197-11.977c0,0-2.428-5.665-5.179-9.064c-2.752-3.399-11.816-7.122-18.452-5.665S300.598,135.455,300.598,135.455z"/>
					<path style="fill:none;stroke:#263238;stroke-linejoin:round;stroke-miterlimit:10;" d="M311.605,157.306
						c0,0,2.428-1.619,3.237-4.532"/>
					<path style="fill:none;stroke:#263238;stroke-linejoin:round;stroke-miterlimit:10;" d="M304.483,145.814
						c0,0,0.486-2.752,3.561-2.752"/>
					<path style="fill:#263238;" d="M308.659,147.928c0.404,0.797,0.311,1.657-0.207,1.919c-0.518,0.263-1.266-0.171-1.67-0.968
						c-0.404-0.797-0.311-1.657,0.207-1.919C307.507,146.697,308.255,147.131,308.659,147.928z"/>
					<path style="fill:none;stroke:#263238;stroke-linejoin:round;stroke-miterlimit:10;" d="M326.981,145.49
						c0,0,0.324,1.133-0.486,2.104c-0.809,0.971-2.751,1.295-2.751,1.295l0.324,3.561"/>
				</g>
				<path style="fill:#263238;stroke:#263238;stroke-linejoin:round;stroke-miterlimit:10;" d="M321.817,116.642
					c0,0-3.131-3.507,1.566-7.014c4.697-3.507,14.678,4.208,14.678,4.208l-2.544,0.351c0,0,8.219,2.455,7.437,8.943
					s-7.241,3.858-11.938,1.403C326.318,122.078,321.817,116.642,321.817,116.642z"/>
				<path style="fill:#263238;stroke:#263238;stroke-linejoin:round;stroke-miterlimit:10;" d="M300.76,137.236
					c0,0-4.047-3.723-3.723-8.093c0.324-4.37,6.151-11.978,16.995-13.272c10.845-1.295,23.146,7.284,24.764,16.186
					c1.619,8.902-4.37,14.891-4.37,14.891l-7.445-1.457c0,0-0.162-6.151-2.428-8.093c-2.266-1.942-4.694,2.104-4.694,2.104
					s-5.665,0.809-8.255-0.809c-2.59-1.619,0.647-4.694-2.751-4.37C305.454,134.646,300.76,137.236,300.76,137.236z"/>
			</g>
			<g>
				<path style="fill:#FFFFFF;stroke:#263238;stroke-linejoin:round;stroke-miterlimit:10;" d="M338.442,317.01
					c0,0,4.488,16.158,5.984,19.748c1.496,3.591,28.043,71.278,28.043,71.278s-9.874,11.071-14.961,13.166
					c-5.087,2.095-7.48,3.291-6.284,4.787c1.197,1.496,10.173,1.795,17.055,1.795c6.882,0,9.276-2.992,17.055-5.087
					c0,0,4.189-1.795,5.386-2.992c1.197-1.197-8.079-16.756-8.079-16.756s-7.397-38.962-8.295-48.537
					c-0.898-9.575-5.087-19.748-6.583-22.741c-1.496-2.992-2.992-6.583-3.291-7.48c-0.299-0.898-6.284-46.977-6.284-46.977
					L338.442,317.01z"/>
				<path style="fill:#FFFFFF;stroke:#263238;stroke-linejoin:round;stroke-miterlimit:10;" d="M390.722,419.706
					c0.652-0.652-1.807-5.571-4.179-9.912c-4.917,4.56-13.475,5.125-13.475,5.125s0-2.394-0.898-3.591
					c-0.398-0.531-0.969-0.996-1.485-1.357c-3.08,3.269-9.427,9.687-13.176,11.231c-5.087,2.095-7.48,3.291-6.284,4.787
					c1.197,1.496,10.173,1.795,17.055,1.795c6.882,0,9.276-2.992,17.055-5.087C385.336,422.698,389.525,420.903,390.722,419.706z"/>
				<path style="fill:#263238;stroke:#263238;stroke-linejoin:round;stroke-miterlimit:10;" d="M338.442,317.01
					c0,0,4.488,16.158,5.984,19.748c0.995,2.389,12.532,35.852,20.8,54.737c3.275-0.913,9.831-2.714,14.312-5.266
					c-0.841-10.507-4.718-26.777-5.191-31.818c-0.898-9.575-5.087-19.748-6.583-22.741c-1.496-2.992-2.992-6.583-3.292-7.48
					c-0.299-0.898-6.284-46.977-6.284-46.977L338.442,317.01z"/>
			</g>
			<g>
				<path style="fill:#FFFFFF;stroke:#263238;stroke-linejoin:round;stroke-miterlimit:10;" d="M326.431,267.447
					c0,0-10.431,57.343-10.431,66.918c0,9.575-4.787,73.608-4.787,73.608s-9.874,5.386-14.362,7.181
					c-4.488,1.795-11.67,2.693-11.67,4.488c0,1.795,13.166,4.787,17.355,5.087c4.189,0.299,17.055,2.693,18.551,2.394
					c1.496-0.299,2.992-0.598,2.992-7.181s0.598-10.772,0.598-10.772s1.496-9.874,12.268-48.772
					c4.913-17.741,1.795-28.725,1.795-30.819c0-2.095,19.748-48.174,20.945-51.166c1.197-2.992,4.787-9.276,3.291-17.055
					c-1.496-7.78-3.89-7.78-3.89-7.78h-31.119L326.431,267.447z"/>
				<path style="fill:#263238;stroke:#263238;stroke-linejoin:round;stroke-miterlimit:10;" d="M336.946,360.397
					c4.913-17.741,1.795-28.725,1.795-30.819c0-2.095,19.748-48.174,20.945-51.166c1.197-2.992,4.788-9.276,3.292-17.055
					c-1.496-7.78-3.89-7.78-3.89-7.78h-31.119l-1.538,13.87c0,0-10.431,57.343-10.431,66.918c0,6.115-1.952,34.437-3.363,54.11
					l16.094,2.84C330.561,383.997,333.188,373.968,336.946,360.397z"/>
				<path style="fill:none;stroke:#263238;stroke-linejoin:round;stroke-miterlimit:10;" d="M285.181,419.642
					c0,1.795,13.166,4.787,17.355,5.087c4.189,0.299,17.055,2.693,18.551,2.394c1.496-0.299,2.992-0.599,2.992-7.181
					c0-1.672,0.039-3.187,0.096-4.52c-4.63,0.649-11.467-0.567-11.467-0.567s0.599-2.394,0.599-5.087
					c0-2.693-2.095-1.795-2.095-1.795s-9.874,5.386-14.362,7.181C292.362,416.949,285.181,417.847,285.181,419.642z"/>
			</g>
			<g>
				<path style="fill:#263238;stroke:#263238;stroke-linejoin:round;stroke-miterlimit:10;" d="M321.325,249.575l-13.903,20.541
					c0,0-7.592-0.362-9.347,0.077c-1.755,0.439-7.725,9.011-7.725,9.011s0.189-0.341,1.03,1.685c0.598,1.442,9.079,1.03,9.079,1.03
					c1.573-1.069-0.468-2.655,0.842-3.463c2.59-1.597,5.335-1.404,5.335-1.404l19.514-13.877L321.325,249.575z"/>
				<path style="fill:#C9C9C9;stroke:#263238;stroke-linejoin:round;stroke-miterlimit:10;" d="M341.865,154.182
					c0,0-23.412,30.841-25.213,35.343c-1.801,4.502,2.026,60.331,1.801,63.032s0.45,19.135,0.45,19.135h25.888
					c0,0,0.675-5.178,0.9-5.853c0.225-0.675,2.251,5.403,2.251,5.403s1.801,1.126,4.953,0.45c3.152-0.675,15.308-1.351,15.308-1.351
					l-8.104-47.724c0,0,0.9-39.845-3.602-51.551C351.995,159.36,341.865,154.182,341.865,154.182z"/>
				
					<line style="fill:none;stroke:#263238;stroke-linejoin:round;stroke-miterlimit:10;" x1="321.498" y1="234.269" x2="321.574" y2="238.984"/>
				
					<line style="fill:none;stroke:#263238;stroke-linejoin:round;stroke-miterlimit:10;" x1="321.112" y1="210.296" x2="321.454" y2="231.544"/>
				
					<line style="fill:none;stroke:#263238;stroke-linejoin:round;stroke-miterlimit:10;" x1="325.508" y1="212.147" x2="327.127" y2="226.26"/>
			</g>
		</g>
		<g>
			
				<rect x="62.482" y="427.785" style="fill:#263238;stroke:#263238;stroke-linejoin:round;stroke-miterlimit:10;" width="381.997" height="11.25"/>
			
				<rect x="107.423" y="277.183" style="fill:#FFFFFF;stroke:#263238;stroke-linejoin:round;stroke-miterlimit:10;" width="6.128" height="161.686"/>
			
				<rect x="253.14" y="277.183" style="fill:#FFFFFF;stroke:#263238;stroke-linejoin:round;stroke-miterlimit:10;" width="6.128" height="161.686"/>
			
				<rect x="398.857" y="277.183" style="fill:#FFFFFF;stroke:#263238;stroke-linejoin:round;stroke-miterlimit:10;" width="6.128" height="161.686"/>
			
				<rect x="66.567" y="273.76" style="fill:#FFFFFF;stroke:#263238;stroke-linejoin:round;stroke-miterlimit:10;" width="381.997" height="5.134"/>
		</g>
		<g>
			<g>
				<path style="fill:#FFFFFF;stroke:#263238;stroke-linejoin:round;stroke-miterlimit:10;" d="M336.912,210.461l0.219,11.439
					c0,0-17.328,42.813-18.903,43.939c-1.576,1.125-8.78,3.602-10.806,4.277c-2.026,0.675-3.547,10.489-3.547,11.067
					s2.169,3.904,2.314,4.338c0.145,0.434,2.169,0.145,2.169,0.145s0.867,0.867,2.458,0.289c0,0,1.157,0.578,2.169,0
					c1.012-0.578,1.012-0.578,1.012-0.578s1.735,0.578,2.169-0.434c0.434-1.012,1.301-6.073,1.301-6.073s5.205-2.747,6.651-5.205
					c1.446-2.458,2.313-6.217,2.313-6.217s27.039-42.655,27.183-44.679c0.145-2.024,0.723-10.989,0.723-10.989L336.912,210.461z"/>
				<polyline style="fill:none;stroke:#263238;stroke-linejoin:round;stroke-miterlimit:10;" points="308.357,285.665 
					306.767,280.171 308.357,274.098 				"/>
				<polyline style="fill:none;stroke:#263238;stroke-linejoin:round;stroke-miterlimit:10;" points="310.815,285.954 
					309.948,280.315 311.249,275.11 				"/>
				<polyline style="fill:none;stroke:#263238;stroke-linejoin:round;stroke-miterlimit:10;" points="313.996,285.376 
					313.129,280.026 314.43,275.544 				"/>
			</g>
			<polyline style="fill:#C9C9C9;stroke:#263238;stroke-linejoin:round;stroke-miterlimit:10;" points="334.886,182.096 
				334.661,212.937 356.722,213.612 351.77,177.819 			"/>
		</g>
	</g>
</g>
<g id="Floor">
	
		<line style="fill:none;stroke:#263238;stroke-linejoin:round;stroke-miterlimit:10;" x1="13.217" y1="439.035" x2="490.639" y2="439.035"/>
</g>
</svg>
