<?xml version="1.0" encoding="utf-8"?>
<!-- Generator: Adobe Illustrator 27.5.0, SVG Export Plug-In . SVG Version: 6.00 Build 0)  -->
<svg version="1.1" xmlns="http://www.w3.org/2000/svg" xmlns:xlink="http://www.w3.org/1999/xlink" x="0px" y="0px"
	 viewBox="0 0 500 500" style="enable-background:new 0 0 500 500;" xml:space="preserve">
<g id="Background_Simple">
	<g>
		<path style="fill:#E8AA14;" d="M433.768,113.032c-1.537-2.558-3.135-5.069-4.803-7.523c-22.227-32.659-59.23-55.019-95.192-65.145
			c-15.754-4.443-31.929-6.767-48.077-7.361c-105.91-3.848-144.818,83.477-178.942,105.992
			c-34.123,22.516-86.487,60.973-79.916,141.761c4.986,61.425,39.929,120.158,103.748,146.885
			c7.029,2.953,14.415,5.516,22.148,7.642c14.385,3.957,29.977,6.442,46.775,7.189c48.25,2.15,87.428-9.481,125.75-38.77
			c8.908-6.808,17.768-14.487,29.328-15.329c8.403-0.612,16.369,2.407,7.586,10.527c-10.323,9.545,1.588,28.317,27.793,15.275
			c43.766-21.783,61.77-68.78,70.252-116.568C470.629,238.951,465.582,166.003,433.768,113.032z"/>
		<path style="opacity:0.7;fill:#FFFFFF;" d="M433.768,113.032c-1.537-2.558-3.135-5.069-4.803-7.523
			c-22.227-32.659-59.23-55.019-95.192-65.145c-15.754-4.443-31.929-6.767-48.077-7.361
			c-105.91-3.848-144.818,83.477-178.942,105.992c-34.123,22.516-86.487,60.973-79.916,141.761
			c4.986,61.425,39.929,120.158,103.748,146.885c7.029,2.953,14.415,5.516,22.148,7.642c14.385,3.957,29.977,6.442,46.775,7.189
			c48.25,2.15,87.428-9.481,125.75-38.77c8.908-6.808,17.768-14.487,29.328-15.329c8.403-0.612,16.369,2.407,7.586,10.527
			c-10.323,9.545,1.588,28.317,27.793,15.275c43.766-21.783,61.77-68.78,70.252-116.568
			C470.629,238.951,465.582,166.003,433.768,113.032z"/>
	</g>
</g>
<g id="Doors">
	<g style="opacity:0.3;">
		<g>
			
				<rect x="33.125" y="31.3" style="fill:none;stroke:#000000;stroke-linecap:round;stroke-linejoin:round;stroke-miterlimit:10;" width="146.382" height="431.124"/>
			<g>
				
					<rect x="109.683" y="220.957" style="fill:none;stroke:#000000;stroke-linecap:round;stroke-linejoin:round;stroke-miterlimit:10;" width="51.253" height="49.232"/>
				
					<rect x="109.683" y="109.832" style="fill:none;stroke:#000000;stroke-linecap:round;stroke-linejoin:round;stroke-miterlimit:10;" width="51.253" height="49.233"/>
				
					<rect x="109.683" y="276.52" style="fill:none;stroke:#000000;stroke-linecap:round;stroke-linejoin:round;stroke-miterlimit:10;" width="51.253" height="49.232"/>
				
					<rect x="109.683" y="53.746" style="fill:none;stroke:#000000;stroke-linecap:round;stroke-linejoin:round;stroke-miterlimit:10;" width="51.253" height="49.756"/>
				
					<rect x="51.696" y="53.746" style="fill:none;stroke:#000000;stroke-linecap:round;stroke-linejoin:round;stroke-miterlimit:10;" width="51.253" height="49.756"/>
				
					<rect x="109.683" y="165.395" style="fill:none;stroke:#000000;stroke-linecap:round;stroke-linejoin:round;stroke-miterlimit:10;" width="51.253" height="49.232"/>
				
					<rect x="51.696" y="165.395" style="fill:none;stroke:#000000;stroke-linecap:round;stroke-linejoin:round;stroke-miterlimit:10;" width="51.253" height="49.232"/>
				
					<rect x="109.683" y="332.082" style="fill:none;stroke:#000000;stroke-linecap:round;stroke-linejoin:round;stroke-miterlimit:10;" width="51.253" height="41.9"/>
				
					<rect x="51.696" y="276.52" style="fill:none;stroke:#000000;stroke-linecap:round;stroke-linejoin:round;stroke-miterlimit:10;" width="51.253" height="49.232"/>
				
					<rect x="51.696" y="332.082" style="fill:none;stroke:#000000;stroke-linecap:round;stroke-linejoin:round;stroke-miterlimit:10;" width="51.253" height="41.9"/>
				
					<rect x="51.696" y="220.957" style="fill:none;stroke:#000000;stroke-linecap:round;stroke-linejoin:round;stroke-miterlimit:10;" width="51.253" height="49.232"/>
				
					<rect x="51.696" y="109.832" style="fill:none;stroke:#000000;stroke-linecap:round;stroke-linejoin:round;stroke-miterlimit:10;" width="51.253" height="49.233"/>
			</g>
			
				<line style="fill:none;stroke:#000000;stroke-linecap:round;stroke-linejoin:round;stroke-miterlimit:10;" x1="40.892" y1="32.048" x2="40.892" y2="462.092"/>
		</g>
		<g>
			
				<rect x="179.507" y="31.3" style="fill:none;stroke:#000000;stroke-linecap:round;stroke-linejoin:round;stroke-miterlimit:10;" width="146.382" height="431.124"/>
			<g>
				
					<rect x="198.078" y="220.957" style="fill:none;stroke:#000000;stroke-linecap:round;stroke-linejoin:round;stroke-miterlimit:10;" width="51.253" height="49.232"/>
				
					<rect x="198.078" y="109.832" style="fill:none;stroke:#000000;stroke-linecap:round;stroke-linejoin:round;stroke-miterlimit:10;" width="51.253" height="49.233"/>
				
					<rect x="198.078" y="276.52" style="fill:none;stroke:#000000;stroke-linecap:round;stroke-linejoin:round;stroke-miterlimit:10;" width="51.253" height="49.232"/>
				
					<rect x="198.078" y="53.746" style="fill:none;stroke:#000000;stroke-linecap:round;stroke-linejoin:round;stroke-miterlimit:10;" width="51.253" height="49.756"/>
				
					<rect x="256.065" y="53.746" style="fill:none;stroke:#000000;stroke-linecap:round;stroke-linejoin:round;stroke-miterlimit:10;" width="51.253" height="49.756"/>
				
					<rect x="198.078" y="165.395" style="fill:none;stroke:#000000;stroke-linecap:round;stroke-linejoin:round;stroke-miterlimit:10;" width="51.253" height="49.232"/>
				
					<rect x="256.065" y="165.395" style="fill:none;stroke:#000000;stroke-linecap:round;stroke-linejoin:round;stroke-miterlimit:10;" width="51.253" height="49.232"/>
				
					<rect x="198.078" y="332.082" style="fill:none;stroke:#000000;stroke-linecap:round;stroke-linejoin:round;stroke-miterlimit:10;" width="51.253" height="41.9"/>
				
					<rect x="256.065" y="276.52" style="fill:none;stroke:#000000;stroke-linecap:round;stroke-linejoin:round;stroke-miterlimit:10;" width="51.253" height="49.232"/>
				
					<rect x="256.065" y="332.082" style="fill:none;stroke:#000000;stroke-linecap:round;stroke-linejoin:round;stroke-miterlimit:10;" width="51.253" height="41.9"/>
				
					<rect x="256.065" y="220.957" style="fill:none;stroke:#000000;stroke-linecap:round;stroke-linejoin:round;stroke-miterlimit:10;" width="51.253" height="49.232"/>
				
					<rect x="256.065" y="109.832" style="fill:none;stroke:#000000;stroke-linecap:round;stroke-linejoin:round;stroke-miterlimit:10;" width="51.253" height="49.233"/>
			</g>
			
				<line style="fill:none;stroke:#000000;stroke-linecap:round;stroke-linejoin:round;stroke-miterlimit:10;" x1="318.122" y1="32.048" x2="318.122" y2="462.092"/>
		</g>
	</g>
</g>
<g id="Plant">
	<g>
		<polygon style="fill:#263238;stroke:#263238;stroke-miterlimit:10;" points="431.256,419.948 392.022,419.948 395.946,461.874 
			427.333,461.874 		"/>
		<g>
			<path style="fill:none;stroke:#263238;stroke-linecap:round;stroke-linejoin:round;stroke-miterlimit:10;" d="M412.36,427.067
				c0,0,16.697-63.214,36.829-108.665"/>
			<path style="fill:#E8AA14;" d="M444.509,328.77c0,0-2.221-17.178,3.086-24.736c5.307-7.557,11.464-10.374,11.464-10.374
				s1.312,19.372-0.907,25.654C455.932,325.597,444.509,328.77,444.509,328.77z"/>
			<path style="fill:#E8AA14;" d="M444.181,329.888c0,0-4.357-1.838-5.811-11.603c-1.455-9.765,2.015-24.93,2.015-24.93
				s4.495,11.692,5.806,19.335C447.501,320.332,444.181,329.888,444.181,329.888z"/>
			<path style="fill:#E8AA14;" d="M444.181,329.888c0,0,6.408-10.831,14.444-13.242c8.036-2.41,20.938-3.284,20.938-3.284
				s-4.409,9.096-15.27,12.764C453.432,329.795,444.181,329.888,444.181,329.888z"/>
			<path style="fill:#E8AA14;" d="M434.722,354.255c0,0,1.999-1.735-2.263-9.977c-4.261-8.242-9.515-11.619-9.515-11.619
				s-2.596,12.439,1.222,18.046c3.818,5.606,6.966,9.126,6.966,9.126s-11.645-4.01-13.524-4.416
				c-1.879-0.406-9.886-1.463-9.886-1.463s-0.819,3.521,6.858,7.533c7.678,4.012,16.139,3.972,16.139,3.972s1.388,0.972,4.446,3.164
				c3.058,2.192,11.771,5.868,11.771,5.868s0.766-4.317-2.274-6.244c-3.04-1.927-5.499-3.093-5.499-3.093s7.671,0.014,9.197-0.889
				c1.526-0.903,9.101-6.215,9.101-6.215s-7.653,0.252-9.496,0.377c-1.843,0.125-8.072,1.88-8.072,1.88s10.107-3.084,12.38-8.57
				c2.273-5.486,2.405-11.36,2.405-11.36S441.746,344.715,434.722,354.255z"/>
			<path style="fill:#E8AA14;" d="M426.37,379.348c0,0,11.196-2.624,16.097-0.557c4.901,2.067,11.131,12.043,11.131,12.043
				s-8.772,3.26-15.851,0.274C430.667,388.121,426.37,379.348,426.37,379.348z"/>
			<path style="fill:#E8AA14;" d="M426.37,379.348c0,0-4.907-6.066-11.561-6.682c-6.654-0.616-11.567,1.05-11.567,1.05
				s-0.185,5.078,8.456,7.692C420.339,384.021,426.37,379.348,426.37,379.348z"/>
			<path style="fill:#E8AA14;" d="M422.966,391.575c0,0,5.583,0.422,8.695,3.41c3.112,2.988,8.104,18.113,8.104,18.113
				s-10.011-3.321-16.163-8.236C417.45,399.946,422.966,391.575,422.966,391.575z"/>
			<path style="fill:#E8AA14;" d="M422.966,391.575c0,0-6.96-5.127-11.872-3.461c-4.913,1.666-7.186,7.151-7.162,11.415
				c0.024,4.264-0.023,7.466-0.023,7.466s8.281-2.694,10.543-4.446C416.714,400.796,422.966,391.575,422.966,391.575z"/>
		</g>
		<g>
			<path style="fill:none;stroke:#263238;stroke-miterlimit:10;" d="M406.639,433.026c0,0-8.462-74.621-23.848-109.238"/>
			<path style="fill:#E8AA14;" d="M381.459,320.487c0,0-2.905-3.486,0.581-12.2c3.486-8.714,6.971-13.652,6.971-13.652
				s4.938,9.586,5.228,15.395c0.29,5.81-6.1,12.781-6.1,12.781s2.324-2.324,6.681-3.195c4.357-0.871,10.457-0.29,10.457-0.29
				s-2.614,4.648-5.519,6.1c-2.905,1.452-11.038,3.195-12.2,2.905c-1.162-0.29-0.581,0.581-6.1,5.81
				c-5.519,5.228-9.005,7.843-9.005,7.843s-2.033-9.295-0.29-13.943C373.907,323.391,381.459,320.487,381.459,320.487z"/>
			<path style="fill:#E8AA14;" d="M384.654,320.777c0,0-2.614-3.776-4.938-5.809c-2.324-2.033-6.681-2.614-8.424-2.905
				c-1.743-0.29-2.033,5.809,1.162,9.876c3.195,4.067,15.105,6.39,15.105,6.39L384.654,320.777z"/>
			<path style="fill:#E8AA14;" d="M388.721,339.948c0,0-2.324-2.614,4.067-6.971c6.39-4.357,12.2-4.648,12.2-4.648
				s-1.743,11.038-4.648,14.233c-2.905,3.195-7.843,2.614-7.843,2.614s6.971,0.29,9.876,1.743
				c2.905,1.452,9.586,10.747,9.586,10.747s0,0.29-6.39,0.29c-6.39,0-11.619-5.228-11.619-5.228s1.162,3.486,1.452,6.1
				c0.29,2.614-5.228,9.005-5.81,9.876c-0.581,0.871-5.519-6.39-6.1-9.586c-0.581-3.195,0-5.519,0-5.519s-2.033,0.871-4.648,4.067
				c-2.614,3.195-4.357,8.133-4.357,8.133s-5.809-9.295-4.357-15.105c1.452-5.809,14.233-5.519,14.233-5.519s-6.1-0.871-9.005-2.033
				c-2.905-1.162-5.519-3.776-5.519-5.229c0-1.452,1.452-2.033,7.552-1.452C383.492,337.043,388.721,339.948,388.721,339.948z"/>
			<path style="fill:#E8AA14;" d="M397.145,372.191c0,0-8.424-5.229-12.781-4.648c-4.357,0.581-8.133,2.033-9.586,2.033
				s2.905,9.005,8.133,9.295c5.229,0.29,14.524-2.033,14.524-2.033s-5.228,3.195-7.262,6.681
				c-2.033,3.486-2.905,10.167-2.905,10.167s7.552,0.29,10.747-2.614c3.195-2.905,2.033-13.652,2.033-13.652
				s1.743-1.452,4.357-1.743c2.614-0.29,7.489,2.36,7.489,2.36s6.163-8.46-4.004-13.108
				C397.726,360.281,397.145,372.191,397.145,372.191z"/>
			<path style="fill:#E8AA14;" d="M401.792,400.657c0,0-5.81-3.195-9.295-0.29c-3.486,2.905-8.133,12.781-8.133,12.781
				s6.971,1.162,11.619-1.452C400.63,409.081,401.792,400.657,401.792,400.657z"/>
			<path style="fill:#E8AA14;" d="M401.792,400.657c0,0,1.162-4.938,6.971-6.39c5.81-1.452,14.233,3.776,14.233,3.776
				s-2.614,2.614-9.295,4.647C407.021,404.724,401.792,400.657,401.792,400.657z"/>
		</g>
		<g>
			
				<rect x="377.624" y="418.648" style="fill:#FFFFFF;stroke:#263238;stroke-linecap:round;stroke-linejoin:round;stroke-miterlimit:10;" width="6.159" height="42.528"/>
			
				<rect x="436.87" y="418.648" style="fill:#FFFFFF;stroke:#263238;stroke-linecap:round;stroke-linejoin:round;stroke-miterlimit:10;" width="6.159" height="42.528"/>
			
				<rect x="376.012" y="417.666" style="fill:#FFFFFF;stroke:#263238;stroke-linecap:round;stroke-linejoin:round;stroke-miterlimit:10;" width="69.675" height="8.767"/>
			
				<rect x="376.012" y="429.663" style="fill:#FFFFFF;stroke:#263238;stroke-linecap:round;stroke-linejoin:round;stroke-miterlimit:10;" width="69.675" height="8.767"/>
			
				<rect x="376.012" y="441.66" style="fill:#FFFFFF;stroke:#263238;stroke-linecap:round;stroke-linejoin:round;stroke-miterlimit:10;" width="69.675" height="8.767"/>
			
				<rect x="376.012" y="453.657" style="fill:#FFFFFF;stroke:#263238;stroke-linecap:round;stroke-linejoin:round;stroke-miterlimit:10;" width="69.675" height="8.767"/>
		</g>
	</g>
</g>
<g id="Picture">
	<g style="opacity:0.3;">
		
			<rect x="354.478" y="31.169" style="fill:none;stroke:#000000;stroke-linecap:round;stroke-linejoin:round;stroke-miterlimit:10;" width="119.402" height="158.951"/>
		
			<rect x="358.373" y="36.353" style="fill:none;stroke:#000000;stroke-linecap:round;stroke-linejoin:round;stroke-miterlimit:10;" width="111.613" height="148.582"/>
		<path style="fill:none;stroke:#000000;stroke-linecap:round;stroke-linejoin:round;stroke-miterlimit:10;" d="M358.371,145.465
			c12.507-6.479,39.559-23.754,46.951-54.88c5.839-24.594,14.303-42.551,27.219-54.229"/>
		<path style="fill:none;stroke:#000000;stroke-linecap:round;stroke-linejoin:round;stroke-miterlimit:10;" d="M412.674,184.94
			c-7.708-25.025-17.39-73.562,9.63-105.79c17.054-20.341,34.108-32.06,47.686-38.802"/>
		<path style="fill:none;stroke:#000000;stroke-linecap:round;stroke-linejoin:round;stroke-miterlimit:10;" d="M365.785,36.357
			c5.188,6.469,10.806,17.674,9.031,34.822c-1.901,18.367-10.228,28.753-16.445,34.077"/>
		<path style="fill:none;stroke:#000000;stroke-linecap:round;stroke-linejoin:round;stroke-miterlimit:10;" d="M456.485,184.94
			c-8.727-13.295-22.42-11.289-31.756-23.649c-11.783-15.594-0.347-38.813,26.684-49.566c8.454-3.36,14.397-8.212,18.577-13.295"/>
		<path style="fill:none;stroke:#000000;stroke-linecap:round;stroke-linejoin:round;stroke-miterlimit:10;" d="M358.371,175.426
			c8.191-12.497,18.461-24.3,24.762-17.254c5.251,5.87,6.511,16.645,6.29,26.768"/>
		<path style="fill:none;stroke:#000000;stroke-linecap:round;stroke-linejoin:round;stroke-miterlimit:10;" d="M386.641,36.357
			c0.283,14.471,2.027,41.323,11.047,29.971c6.29-7.897,11.268-20.068,14.607-29.971"/>
		<path style="fill:none;stroke:#000000;stroke-linecap:round;stroke-linejoin:round;stroke-miterlimit:10;" d="M469.99,57.391
			c-14.67,12.654-40.167,36.167-23.082,32.848c9.105-1.775,16.928-7.372,23.082-13.536"/>
	</g>
</g>
<g id="Character_2">
	<g>
		<path style="fill:#263238;stroke:#263238;stroke-miterlimit:10;" d="M237.811,96.556c0,0-2.146-8.748-16.01-9.243
			c-13.865-0.495-14.016,4.933-17.677,6.656c-1.868,0.879-5.788,6.047-5.384,8.83l8.041-3.767c0,0-18.334,11.099-18.829,29.42
			c-0.495,18.321,6.945,33.465,21.8,33.465c14.855,0,21.457-4.457,21.292-15.185c-0.165-10.729-2.311-29.215,0.99-39.778
			C235.335,96.391,237.811,96.556,237.811,96.556z"/>
		<g>
			<path style="fill:#FFFFFF;stroke:#263238;stroke-miterlimit:10;" d="M281.783,218.913l5.432,10.656
				c0,0,8.149,7.313,10.238,12.328c2.09,5.015,10.184,18.669,13.164,19.641c0.987,0.322,5.224,1.045,6.686,1.463
				c1.463,0.418,2.925,1.881,3.97,2.089s2.925,0.627,4.179,0c1.254-0.627,2.507,0.418,2.089,1.672
				c-0.418,1.254-4.806,2.089-4.806,2.089l-6.268-1.254c0,0,5.224,3.552,4.388,5.433c-0.836,1.881-12.746,3.761-13.79,3.761
				c-1.045,0-2.445-1.457-5.788-3.964c-3.343-2.507-4.204-7.768-4.204-7.768s-18.842-16.893-21.976-21.072
				c-3.134-4.179-6.895-13.79-6.895-14.417c0-0.627-1.672-5.224-1.672-5.224L281.783,218.913z"/>
			<path style="fill:none;stroke:#263238;stroke-miterlimit:10;" d="M316.205,270.484c0,0,0.641,3.528,1.443,4.17
				c0.802,0.642,3.047-0.523,3.207-1.625c0.16-1.102-1.604-3.507-2.726-4.149C317.007,268.239,315.724,268.72,316.205,270.484z"/>
			<path style="fill:#FFFFFF;stroke:#263238;stroke-miterlimit:10;" d="M316.205,270.484c0,0-1.859-0.491-2.59,0.331
				c-0.731,0.823,0.731,5.392,1.28,5.758c0.548,0.366,2.742-0.183,2.924-0.64C318.002,275.477,317.698,272.712,316.205,270.484z"/>
			<path style="fill:#FFFFFF;stroke:#263238;stroke-miterlimit:10;" d="M312.976,272.643c0,0-1.736-2.468-2.376-0.64
				c-0.64,1.828-0.274,4.844,0.091,5.392c0.366,0.548,2.102,0.731,2.376-0.274S313.067,273.923,312.976,272.643z"/>
			<path style="fill:#FFFFFF;stroke:#263238;stroke-miterlimit:10;" d="M310.051,273.466c0,0-1.279-2.193-2.285-0.64
				c-1.005,1.554-0.731,4.295-0.274,4.935c0.457,0.64,1.737,0.457,2.102-0.457C309.96,276.391,310.051,273.466,310.051,273.466z"/>
		</g>
		<path style="fill:#FFFFFF;stroke:#263238;stroke-miterlimit:10;" d="M175.2,214.996l-1.204,12.84c0,0-2.407,5.216-3.411,11.034
			c-1.003,5.818-1.003,35.71-1.003,41.728c0,6.019-0.401,14.645,0.201,18.056c0.602,3.41,2.809,7.423,3.41,8.426
			c0.602,1.003,4.012,1.806,5.216,1.605c1.204-0.201,4.213-2.809,4.213-2.809s-0.201-1.404-1.605-1.404
			c-1.404,0-2.407-0.602-2.809-1.204c-0.401-0.602,1.003-5.818,1.003-5.818s1.003,4.614,1.805,4.012
			c0.803-0.602,1.806,0.201,1.806-2.207s-0.401-5.015-0.401-5.015s0.602-2.608,0-6.219c-0.602-3.611-3.41-6.62-3.41-8.827
			c0-2.207,7.824-24.475,10.231-33.302c2.407-8.827,2.809-16.651,2.809-16.651l1.605-10.232L175.2,214.996z"/>
		<path style="fill:#E8AA14;stroke:#263238;stroke-miterlimit:10;" d="M225.462,131.047c0,0,2.143,10.713-0.476,16.427
			c-2.619,5.714-14.999,12.261-17.379,13.808c-2.381,1.547-17.855,4.761-24.045,14.88c-6.19,10.118-9.824,39.216-9.824,40.901
			l22.874,5.594c0,0-0.368,11.768-0.368,15.813s-6.619,17.284-9.561,41.186c-2.942,23.903,9.561,80.902,9.561,80.902
			s-1.103,16.548-1.839,27.212c-0.736,10.664,1.839,54.057,1.839,54.057s-1.839,7.355-4.045,9.193
			c-2.206,1.839-9.561,6.251-9.929,8.09c-0.368,1.839,1.103,2.206,2.942,2.942c1.839,0.736,27.58,0,27.58,0s2.942-1.839,2.574-8.458
			c-0.368-6.619-0.368-9.929-0.368-9.929s1.471-5.884,2.206-8.826c0.736-2.942,0.368-8.09,0.736-12.503
			c0.368-4.413,5.148-62.883,5.148-68.031c0-5.148,6.987-64.354,6.987-64.354l4.413,63.251c0,0,2.574,83.985,3.677,86.559
			c1.103,2.574,2.574,4.413,2.574,4.413l-0.735,3.677l0.735,6.251c0,0-1.839,8.09,0,8.09s22.432,0,22.432,0s3.677-3.31,2.206-6.619
			c-1.471-3.31-3.31-6.619-3.31-6.619l-2.574-7.355c0,0,2.206-4.413,2.206-6.619s0-5.516,0-10.664
			c0-5.148,4.413-78.837,4.413-78.837s4.045-33.464,5.148-57.367c1.103-23.903-4.781-40.451-6.987-45.599
			c-2.206-5.148-2.942-10.297-2.942-10.297l0.736-11.4l3.31,5.516l24.638-8.09l-13.606-37.877c0,0-7.722-11.032-11.767-14.342
			c-4.045-3.31-14.312-5.663-17.651-7.947c-2.593-1.774-4.217-13.881-4.217-13.881L225.462,131.047z"/>
		<path style="fill:#E8AA14;stroke:#263238;stroke-miterlimit:10;" d="M265.379,226.333l24.638-8.09l-13.606-37.877
			c0,0-7.722-11.032-11.767-14.342c-4.045-3.31-14.312-5.663-17.651-7.947c-2.593-1.774-4.217-13.881-4.217-13.881l-17.313-13.15
			c0,0,2.143,10.713-0.476,16.427c-2.619,5.714-14.999,12.261-17.379,13.808c-2.381,1.548-17.855,4.761-24.045,14.88
			c-6.19,10.118-9.824,39.216-9.824,40.901l22.874,5.594c0,0-0.368,11.768-0.368,15.813c0,3.289-4.375,12.654-7.592,28.886
			c9.541,2.997,25.906,7.073,42.934,6.465c17.203-0.614,31.341-2.822,39.158-4.298c-1.442-13.834-4.893-23.33-6.469-27.007
			c-2.206-5.148-2.942-10.297-2.942-10.297l0.735-11.4L265.379,226.333z"/>
		<line style="fill:none;stroke:#263238;stroke-miterlimit:10;" x1="249.774" y1="224.632" x2="232.546" y2="235.759"/>
		<line style="fill:none;stroke:#263238;stroke-miterlimit:10;" x1="256.304" y1="220.415" x2="252.763" y2="222.702"/>
		<line style="fill:none;stroke:#263238;stroke-miterlimit:10;" x1="250.859" y1="228.83" x2="241.455" y2="234.274"/>
		<path style="fill:none;stroke:#263238;stroke-miterlimit:10;" d="M235.515,170.424c0,0,2.97,9.899,2.97,20.788"/>
		<path style="fill:none;stroke:#263238;stroke-miterlimit:10;" d="M239.562,171.436c0,0.559-0.453,1.012-1.012,1.012
			c-0.559,0-1.012-0.453-1.012-1.012c0-0.559,0.453-1.012,1.012-1.012C239.109,170.424,239.562,170.877,239.562,171.436z"/>
		<path style="fill:none;stroke:#263238;stroke-miterlimit:10;" d="M241.278,179.164c0,0.559-0.453,1.012-1.012,1.012
			c-0.559,0-1.012-0.453-1.012-1.012c0-0.559,0.453-1.012,1.012-1.012C240.825,178.152,241.278,178.605,241.278,179.164z"/>
		<circle style="fill:none;stroke:#263238;stroke-miterlimit:10;" cx="241.982" cy="186.892" r="1.012"/>
		<path style="fill:#FFFFFF;stroke:#263238;stroke-miterlimit:10;" d="M227.747,166.165c8.474,4.548,17.565,0.477,23.098-6.248
			c-1.603-0.628-2.972-1.236-3.853-1.839c-2.593-1.774-4.217-13.881-4.217-13.881l-17.313-13.15c0,0,2.143,10.713-0.476,16.427
			c-1.179,2.572-4.337,5.312-7.67,7.69C218.629,158.321,221.502,162.813,227.747,166.165z"/>
		<path style="fill:#263238;stroke:#263238;stroke-miterlimit:10;" d="M234.591,149.136c0,0,4.291,4.827,6.078,6.972
			c1.788,2.145,4.648,3.575,4.648,3.575l0.715-6.793L234.591,149.136z"/>
		<path style="fill:none;stroke:#263238;stroke-miterlimit:10;" d="M264.873,187.134c0.467-1.797,0.921-3.403,0.921-3.403"/>
		<path style="fill:none;stroke:#263238;stroke-miterlimit:10;" d="M262.069,220.818c0,0,3.724-7.743,3.9-12.663
			s-2.108-15.111-2.108-16.341c0-0.315,0.127-0.999,0.315-1.843"/>
		<polyline style="fill:none;stroke:#263238;stroke-miterlimit:10;" points="202.89,190.759 197.092,219.224 199.025,196.909 		"/>
		<g>
			<path style="fill:#FFFFFF;stroke:#263238;stroke-miterlimit:10;" d="M262.069,448.955l-2.574-7.355c0,0-7.627-5.043-11.427-3.414
				c-3.8,1.629-4.615,4.886-4.615,4.886l-2.713,1.102l-0.735,3.677l0.735,6.251c0,0-1.839,8.09,0,8.09s22.432,0,22.432,0
				s3.677-3.31,2.207-6.619C263.908,452.265,262.069,448.955,262.069,448.955z"/>
			<path style="fill:#FFFFFF;stroke:#263238;stroke-miterlimit:10;" d="M215.367,453.595c-0.277-4.991-0.345-8.098-0.362-9.326
				l-4.941,0.353c0,0-2.172-5.429-6.515-6.515c-4.343-1.086-7.305,3.72-7.305,3.72s-1.839,7.355-4.045,9.193
				c-2.206,1.839-9.561,6.251-9.929,8.09c-0.368,1.839,1.103,2.206,2.942,2.942s27.58,0,27.58,0S215.734,460.214,215.367,453.595z"
				/>
		</g>
		<g>
			<path style="fill:#FFFFFF;stroke:#263238;stroke-miterlimit:10;" d="M221.676,120.797c0,0-1.194-11.818,3.581-19.577
				c4.775-7.759,16.712-9.669,24.71-7.162c7.998,2.507,14.563,9.788,15.637,15.16c1.074,5.372-0.478,13.369-1.194,15.518
				c-0.716,2.149-2.268,3.104-2.268,5.133c0,2.029,0.358,8.356-2.029,12.056s-6.685,10.743-8.714,12.056s-5.252,0.955-6.685,0.477
				c-1.433-0.477-2.268-0.955-2.268-0.955s-8.117-4.059-10.743-6.923c-2.626-2.865-4.059-6.446-5.372-9.669
				c-1.313-3.223-2.387-7.043-2.387-7.043L221.676,120.797z"/>
			<path style="fill:#263238;stroke:#263238;stroke-miterlimit:10;" d="M265.604,109.218c-1.074-5.372-7.64-12.653-15.637-15.16
				c-7.998-2.507-19.935-0.597-24.71,7.162c-4.775,7.759-3.581,19.577-3.581,19.577l1.628,6.514l4.101-2.336
				c0,0,3.82-1.671,4.059-3.939c0.239-2.268,1.552-2.626,3.462-4.417c1.91-1.791,2.149-11.937,12.534-13.369
				c8.31-1.146,14.169,1.537,18.321,7.055C265.732,109.933,265.674,109.57,265.604,109.218z"/>
			<path style="fill:#FFFFFF;stroke:#263238;stroke-miterlimit:10;" d="M228.719,134.167c0,0-1.91,1.91-3.939,0.836
				c-2.029-1.074-4.775-3.939-5.372-9.55c-0.597-5.61,2.387-7.879,5.61-5.968c3.223,1.91,3.82,7.401,3.82,7.401"/>
			<path style="fill:none;stroke:#263238;stroke-miterlimit:10;" d="M259.397,123.602l-2.984,1.074c0,0-1.552,5.969-1.552,7.282
				s2.268,4.536,1.91,5.73c-0.358,1.194-4.059,2.268-4.894,1.791"/>
			<path style="fill:none;stroke:#263238;stroke-miterlimit:10;" d="M243.759,141.269c0,0,1.791,3.581,7.998,3.342"/>
			<path style="fill:none;stroke:#263238;stroke-miterlimit:10;" d="M241.372,128.377c0,0,4.059,1.91,8.117,1.074"/>
			<path style="fill:none;stroke:#263238;stroke-miterlimit:10;" d="M251.041,121.334c0,0-5.252-1.91-9.43,0.119"/>
			<path style="fill:none;stroke:#263238;stroke-miterlimit:10;" d="M246.982,129.929l-0.597,0.836c0,0-0.597,0.358-2.626-0.478"/>
			<g>
				<path style="fill:none;stroke:#263238;stroke-miterlimit:10;" d="M255.831,129.958c0,0,2.825,1.509,5.536,0.66"/>
				<path style="fill:none;stroke:#263238;stroke-miterlimit:10;" d="M259.691,131.109l-0.369,0.737c0,0-0.389,0.327-1.797-0.325"/>
			</g>
			<path style="fill:none;stroke:#263238;stroke-miterlimit:10;" d="M260.352,123.961c0,0,2.149-0.358,2.626,1.194"/>
		</g>
	</g>
</g>
<g id="Character_1">
	<g>
		<path style="fill:#9E9E9E;stroke:#263238;stroke-miterlimit:10;" d="M168.458,390.453c0,0-10.128-4.46-20.579-3.126
			c-12.243,1.563-20.058,8.596-24.486,19.276c-4.428,10.68-4.26,29.718,7.033,41.679c5.167,5.472,11.222,9.553,16.733,11.572
			c4.579,1.678,9.425,2.495,14.302,2.495h73.858c5.391,0,10.386-2.835,13.129-7.476c4.055-6.861,8.721-17.726,7.015-29.514
			c-2.865-19.798-16.151-25.268-17.453-25.789C236.708,399.049,168.458,390.453,168.458,390.453z"/>
		<g>
			<g>
				<path style="fill:#FFFFFF;stroke:#263238;stroke-linecap:round;stroke-linejoin:round;stroke-miterlimit:10;" d="
					M214.096,198.057c0,0,4.238,4.873,5.509,9.535c1.271,4.662,2.543,6.569,3.39,7.84c0.848,1.271,5.721,4.238,5.721,6.992
					c0,2.755-3.39,4.238-3.39,4.238s0.424,9.111,0.636,11.866c0.212,2.755,0.636,4.026-0.848,5.509s-4.662,3.178-4.662,3.178
					s-10.171,10.806-11.442,12.078c-1.271,1.271-30.088-9.959-30.088-9.959s0.848-2.755,1.483-4.238
					c0.636-1.483,0.636-1.483,0.636-1.483s-9.323-17.375-11.442-26.274c-2.119-8.899,12.078-22.036,16.739-25.003
					c4.662-2.966,19.706-2.119,23.732-1.695c4.026,0.424,5.933,1.06,5.933,3.39c0,2.331,0,2.331,0,2.331l2.543-0.848
					C218.546,195.515,217.486,198.905,214.096,198.057z"/>
				<path style="fill:#263238;stroke:#263238;stroke-linecap:round;stroke-linejoin:round;stroke-miterlimit:10;" d="
					M207.528,198.057c3.39,0.212,6.569,0,6.569,0c3.39,0.848,4.45-2.543,4.45-2.543l-2.543,0.848c0,0,0,0,0-2.331
					c0-2.331-1.907-2.966-5.933-3.39c-4.026-0.424-19.07-1.271-23.732,1.695c-4.661,2.967-18.858,16.104-16.739,25.003
					c2.119,8.899,11.442,26.274,11.442,26.274s1.483,0,6.145-1.483c4.662-1.483,6.357-7.628,6.357-7.628s-5.297-1.907-6.569-4.026
					c-1.271-2.119,0.212-9.111,2.755-9.959c2.543-0.848,6.357,2.119,7.416,2.331c1.059,0.212,1.483-0.636,2.331-1.907
					c0.847-1.271-0.424-3.178-0.424-4.238c0-1.059,5.085-6.78,6.145-9.111c1.059-2.331-7.204-6.781-6.781-8.899
					S204.137,197.846,207.528,198.057z"/>
				<path style="fill:none;stroke:#263238;stroke-linecap:round;stroke-linejoin:round;stroke-miterlimit:10;" d="M213.884,247.216
					c0,0-5.721,0.424-10.594-2.543c-4.874-2.967-5.509-5.721-5.509-5.721"/>
				<path style="fill:none;stroke:#263238;stroke-linecap:round;stroke-linejoin:round;stroke-miterlimit:10;" d="M214.308,230.477
					c0,0,1.907,2.543,6.569,2.331"/>
				<path style="fill:#263238;" d="M219.337,214.98c0.415,1.215,0.306,2.352-0.243,2.539c-0.549,0.187-1.33-0.646-1.745-1.861
					s-0.306-2.352,0.242-2.539C218.141,212.932,218.922,213.765,219.337,214.98z"/>
				<path style="fill:none;stroke:#263238;stroke-linecap:round;stroke-linejoin:round;stroke-miterlimit:10;" d="M214.144,211.794
					c0,0,1.5-3,4.5-1.95"/>
			</g>
			<path style="fill:#263238;stroke:#263238;stroke-miterlimit:10;" d="M300.271,440.936c0,0,2.238,7.193,8.195,11.43
				c5.957,4.237,14.449,5.392,15.959,6.685c1.51,1.294-1.078,2.803-1.078,2.803h-34.721l-0.216-20.272L300.271,440.936z"/>
			<path style="fill:#263238;stroke:#263238;stroke-miterlimit:10;" d="M290.135,357.692c0,0,11.214-2.804,12.939-0.647
				c1.725,2.157,5.607,59.738,7.117,69.873c1.51,10.136,1.078,13.155,1.078,13.155l-21.35,6.038c0,0-4.96-25.448-10.352-35.368
				c-5.391-9.92-15.959-34.721-8.842-43.779C277.842,357.908,290.135,357.692,290.135,357.692z"/>
			<path style="fill:#263238;stroke:#263238;stroke-linecap:round;stroke-linejoin:round;stroke-miterlimit:10;" d="
				M220.502,266.304c0,0,17.178,1.798,21.172,1.398c3.995-0.4,10.387-3.396,20.973-3.595c10.586-0.2,53.53-1.198,57.925-1.198
				c4.394,0,27.471-0.905,27.471-0.905s11.785-0.799,10.986,0.799c-0.799,1.598-3.196,2.597-5.992,3.196
				c-2.796,0.599-5.992,1.997-5.992,1.997l-5.193,1.398c0,0,3.995,0.999,5.193,0.999s5.992,0.799,4.993,1.798
				c-0.999,0.999-1.398,1.398-3.995,1.398s-6.192-0.799-7.59-0.799s-3.196,0.799-6.791,1.198
				c-3.595,0.399-11.891,0.106-11.891,0.106l-14.581,1.997c0,0-27.364,7.59-39.349,10.986c-11.984,3.396-17.377,3.595-17.377,3.595
				s-4.594,0.599-16.379,2.597c-11.785,1.997-27.964,0.999-27.964,0.999L220.502,266.304z"/>
			<path style="fill:#FFFFFF;stroke:#263238;stroke-linecap:round;stroke-linejoin:round;stroke-miterlimit:10;" d="
				M177.265,246.423c0,0,38.35,12.783,43.943,16.778c5.593,3.995,11.785,25.567,12.584,34.156c0.799,8.589,7.59,36.952,8.189,50.934
				c0.599,13.982-1.198,11.984-1.198,11.984s-41.945,7.99-50.335,10.786c-8.389,2.796-22.171,17.178-22.571,16.578
				c-0.399-0.599-0.399-12.184,1.199-18.776s2.996-23.769,2.996-23.769s-8.389-33.357-8.789-44.142
				c-0.4-10.786,4.394-34.355,6.591-41.346C172.072,252.615,175.867,245.824,177.265,246.423z"/>
			<path style="fill:#263238;stroke:#263238;stroke-linecap:round;stroke-linejoin:round;stroke-miterlimit:10;" d="
				M214.116,290.418l22.887,33.268c0,0-5.427-24.774-5.427-25.718c0-0.944-0.236-10.146-0.236-10.146L214.116,290.418z"/>
			<g>
				<path style="fill:#FFFFFF;stroke:#263238;stroke-linecap:round;stroke-linejoin:round;stroke-miterlimit:10;" d="
					M221.208,263.201c0,0,17.178,1.798,21.173,1.398c3.995-0.399,10.386-3.396,20.973-3.595c10.586-0.2,53.53-1.198,57.925-1.198
					c4.394,0,26.765,2.197,26.765,2.197s11.785-0.799,10.986,0.799c-0.799,1.598-3.196,2.597-5.992,3.196
					c-2.796,0.599-5.992,1.997-5.992,1.997l-5.193,1.398c0,0,3.995,0.999,5.193,0.999s5.992,0.799,4.993,1.798
					c-0.999,0.999-1.398,1.398-3.995,1.398s-6.192-0.799-7.59-0.799s-3.196,0.799-6.791,1.198
					c-3.595,0.399-11.185-2.996-11.185-2.996l-14.581,1.997c0,0-27.364,7.59-39.349,10.986c-11.984,3.396-17.377,3.595-17.377,3.595
					s-4.594,0.599-16.379,2.597c-11.785,1.997-27.964,0.999-27.964,0.999L221.208,263.201z"/>
				<path style="fill:none;stroke:#263238;stroke-miterlimit:10;" d="M354.035,264.599c0,0-4.993,0.599-6.192,0.999
					c-1.199,0.399-4.993,1.598-7.59,1.997c-2.597,0.399-5.593,0.799-5.593,0.799s-3.595,2.197-7.39,1.598
					c-3.795-0.599-4.794-1.798-4.794-1.798"/>
			</g>
			<path style="fill:#FFFFFF;stroke:#263238;stroke-linecap:round;stroke-linejoin:round;stroke-miterlimit:10;" d="
				M181.459,262.802c0,0,13.994-2.883,20.773-3.196c6.778-0.312,22.171,4.794,22.171,4.794l-20.773,32.757
				c0,0-16.578-0.799-17.377-0.799"/>
			<g>
				<path style="fill:none;stroke:#263238;stroke-miterlimit:10;" d="M201.833,299.155c0,0-4.794,22.171-17.977,34.555"/>
				<path style="fill:none;stroke:#263238;stroke-miterlimit:10;" d="M207.226,295.16c0,0-1.598,13.782-7.99,28.763"/>
				<path style="fill:none;stroke:#263238;stroke-miterlimit:10;" d="M180.181,369.353c0,0,15.89-5.47,28.133-6.512"/>
				<path style="fill:none;stroke:#263238;stroke-miterlimit:10;" d="M205.969,360.236c0,0,9.899-0.781,16.672,0.782"/>
				<path style="fill:none;stroke:#263238;stroke-miterlimit:10;" d="M198.437,325.92c0,0-1.199,3.196-2.197,5.393"/>
				<path style="fill:none;stroke:#263238;stroke-miterlimit:10;" d="M214.416,295.959c0,0,1.997,11.385,2.397,18.576"/>
			</g>
			<path style="fill:#FFFFFF;stroke:#263238;stroke-miterlimit:10;" d="M280.151,444.115c0,0,0,16.991,0.871,17.717
				c0.871,0.726,4.647,0.581,5.083,0.581c0.436,0,32.675,0,32.675,0s2.614-0.436,2.759-2.178c0.145-1.743-6.535-3.631-7.116-3.631
				s-19.024-10.02-19.605-10.892c-0.581-0.871-2.033-4.792-2.033-4.792L280.151,444.115z"/>
			<path style="fill:#263238;stroke:#263238;stroke-linecap:round;stroke-linejoin:round;stroke-miterlimit:10;" d="
				M239.052,408.427c0,0,21.106-4.584,30.379-11.701l-4.313-8.626L239.052,408.427z"/>
			<g>
				<path style="fill:#E8AA14;stroke:#263238;stroke-miterlimit:10;" d="M167.877,387.639c0,0,0.321,8.805,5.791,13.494
					c5.47,4.689,22.403,7.554,29.696,7.294c7.294-0.26,35.688,0,35.688,0s6.773-2.344,11.201-4.689
					c4.428-2.345,14.067-9.117,14.067-9.117s2.084,12.504,3.126,16.932c1.042,4.428,7.815,24.486,7.815,24.486l1.823,10.42
					l28.915-6.252c0,0-2.605-19.276-4.428-32.822c-1.823-13.546-7.294-42.721-8.857-47.67c-1.563-4.949-1.302-4.949-5.731-4.949
					c-4.428,0-20.058,1.303-35.688,3.387c-15.63,2.084-34.125,4.689-47.931,8.075c-13.806,3.387-4.689,0.782-15.89,5.47
					C176.273,376.386,167.877,387.639,167.877,387.639z"/>
				<g>
					<path style="fill:none;stroke:#263238;stroke-miterlimit:10;" d="M264.32,394.621c0,0,1.563-6.773,3.907-10.159
						c2.344-3.386,6.773-7.294,6.773-7.294"/>
					<path style="fill:none;stroke:#263238;stroke-miterlimit:10;" d="M273.437,375.344c0,0-6.773,4.428-8.596,9.117"/>
					<path style="fill:none;stroke:#263238;stroke-miterlimit:10;" d="M294.277,382.638c0,0-5.21,18.495-8.857,25.528"/>
					<path style="fill:none;stroke:#263238;stroke-miterlimit:10;" d="M294.016,393.318c0,0-3.907,32.301-8.596,41.418"/>
					<path style="fill:none;stroke:#263238;stroke-miterlimit:10;" d="M186.953,389.411c0,0,8.336-14.327,18.495-20.839"/>
					<path style="fill:none;stroke:#263238;stroke-miterlimit:10;" d="M197.634,370.395c0,0-4.949,4.949-7.294,9.117"/>
				</g>
			</g>
		</g>
	</g>
</g>
<g id="Floor">
	<line style="fill:none;stroke:#263238;stroke-miterlimit:10;" x1="13.321" y1="462.424" x2="479.289" y2="462.424"/>
</g>
</svg>
