<?xml version="1.0" encoding="utf-8"?>
<!-- Generator: Adobe Illustrator 27.5.0, SVG Export Plug-In . SVG Version: 6.00 Build 0)  -->
<svg version="1.1" xmlns="http://www.w3.org/2000/svg" xmlns:xlink="http://www.w3.org/1999/xlink" x="0px" y="0px"
	 viewBox="0 0 500 500" style="enable-background:new 0 0 500 500;" xml:space="preserve">
<g id="Background_Simple">
	<g>
		<path style="fill:#E8AA14;" d="M466.436,335.828c-20.798,42.743-57.58,87.106-102.187,95.756
			c-67.4,13.077-82.884,70.518-197.726,49.726c-17.906-3.24-34.181-8.303-48.876-14.884c-7.9-3.537-15.343-7.526-22.326-11.91
			C31.898,414.798,5.679,342.457,12.17,271.277c8.523-93.619,72.212-130.312,113.224-151.302
			C166.405,98.985,225.06,4.319,338.128,23.76c17.237,2.973,34.17,7.934,50.243,15.267c36.691,16.719,72.141,47.622,89.726,88.245
			c1.32,3.052,2.553,6.159,3.71,9.312C504.367,198.259,494.793,277.557,466.436,335.828z"/>
		<path style="opacity:0.8;fill:#FFFFFF;" d="M466.436,335.828c-20.798,42.743-57.58,87.106-102.187,95.756
			c-67.4,13.077-82.884,70.518-197.726,49.726c-17.906-3.24-34.181-8.303-48.876-14.884c-7.9-3.537-15.343-7.526-22.326-11.91
			C31.898,414.798,5.679,342.457,12.17,271.277c8.523-93.619,72.212-130.312,113.224-151.302
			C166.405,98.985,225.06,4.319,338.128,23.76c17.237,2.973,34.17,7.934,50.243,15.267c36.691,16.719,72.141,47.622,89.726,88.245
			c1.32,3.052,2.553,6.159,3.71,9.312C504.367,198.259,494.793,277.557,466.436,335.828z"/>
	</g>
</g>
<g id="Plant">
	<g>
		<g>
			<path style="fill:#FFFFFF;stroke:#263238;stroke-linecap:round;stroke-linejoin:round;stroke-miterlimit:10;" d="
				M100.642,238.339l-4.186-0.433l7.939-4.764l-9.816,4.619l-13.28,0.577l3.753-3.176l9.527-9.383l8.084-8.372l7.391-11.029
				c0,0-7.227,10.007-8.488,11.52c-0.954,1.145-14.663,13.345-21.549,20.32c-2.213,2.242-3.757,3.848-4.002,4.216
				c-0.877,1.316-5.512,10.128-6.704,12.401c-0.011-7.622-0.496-18.953-1.291-23.453c-1.014-5.744-0.731-37.285-0.731-37.285
				s-0.621,7.447-1.241,9.309c-0.621,1.862,0.638,26.673,0.638,26.673s0.014,0.205,0.036,0.539l-7.759-7.417l-18.102-20.296
				l4.937,7.266l-11.959-4.235l13.827,6.229l9.966,11.212l6.229,6.602l3.034,3.438c0.174,2.984,0.394,7.333,0.394,10.329
				c0,4.965,0.621,11.171,0.621,13.653c0,2.482,0,7.447,0,17.997c0,10.55,0,11.171-0.621,19.859
				c-0.091,1.269-0.168,3.351-0.236,6.007l-0.304-1.941L50.315,287.51l-5.649-19.001l4.346,18.11l-8.987-6.212l-1.983-13.349
				l0.264,12.292l-12.16-9.12l11.631,9.913l-11.631-1.454l12.952,2.379l15.464,10.97l-7.93,4.361l9.384-2.908l11.026,8.138
				c-0.39,15.724-0.47,51.032-0.996,66.278c-0.621,17.997,1.241,44.063,1.241,44.063l2.758-1.795l-1.352-26.356
				c0,0-0.676-59.516,0.338-65.936c1.014-6.42,0.338-9.799,0-14.529c-0.335-4.689-0.167-36.596,0.165-43.085l1.852-5.185
				l6.207-11.693l2.743-3.176l11.548-0.577l4.042-0.433h16.023L100.642,238.339z"/>
			<g>
				<path style="fill:#E8AA14;stroke:#263238;stroke-linecap:round;stroke-linejoin:round;stroke-miterlimit:10;" d="
					M108.826,207.555c0,0-0.558-2.792,0.447-4.691c1.005-1.899,4.691-4.244,4.691-4.244s0.112,3.686-0.894,6.031
					C112.065,206.997,108.826,207.555,108.826,207.555z"/>
				<path style="fill:#E8AA14;stroke:#263238;stroke-linecap:round;stroke-linejoin:round;stroke-miterlimit:10;" d="
					M107.286,209.92c0,0-2.547-1.272-3.43-3.231c-0.882-1.959-0.473-6.308-0.473-6.308s2.979,2.173,4.214,4.406
					C108.832,207.02,107.286,209.92,107.286,209.92z"/>
				<path style="fill:#E8AA14;stroke:#263238;stroke-linecap:round;stroke-linejoin:round;stroke-miterlimit:10;" d="
					M106.67,210.737c0,0,2.378-1.567,4.515-1.349c2.137,0.218,5.696,2.752,5.696,2.752s-3.373,1.488-5.925,1.438
					S106.67,210.737,106.67,210.737z"/>
			</g>
			<g>
				<path style="fill:#E8AA14;stroke:#263238;stroke-linecap:round;stroke-linejoin:round;stroke-miterlimit:10;" d="M31.14,204.187
					c0,0-2.775,0.637-4.701-0.315c-1.926-0.951-4.374-4.569-4.374-4.569s3.681-0.215,6.054,0.723
					C30.49,200.965,31.14,204.187,31.14,204.187z"/>
				<path style="fill:#E8AA14;stroke:#263238;stroke-linecap:round;stroke-linejoin:round;stroke-miterlimit:10;" d="
					M33.546,205.659c0,0-1.2,2.582-3.133,3.52c-1.933,0.937-6.292,0.651-6.292,0.651s2.088-3.039,4.285-4.337
					C30.604,204.195,33.546,205.659,33.546,205.659z"/>
				<path style="fill:#E8AA14;stroke:#263238;stroke-linecap:round;stroke-linejoin:round;stroke-miterlimit:10;" d="
					M34.381,206.252c0,0-1.633-2.333-1.475-4.475c0.158-2.143,2.591-5.771,2.591-5.771s1.583,3.33,1.604,5.882
					C37.123,204.44,34.381,206.252,34.381,206.252z"/>
			</g>
			<g>
				<path style="fill:#E8AA14;stroke:#263238;stroke-linecap:round;stroke-linejoin:round;stroke-miterlimit:10;" d="
					M53.753,219.088c0,0-2.775,0.637-4.701-0.314c-1.926-0.951-4.374-4.57-4.374-4.57s3.681-0.215,6.054,0.723
					C53.103,215.866,53.753,219.088,53.753,219.088z"/>
				<path style="fill:#E8AA14;stroke:#263238;stroke-linecap:round;stroke-linejoin:round;stroke-miterlimit:10;" d="M56.159,220.56
					c0,0-1.2,2.582-3.133,3.52s-6.292,0.651-6.292,0.651s2.088-3.039,4.286-4.336C53.217,219.096,56.159,220.56,56.159,220.56z"/>
				<path style="fill:#E8AA14;stroke:#263238;stroke-linecap:round;stroke-linejoin:round;stroke-miterlimit:10;" d="
					M56.994,221.153c0,0-1.633-2.333-1.475-4.475c0.158-2.142,2.591-5.771,2.591-5.771s1.583,3.33,1.604,5.882
					C59.736,219.341,56.994,221.153,56.994,221.153z"/>
			</g>
			<g>
				<path style="fill:#E8AA14;stroke:#263238;stroke-linecap:round;stroke-linejoin:round;stroke-miterlimit:10;" d="
					M63.817,209.284c0,0-2.775,0.637-4.701-0.314c-1.926-0.951-4.374-4.57-4.374-4.57s3.681-0.215,6.054,0.723
					C63.168,206.063,63.817,209.284,63.817,209.284z"/>
				<path style="fill:#E8AA14;stroke:#263238;stroke-linecap:round;stroke-linejoin:round;stroke-miterlimit:10;" d="
					M66.224,210.757c0,0-1.2,2.582-3.133,3.52c-1.933,0.937-6.292,0.651-6.292,0.651s2.088-3.039,4.286-4.336
					C63.282,209.293,66.224,210.757,66.224,210.757z"/>
				<path style="fill:#E8AA14;stroke:#263238;stroke-linecap:round;stroke-linejoin:round;stroke-miterlimit:10;" d="M67.059,211.35
					c0,0-1.633-2.333-1.475-4.475c0.158-2.143,2.591-5.771,2.591-5.771s1.583,3.33,1.604,5.882
					C69.8,209.537,67.059,211.35,67.059,211.35z"/>
			</g>
			<g>
				<path style="fill:#E8AA14;stroke:#263238;stroke-linecap:round;stroke-linejoin:round;stroke-miterlimit:10;" d="M68.51,221.394
					c0,0-0.72-2.755,0.173-4.709c0.893-1.954,4.436-4.51,4.436-4.51s0.326,3.673-0.541,6.073
					C71.711,220.648,68.51,221.394,68.51,221.394z"/>
				<path style="fill:#E8AA14;stroke:#263238;stroke-linecap:round;stroke-linejoin:round;stroke-miterlimit:10;" d="
					M67.111,223.844c0,0-2.617-1.122-3.612-3.026c-0.995-1.904-0.84-6.27-0.84-6.27s3.1,1.996,4.464,4.153
					C68.485,220.859,67.111,223.844,67.111,223.844z"/>
				<path style="fill:#E8AA14;stroke:#263238;stroke-linecap:round;stroke-linejoin:round;stroke-miterlimit:10;" d="
					M66.543,224.696c0,0,2.282-1.702,4.429-1.609c2.146,0.093,5.846,2.416,5.846,2.416s-3.281,1.682-5.831,1.781
					C68.437,227.382,66.543,224.696,66.543,224.696z"/>
			</g>
			<g>
				<path style="fill:#E8AA14;stroke:#263238;stroke-linecap:round;stroke-linejoin:round;stroke-miterlimit:10;" d="
					M47.325,266.577c0,0-0.72-2.755,0.173-4.709c0.893-1.954,4.436-4.51,4.436-4.51s0.326,3.673-0.541,6.073
					C50.526,265.831,47.325,266.577,47.325,266.577z"/>
				<path style="fill:#E8AA14;stroke:#263238;stroke-linecap:round;stroke-linejoin:round;stroke-miterlimit:10;" d="
					M45.926,269.027c0,0-2.617-1.122-3.612-3.026c-0.995-1.904-0.84-6.27-0.84-6.27s3.1,1.996,4.463,4.153
					C47.3,266.042,45.926,269.027,45.926,269.027z"/>
				<path style="fill:#E8AA14;stroke:#263238;stroke-linecap:round;stroke-linejoin:round;stroke-miterlimit:10;" d="
					M45.358,269.879c0,0,2.282-1.702,4.429-1.609c2.146,0.093,5.846,2.416,5.846,2.416s-3.281,1.682-5.831,1.781
					C47.252,272.565,45.358,269.879,45.358,269.879z"/>
			</g>
			<g>
				<path style="fill:#E8AA14;stroke:#263238;stroke-linecap:round;stroke-linejoin:round;stroke-miterlimit:10;" d="
					M46.167,298.925c0,0,0.453,2.811-0.623,4.671c-1.076,1.859-4.847,4.065-4.847,4.065s0.027-3.687,1.12-5.993
					S46.167,298.925,46.167,298.925z"/>
				<path style="fill:#E8AA14;stroke:#263238;stroke-linecap:round;stroke-linejoin:round;stroke-miterlimit:10;" d="M47.795,296.62
					c0,0,2.498,1.367,3.306,3.358c0.808,1.991,0.236,6.321,0.236,6.321s-2.895-2.284-4.045-4.561
					C46.141,299.46,47.795,296.62,47.795,296.62z"/>
				<path style="fill:#E8AA14;stroke:#263238;stroke-linecap:round;stroke-linejoin:round;stroke-miterlimit:10;" d="
					M48.442,295.826c0,0-2.435,1.476-4.562,1.178c-2.128-0.298-5.588-2.965-5.588-2.965s3.427-1.36,5.975-1.214
					C46.813,292.971,48.442,295.826,48.442,295.826z"/>
			</g>
			<g>
				<path style="fill:#E8AA14;stroke:#263238;stroke-linecap:round;stroke-linejoin:round;stroke-miterlimit:10;" d="
					M66.785,272.584c0,0,0.453,2.811-0.623,4.671s-4.847,4.065-4.847,4.065s0.027-3.687,1.12-5.993
					C63.528,273.02,66.785,272.584,66.785,272.584z"/>
				<path style="fill:#E8AA14;stroke:#263238;stroke-linecap:round;stroke-linejoin:round;stroke-miterlimit:10;" d="
					M68.413,270.279c0,0,2.498,1.367,3.306,3.358c0.808,1.99,0.236,6.321,0.236,6.321s-2.895-2.284-4.045-4.561
					C66.759,273.119,68.413,270.279,68.413,270.279z"/>
				<path style="fill:#E8AA14;stroke:#263238;stroke-linecap:round;stroke-linejoin:round;stroke-miterlimit:10;" d="
					M69.059,269.486c0,0-2.435,1.476-4.562,1.178c-2.127-0.298-5.588-2.965-5.588-2.965s3.427-1.36,5.975-1.214
					C67.431,266.63,69.059,269.486,69.059,269.486z"/>
			</g>
			<g>
				<path style="fill:#E8AA14;stroke:#263238;stroke-linecap:round;stroke-linejoin:round;stroke-miterlimit:10;" d="
					M68.896,251.387c0,0-2.661-1.013-3.734-2.874c-1.073-1.861-1.097-6.23-1.097-6.23s3.18,1.867,4.631,3.965
					C70.146,248.348,68.896,251.387,68.896,251.387z"/>
				<path style="fill:#E8AA14;stroke:#263238;stroke-linecap:round;stroke-linejoin:round;stroke-miterlimit:10;" d="
					M70.078,253.949c0,0-2.433,1.48-4.561,1.185c-2.128-0.295-5.593-2.956-5.593-2.956s3.425-1.366,5.973-1.224
					C68.445,251.097,70.078,253.949,70.078,253.949z"/>
				<path style="fill:#E8AA14;stroke:#263238;stroke-linecap:round;stroke-linejoin:round;stroke-miterlimit:10;" d="
					M70.443,254.906c0,0-0.061-2.847,1.26-4.54c1.322-1.693,5.361-3.358,5.361-3.358s-0.535,3.648-1.935,5.782
					C73.729,254.923,70.443,254.906,70.443,254.906z"/>
			</g>
			<g>
				<path style="fill:#E8AA14;stroke:#263238;stroke-linecap:round;stroke-linejoin:round;stroke-miterlimit:10;" d="
					M82.831,237.621c0,0-0.312-2.83,0.856-4.634c1.168-1.803,5.045-3.817,5.045-3.817s-0.212,3.681-1.419,5.93
					C86.107,237.348,82.831,237.621,82.831,237.621z"/>
				<path style="fill:#E8AA14;stroke:#263238;stroke-linecap:round;stroke-linejoin:round;stroke-miterlimit:10;" d="M81.09,239.841
					c0,0-2.426-1.49-3.134-3.519c-0.708-2.028,0.081-6.325,0.081-6.325s2.777,2.426,3.812,4.758
					C82.885,237.087,81.09,239.841,81.09,239.841z"/>
				<path style="fill:#E8AA14;stroke:#263238;stroke-linecap:round;stroke-linejoin:round;stroke-miterlimit:10;" d="
					M80.405,240.602c0,0,2.506-1.352,4.616-0.948c2.11,0.405,5.433,3.241,5.433,3.241s-3.491,1.187-6.028,0.913
					C81.888,243.535,80.405,240.602,80.405,240.602z"/>
			</g>
			<g>
				<path style="fill:#E8AA14;stroke:#263238;stroke-linecap:round;stroke-linejoin:round;stroke-miterlimit:10;" d="
					M69.298,297.991c0,0-0.312-2.83,0.856-4.634c1.168-1.803,5.045-3.817,5.045-3.817s-0.212,3.681-1.419,5.93
					C72.573,297.718,69.298,297.991,69.298,297.991z"/>
				<path style="fill:#E8AA14;stroke:#263238;stroke-linecap:round;stroke-linejoin:round;stroke-miterlimit:10;" d="
					M67.557,300.211c0,0-2.426-1.491-3.134-3.519c-0.707-2.028,0.081-6.325,0.081-6.325s2.777,2.426,3.812,4.758
					C69.351,297.458,67.557,300.211,67.557,300.211z"/>
				<path style="fill:#E8AA14;stroke:#263238;stroke-linecap:round;stroke-linejoin:round;stroke-miterlimit:10;" d="
					M66.871,300.972c0,0,2.506-1.352,4.616-0.948c2.11,0.405,5.433,3.241,5.433,3.241s-3.491,1.187-6.028,0.914
					C68.355,303.905,66.871,300.972,66.871,300.972z"/>
			</g>
			<g>
				<path style="fill:#E8AA14;stroke:#263238;stroke-linecap:round;stroke-linejoin:round;stroke-miterlimit:10;" d="
					M70.243,236.477c0,0-0.312-2.83,0.856-4.634c1.168-1.803,5.045-3.817,5.045-3.817s-0.212,3.681-1.419,5.929
					C73.519,236.205,70.243,236.477,70.243,236.477z"/>
				<path style="fill:#E8AA14;stroke:#263238;stroke-linecap:round;stroke-linejoin:round;stroke-miterlimit:10;" d="
					M68.503,238.698c0,0-2.426-1.49-3.134-3.519c-0.708-2.029,0.081-6.325,0.081-6.325s2.777,2.426,3.812,4.758
					C70.297,235.944,68.503,238.698,68.503,238.698z"/>
				<path style="fill:#E8AA14;stroke:#263238;stroke-linecap:round;stroke-linejoin:round;stroke-miterlimit:10;" d="
					M67.817,239.458c0,0,2.506-1.352,4.616-0.948c2.11,0.404,5.433,3.241,5.433,3.241s-3.491,1.187-6.028,0.913
					C69.3,242.391,67.817,239.458,67.817,239.458z"/>
			</g>
			<g>
				<path style="fill:#E8AA14;stroke:#263238;stroke-linecap:round;stroke-linejoin:round;stroke-miterlimit:10;" d="
					M59.778,294.158c0,0-2.845-0.12-4.451-1.548s-3.009-5.564-3.009-5.564s3.607,0.767,5.646,2.3
					C60.004,290.879,59.778,294.158,59.778,294.158z"/>
				<path style="fill:#E8AA14;stroke:#263238;stroke-linecap:round;stroke-linejoin:round;stroke-miterlimit:10;" d="
					M61.709,296.215c0,0-1.841,2.173-3.953,2.565c-2.112,0.392-6.24-1.038-6.24-1.038s2.818-2.378,5.281-3.047
					S61.709,296.215,61.709,296.215z"/>
				<path style="fill:#E8AA14;stroke:#263238;stroke-linecap:round;stroke-linejoin:round;stroke-miterlimit:10;" d="
					M62.357,297.008c0,0-0.957-2.682-0.238-4.706c0.719-2.024,4.026-4.879,4.026-4.879s0.645,3.63-0.01,6.097
					C65.48,295.986,62.357,297.008,62.357,297.008z"/>
			</g>
			<g>
				<path style="fill:#E8AA14;stroke:#263238;stroke-linecap:round;stroke-linejoin:round;stroke-miterlimit:10;" d="M66.749,317.02
					c0,0-2.661-1.013-3.734-2.874c-1.073-1.861-1.097-6.23-1.097-6.23s3.18,1.866,4.631,3.965
					C67.999,313.98,66.749,317.02,66.749,317.02z"/>
				<path style="fill:#E8AA14;stroke:#263238;stroke-linecap:round;stroke-linejoin:round;stroke-miterlimit:10;" d="
					M67.932,319.582c0,0-2.433,1.48-4.561,1.185c-2.128-0.295-5.593-2.956-5.593-2.956s3.425-1.366,5.973-1.224
					C66.299,316.729,67.932,319.582,67.932,319.582z"/>
				<path style="fill:#E8AA14;stroke:#263238;stroke-linecap:round;stroke-linejoin:round;stroke-miterlimit:10;" d="
					M68.296,320.538c0,0-0.061-2.847,1.26-4.54c1.322-1.693,5.361-3.358,5.361-3.358s-0.535,3.648-1.935,5.782
					C71.582,320.555,68.296,320.538,68.296,320.538z"/>
			</g>
			<g>
				<path style="fill:#E8AA14;stroke:#263238;stroke-linecap:round;stroke-linejoin:round;stroke-miterlimit:10;" d="
					M70.777,267.688c0,0-0.186-2.841,1.06-4.591c1.246-1.75,5.209-3.59,5.209-3.59s-0.375,3.668-1.68,5.861
					C74.061,267.56,70.777,267.688,70.777,267.688z"/>
				<path style="fill:#E8AA14;stroke:#263238;stroke-linecap:round;stroke-linejoin:round;stroke-miterlimit:10;" d="
					M68.939,269.829c0,0-2.358-1.596-2.975-3.654s0.361-6.315,0.361-6.315s2.667,2.546,3.597,4.922
					C70.854,267.157,68.939,269.829,68.939,269.829z"/>
				<path style="fill:#E8AA14;stroke:#263238;stroke-linecap:round;stroke-linejoin:round;stroke-miterlimit:10;" d="
					M68.221,270.558c0,0,2.563-1.24,4.653-0.743c2.09,0.498,5.284,3.478,5.284,3.478s-3.54,1.031-6.063,0.646
					C69.573,273.554,68.221,270.558,68.221,270.558z"/>
			</g>
			<g>
				<path style="fill:#E8AA14;stroke:#263238;stroke-linecap:round;stroke-linejoin:round;stroke-miterlimit:10;" d="
					M26.073,277.742c0,0-2.63,1.091-4.688,0.474c-2.058-0.617-5.075-3.776-5.075-3.776s3.594-0.826,6.09-0.296
					C24.896,274.673,26.073,277.742,26.073,277.742z"/>
				<path style="fill:#E8AA14;stroke:#263238;stroke-linecap:round;stroke-linejoin:round;stroke-miterlimit:10;" d="
					M28.692,278.793c0,0-0.753,2.746-2.502,3.993c-1.75,1.247-6.096,1.691-6.096,1.691s1.552-3.345,3.503-4.99
					C25.546,277.84,28.692,278.793,28.692,278.793z"/>
				<path style="fill:#E8AA14;stroke:#263238;stroke-linecap:round;stroke-linejoin:round;stroke-miterlimit:10;" d="
					M29.614,279.238c0,0-1.999-2.028-2.201-4.167c-0.202-2.139,1.592-6.122,1.592-6.122s2.116,3.02,2.563,5.532
					C32.015,276.994,29.614,279.238,29.614,279.238z"/>
			</g>
			<g>
				<path style="fill:#E8AA14;stroke:#263238;stroke-linecap:round;stroke-linejoin:round;stroke-miterlimit:10;" d="
					M24.287,267.967c0,0-2.842,0.171-4.585-1.085c-1.743-1.256-3.562-5.228-3.562-5.228s3.666,0.394,5.852,1.711
					C24.177,264.683,24.287,267.967,24.287,267.967z"/>
				<path style="fill:#E8AA14;stroke:#263238;stroke-linecap:round;stroke-linejoin:round;stroke-miterlimit:10;" d="
					M26.418,269.816c0,0-1.609,2.349-3.67,2.955c-2.061,0.606-6.313-0.395-6.313-0.395s2.561-2.653,4.941-3.571
					C23.757,267.888,26.418,269.816,26.418,269.816z"/>
				<path style="fill:#E8AA14;stroke:#263238;stroke-linecap:round;stroke-linejoin:round;stroke-miterlimit:10;" d="
					M27.144,270.539c0,0-1.226-2.57-0.718-4.657c0.509-2.087,3.506-5.265,3.506-5.265s1.012,3.546,0.613,6.066
					S27.144,270.539,27.144,270.539z"/>
			</g>
			<g>
				<path style="fill:#E8AA14;stroke:#263238;stroke-linecap:round;stroke-linejoin:round;stroke-miterlimit:10;" d="
					M37.686,269.064c0,0-2.625-1.102-3.635-2.999c-1.009-1.897-0.886-6.263-0.886-6.263s3.115,1.973,4.494,4.12
					C39.039,266.069,37.686,269.064,37.686,269.064z"/>
				<path style="fill:#E8AA14;stroke:#263238;stroke-linecap:round;stroke-linejoin:round;stroke-miterlimit:10;" d="
					M38.782,271.665c0,0-2.481,1.397-4.598,1.03c-2.117-0.367-5.49-3.143-5.49-3.143s3.469-1.249,6.011-1.021
					C37.246,268.759,38.782,271.665,38.782,271.665z"/>
				<path style="fill:#E8AA14;stroke:#263238;stroke-linecap:round;stroke-linejoin:round;stroke-miterlimit:10;" d="
					M39.113,272.633c0,0,0.035-2.847,1.413-4.495c1.378-1.648,5.471-3.175,5.471-3.175s-0.658,3.628-2.129,5.713
					C42.398,272.761,39.113,272.633,39.113,272.633z"/>
			</g>
			<g>
				<path style="fill:#E8AA14;stroke:#263238;stroke-linecap:round;stroke-linejoin:round;stroke-miterlimit:10;" d="M69.09,192.131
					c0,0-0.558-2.792,0.447-4.691c1.005-1.899,4.691-4.244,4.691-4.244s0.112,3.686-0.894,6.031
					C72.329,191.573,69.09,192.131,69.09,192.131z"/>
				<path style="fill:#E8AA14;stroke:#263238;stroke-linecap:round;stroke-linejoin:round;stroke-miterlimit:10;" d="M67.55,194.496
					c0,0-2.547-1.272-3.43-3.231c-0.883-1.959-0.473-6.308-0.473-6.308s2.979,2.173,4.214,4.406
					C69.096,191.596,67.55,194.496,67.55,194.496z"/>
				<path style="fill:#E8AA14;stroke:#263238;stroke-linecap:round;stroke-linejoin:round;stroke-miterlimit:10;" d="
					M66.934,195.313c0,0,2.378-1.567,4.515-1.349c2.137,0.218,5.696,2.752,5.696,2.752s-3.374,1.488-5.925,1.438
					C68.669,198.105,66.934,195.313,66.934,195.313z"/>
			</g>
			<g>
				<path style="fill:#E8AA14;stroke:#263238;stroke-linecap:round;stroke-linejoin:round;stroke-miterlimit:10;" d="
					M40.862,201.056c0,0-2.745-0.757-3.988-2.509c-1.243-1.752-1.68-6.099-1.68-6.099s3.342,1.558,4.984,3.511
					C41.82,197.912,40.862,201.056,40.862,201.056z"/>
				<path style="fill:#E8AA14;stroke:#263238;stroke-linecap:round;stroke-linejoin:round;stroke-miterlimit:10;" d="
					M42.281,203.495c0,0-2.282,1.703-4.428,1.61c-2.146-0.093-5.847-2.415-5.847-2.415s3.281-1.683,5.831-1.781
					C40.387,200.809,42.281,203.495,42.281,203.495z"/>
				<path style="fill:#E8AA14;stroke:#263238;stroke-linecap:round;stroke-linejoin:round;stroke-miterlimit:10;" d="
					M42.734,204.413c0,0-0.329-2.828,0.827-4.639c1.156-1.811,5.021-3.848,5.021-3.848s-0.189,3.682-1.381,5.938
					C46.007,204.12,42.734,204.413,42.734,204.413z"/>
			</g>
			<g>
				<path style="fill:#E8AA14;stroke:#263238;stroke-linecap:round;stroke-linejoin:round;stroke-miterlimit:10;" d="
					M95.424,223.303c0,0-0.558-2.792,0.447-4.691c1.005-1.899,4.691-4.244,4.691-4.244s0.112,3.686-0.894,6.031
					C98.663,222.744,95.424,223.303,95.424,223.303z"/>
				<path style="fill:#E8AA14;stroke:#263238;stroke-linecap:round;stroke-linejoin:round;stroke-miterlimit:10;" d="
					M93.884,225.667c0,0-2.547-1.272-3.43-3.231c-0.883-1.959-0.473-6.308-0.473-6.308s2.979,2.173,4.214,4.406
					C95.43,222.767,93.884,225.667,93.884,225.667z"/>
				<path style="fill:#E8AA14;stroke:#263238;stroke-linecap:round;stroke-linejoin:round;stroke-miterlimit:10;" d="
					M93.268,226.485c0,0,2.378-1.567,4.515-1.349c2.137,0.218,5.696,2.752,5.696,2.752s-3.374,1.488-5.925,1.438
					C95.003,229.276,93.268,226.485,93.268,226.485z"/>
			</g>
			<g>
				<path style="fill:#E8AA14;stroke:#263238;stroke-linecap:round;stroke-linejoin:round;stroke-miterlimit:10;" d="
					M114.472,238.17c0,0,1.154-2.603,3.069-3.575c1.916-0.972,6.28-0.763,6.28-0.763s-2.034,3.076-4.207,4.412
					C117.44,239.581,114.472,238.17,114.472,238.17z"/>
				<path style="fill:#E8AA14;stroke:#263238;stroke-linecap:round;stroke-linejoin:round;stroke-miterlimit:10;" d="
					M111.85,239.214c0,0-1.348-2.508-0.94-4.617c0.408-2.109,3.25-5.427,3.25-5.427s1.181,3.493,0.903,6.03
					C114.786,237.736,111.85,239.214,111.85,239.214z"/>
				<path style="fill:#E8AA14;stroke:#263238;stroke-linecap:round;stroke-linejoin:round;stroke-miterlimit:10;" d="
					M104.256,233.295c0,0-1.348-2.508-0.94-4.617c0.408-2.109,3.25-5.427,3.25-5.427s1.181,3.493,0.903,6.03
					C107.191,231.817,104.256,233.295,104.256,233.295z"/>
				<path style="fill:#E8AA14;stroke:#263238;stroke-linecap:round;stroke-linejoin:round;stroke-miterlimit:10;" d="
					M110.876,239.527c0,0,2.846,0.091,4.466,1.501s3.067,5.533,3.067,5.533s-3.614-0.729-5.67-2.241
					C110.683,242.808,110.876,239.527,110.876,239.527z"/>
				<path style="fill:#E8AA14;stroke:#263238;stroke-linecap:round;stroke-linejoin:round;stroke-miterlimit:10;" d="
					M104.314,233.946c0,0,2.72-0.842,4.712-0.038c1.992,0.805,4.703,4.23,4.703,4.23s-3.655,0.49-6.091-0.269
					C105.202,237.11,104.314,233.946,104.314,233.946z"/>
			</g>
			<g>
				<path style="fill:#E8AA14;stroke:#263238;stroke-linecap:round;stroke-linejoin:round;stroke-miterlimit:10;" d="
					M55.601,222.687c0,0,0.318,2.83-0.845,4.636s-5.036,3.828-5.036,3.828s0.203-3.682,1.405-5.933
					C52.327,222.967,55.601,222.687,55.601,222.687z"/>
				<path style="fill:#E8AA14;stroke:#263238;stroke-linecap:round;stroke-linejoin:round;stroke-miterlimit:10;" d="
					M57.337,220.462c0,0,2.43,1.485,3.142,3.512c0.712,2.027-0.067,6.325-0.067,6.325s-2.783-2.419-3.823-4.749
					S57.337,220.462,57.337,220.462z"/>
				<path style="fill:#E8AA14;stroke:#263238;stroke-linecap:round;stroke-linejoin:round;stroke-miterlimit:10;" d="
					M66.503,221.206c0,0-1.923,2.1-4.049,2.411c-2.126,0.311-6.195-1.278-6.195-1.278s2.908-2.267,5.394-2.842
					C64.139,218.923,66.503,221.206,66.503,221.206z"/>
			</g>
		</g>
		<g>
			<path style="fill:#263238;stroke:#263238;stroke-linecap:round;stroke-linejoin:round;stroke-miterlimit:10;" d="M42.881,408.231
				c-5.462,6.576-8.773,15.141-8.773,24.516c0,20.717,16.133,37.512,36.035,37.512s36.035-16.795,36.035-37.512
				c0-9.375-3.312-17.94-8.773-24.516H42.881z"/>
			<path style="fill:#FFFFFF;stroke:#263238;stroke-linecap:round;stroke-linejoin:round;stroke-miterlimit:10;" d="M34.206,430.088
				c-0.059,0.879-0.099,1.764-0.099,2.658c0,20.717,16.133,37.512,36.035,37.512s36.035-16.795,36.035-37.512
				c0-0.895-0.039-1.779-0.099-2.658H34.206z"/>
		</g>
	</g>
</g>
<g id="Window">
	<g>
		<g>
			<polyline style="fill:none;stroke:#263238;stroke-linecap:round;stroke-linejoin:round;stroke-miterlimit:10;" points="
				129.56,124.889 129.56,28.488 206.903,28.488 206.903,160.44 129.56,160.44 129.56,134.813 			"/>
			
				<rect x="218.928" y="28.488" style="fill:none;stroke:#263238;stroke-linecap:round;stroke-linejoin:round;stroke-miterlimit:10;" width="77.343" height="131.952"/>
			<polyline style="fill:none;stroke:#263238;stroke-linecap:round;stroke-linejoin:round;stroke-miterlimit:10;" points="
				385.638,124.18 385.638,160.44 308.296,160.44 308.296,28.488 385.638,28.488 385.638,116.383 			"/>
		</g>
		<g>
			<polyline style="fill:none;stroke:#263238;stroke-linecap:round;stroke-linejoin:round;stroke-miterlimit:10;" points="
				206.903,200.026 206.903,304.988 129.56,304.988 129.56,173.036 206.903,173.036 206.903,191.52 			"/>
			
				<rect x="218.928" y="173.036" style="fill:none;stroke:#263238;stroke-linecap:round;stroke-linejoin:round;stroke-miterlimit:10;" width="77.343" height="131.952"/>
			
				<rect x="308.296" y="173.036" style="fill:none;stroke:#263238;stroke-linecap:round;stroke-linejoin:round;stroke-miterlimit:10;" width="77.343" height="131.952"/>
		</g>
		<g>
			<polyline style="fill:none;stroke:#263238;stroke-linecap:round;stroke-linejoin:round;stroke-miterlimit:10;" points="
				129.56,384.323 129.56,317.583 206.903,317.583 206.903,449.535 129.56,449.535 129.56,391.411 			"/>
			
				<rect x="218.928" y="317.583" style="fill:none;stroke:#263238;stroke-linecap:round;stroke-linejoin:round;stroke-miterlimit:10;" width="77.343" height="131.952"/>
			<polyline style="fill:none;stroke:#263238;stroke-linecap:round;stroke-linejoin:round;stroke-miterlimit:10;" points="
				362.058,317.583 385.638,317.583 385.638,449.535 308.296,449.535 308.296,317.583 354.261,317.583 			"/>
		</g>
	</g>
</g>
<g id="Character">
	<g>
		<path style="fill:#BDBDBD;stroke:#263238;stroke-linecap:round;stroke-linejoin:round;stroke-miterlimit:10;" d="M309.745,470.404
			c-1.751-6.956-4.317-17.77-6.083-27.923c-2.916-16.764-5.831-33.528-9.111-44.461c-3.28-10.933-1.093-38.994-1.093-38.994
			l-19.315-1.822c0,0-1.458,14.213-1.458,36.808c0,17.764,7.432,59.399,10.611,76.393H309.745z"/>
		<polygon style="fill:#263238;stroke:#263238;stroke-linecap:round;stroke-linejoin:round;stroke-miterlimit:10;" points="
			292.753,372.327 278.103,374.734 278.103,366.234 293.191,364.109 		"/>
		<path style="fill:#E8AA14;stroke:#263238;stroke-linecap:round;stroke-linejoin:round;stroke-miterlimit:10;" d="M268.677,268.645
			c0,0,8.746,12.755,13.849,25.875c5.102,13.12,26.239,67.421,21.866,68.878s-29.155,5.466-29.155,5.466s-2.551-64.141-6.56-80.176
			C264.668,272.654,265.761,264.636,268.677,268.645z"/>
		<path style="fill:#E8AA14;stroke:#263238;stroke-linecap:round;stroke-linejoin:round;stroke-miterlimit:10;" d="M126.547,399.841
			v70.562h157.648c-1.297-19.744-4.585-71.24-4.585-85.868c0-18.222,4.373-45.555,0-76.531
			c-4.373-30.977-9.111-40.817-18.222-54.301c-9.111-13.484-18.222-16.764-25.875-19.315c-7.653-2.551-49.928-8.746-61.225-8.018
			c0,0-12.026-1.822-32.07,9.84c-20.044,11.662-26.239,35.715-25.51,65.234C117.436,330.963,126.547,390.366,126.547,399.841z"/>
		<path style="fill:#263238;stroke:#263238;stroke-linecap:round;stroke-linejoin:round;stroke-miterlimit:10;" d="M213.711,283.153
			c0,0,3.238-11.916,8.498-14.111s10.61-0.666,10.61-0.666s5.605-9.681,7.643-9.426c2.038,0.255,10.955,7.643,10.955,7.643
			s-11.974-28.025-12.993-30.572c-1.019-2.548-18.853-1.783-21.655,0.764C213.965,239.333,213.201,277.039,213.711,283.153z"/>
		<path style="fill:#E8AA14;stroke:#263238;stroke-linecap:round;stroke-linejoin:round;stroke-miterlimit:10;" d="M234.375,217.335
			c0,0,5.745,1.69,6.759,7.435c1.014,5.745-1.014,11.153,6.759,24.671c7.773,13.518,11.829,17.574,10.139,19.601
			c-1.69,2.028-7.435,0-8.787-3.717c-1.352-3.717-9.801-20.953-9.801-20.953s-0.338,11.49-2.704,17.574
			c-2.366,6.083-4.999,10.642-4.999,10.642s-0.408-39.706-0.07-46.127C232.009,220.039,234.375,217.335,234.375,217.335z"/>
		<path style="fill:#263238;stroke:#263238;stroke-linecap:round;stroke-linejoin:round;stroke-miterlimit:10;" d="M236.64,219.461
			c0,0,1.783,7.643,1.783,16.56c0,8.917-2.038,17.324-2.803,21.91s-2.802,10.446-2.802,10.446S228.233,233.728,236.64,219.461z"/>
		<g>
			<path style="fill:#BDBDBD;stroke:#263238;stroke-linecap:round;stroke-linejoin:round;stroke-miterlimit:10;" d="M285.032,84.296
				c0,0,2.46-6.012-12.298-24.049c-14.757-18.037-19.95-14.211-20.769-10.385c-0.82,3.826-0.82,6.559-0.82,6.559
				s-15.85-14.211-21.043-7.925c-5.192,6.285-3.279,9.018-3.279,9.018s-6.559-2.733-7.105-0.82c-0.547,1.913-0.82,4.919-0.82,4.919
				s-29.515,5.739-41.539,12.298c-12.024,6.559-11.205,19.676-11.751,33.614c-0.546,13.937,9.018,37.713,9.565,38.533
				c0.547,0.82,10.111,14.757,12.298,31.701c2.186,16.944-1.913,31.427-1.913,31.427s4.099,10.385,9.018,18.857
				c4.919,8.472,35.253,48.644,37.166,44.545c1.913-4.099,1.64-30.334,3.553-42.085c1.913-11.751,4.372-25.689,4.372-25.689
				s28.695,6.559,35.253-0.82c6.559-7.379,16.944-25.142,16.124-39.079c-0.82-13.938-5.466-19.13-6.286-24.322
				C283.939,135.399,297.603,101.786,285.032,84.296z"/>
			<path style="fill:#263238;stroke:#263238;stroke-linecap:round;stroke-linejoin:round;stroke-miterlimit:10;" d="M251.965,49.862
				c-0.82,3.826-0.82,6.559-0.82,6.559s-15.85-14.211-21.043-7.925c-5.192,6.285-3.279,9.018-3.279,9.018s-6.559-2.733-7.105-0.82
				c-0.547,1.913-0.82,4.919-0.82,4.919s-29.515,5.739-41.539,12.298c-12.024,6.559-11.205,19.676-11.751,33.614
				s9.018,37.713,9.565,38.533c0.297,0.446,3.263,4.779,6.258,11.36c3.016-6.976,5.621-20.749,8.226-19.012
				c3.279,2.186,10.658,1.913,12.844,0c2.186-1.913-0.547-5.192,1.64-12.298c2.186-7.105,19.13-9.292,21.043-16.67
				c1.913-7.379-4.099-15.85-4.372-19.676c-0.273-3.826,3.279-6.832,23.229-9.838c19.95-3.006,40.993,4.373,40.993,4.373
				s2.46-6.012-12.298-24.049C257.977,42.21,252.784,46.036,251.965,49.862z"/>
			<path style="fill:#BDBDBD;stroke:#263238;stroke-linecap:round;stroke-linejoin:round;stroke-miterlimit:10;" d="
				M195.122,143.324c0,0-7.105-17.763-17.49-18.037c-10.385-0.273-13.118,21.316-11.205,30.061
				c1.913,8.745,12.024,13.937,16.67,14.484c4.646,0.547,9.838-5.192,9.838-5.192"/>
			<path style="fill:#263238;stroke:#263238;stroke-linecap:round;stroke-linejoin:round;stroke-miterlimit:10;" d="
				M233.928,124.741c0,0,4.981-9.519,17.825-9.519c12.844,0,13.118,0.82,12.024-1.64c-1.093-2.46-0.273-3.279-8.199-3.006
				c-7.925,0.273-18.371,3.78-21.104,8.426C231.742,123.648,233.928,124.741,233.928,124.741z"/>
			<path style="fill:#263238;stroke:#263238;stroke-linecap:round;stroke-linejoin:round;stroke-miterlimit:10;" d="
				M277.926,119.822c0,0,7.379-5.466,9.292-5.192c1.913,0.273,1.913,1.913,1.913,3.006c0,1.093,0-0.547-3.006,1.64
				c-3.006,2.186-8.199,6.285-10.658,6.559C273.007,126.108,276.013,122.282,277.926,119.822z"/>
			<path style="fill:none;stroke:#263238;stroke-linecap:round;stroke-linejoin:round;stroke-miterlimit:10;" d="M275.467,125.834
				c0,0-6.832,10.658-5.739,17.49c1.093,6.832,8.745,7.652,9.292,11.478c0.547,3.826,0.547,5.466-2.46,7.652"/>
			<path style="fill:#263238;stroke:#263238;stroke-linecap:round;stroke-linejoin:round;stroke-miterlimit:10;" d="
				M257.157,140.318c0,0-0.273-4.646-6.012-6.012c-5.739-1.366-15.031,3.553-13.937,5.739c1.093,2.186,3.826-1.913,9.565-1.64
				C252.511,138.679,257.157,142.505,257.157,140.318z"/>
			<path style="fill:#263238;stroke:#263238;stroke-linecap:round;stroke-linejoin:round;stroke-miterlimit:10;" d="
				M272.188,141.412c0,0,2.46-4.099,6.012-4.646c3.553-0.547,7.925,3.279,6.559,3.826
				C283.392,141.138,277.926,137.859,272.188,141.412z"/>
			<path style="fill:none;stroke:#263238;stroke-linecap:round;stroke-linejoin:round;stroke-miterlimit:10;" d="M252.963,141.971
				c0,0-6.759-1.69-12.842,1.69"/>
			<path style="fill:none;stroke:#263238;stroke-linecap:round;stroke-linejoin:round;stroke-miterlimit:10;" d="M230.32,146.365
				c0,0,6.083,0,10.815,2.366"/>
			<path style="fill:#263238;stroke:#263238;stroke-linecap:round;stroke-linejoin:round;stroke-miterlimit:10;" d="
				M239.667,204.813c0,0-13.403-3.362-19.148-5.727c-5.745-2.366-11.152-6.083-11.152-6.083s4.396,8.18,7.097,13.856
				c3.671,7.714,20.277,15.208,20.277,15.208L239.667,204.813z"/>
		</g>
		<path style="fill:#E8AA14;stroke:#263238;stroke-linecap:round;stroke-linejoin:round;stroke-miterlimit:10;" d="M185.033,206.521
			c0,0,13.856,21.629,21.629,27.036c7.773,5.407,11.491,6.083,12.842,8.787c1.352,2.704,12.237,30.243,12.237,30.243
			s-8.181-1.517-9.533-3.545c-1.352-2.028-5.069-8.111-5.069-8.111s-3.042,13.856-3.38,19.263c-0.338,5.407-1.014,6.759-3.717,5.069
			c-2.704-1.69-12.842-17.236-25.009-32.106c-12.166-14.87-15.208-26.023-15.208-26.023s8.787-11.828,9.801-14.87
			C180.64,209.225,181.992,204.155,185.033,206.521z"/>
		<path style="fill:none;stroke:#263238;stroke-linecap:round;stroke-linejoin:round;stroke-miterlimit:10;" d="M143.747,404.081
			c-0.976,1.717-1.973,3.35-2.987,4.871"/>
		<path style="fill:none;stroke:#263238;stroke-linecap:round;stroke-linejoin:round;stroke-miterlimit:10;" d="M162.99,355.016
			c0,0-6.886,24.74-16.391,43.708"/>
		<path style="fill:none;stroke:#263238;stroke-linecap:round;stroke-linejoin:round;stroke-miterlimit:10;" d="M146.679,381.095
			c-3.027,8.874-8.137,21.661-15.03,31.138"/>
		<path style="fill:none;stroke:#263238;stroke-linecap:round;stroke-linejoin:round;stroke-miterlimit:10;" d="M149.871,370.687
			c0,0-0.606,2.357-1.777,6.088"/>
		<path style="fill:none;stroke:#263238;stroke-linecap:round;stroke-linejoin:round;stroke-miterlimit:10;" d="M178.661,259.169
			c0,0,4.009,7.653,5.102,27.333"/>
		<g>
			
				<ellipse style="fill:#E8AA14;stroke:#263238;stroke-linecap:round;stroke-linejoin:round;stroke-miterlimit:10;" cx="276.155" cy="188.673" rx="24.671" ry="24.502"/>
			<g>
				<path style="fill:#BDBDBD;stroke:#263238;stroke-linecap:round;stroke-linejoin:round;stroke-miterlimit:10;" d="
					M307.788,176.274c-1.761-1.541-4.853-1.644-4.853-1.644s0.22-3.082-2.642-5.283c-2.858-2.199-9.234-4.427-9.249-4.432
					c-0.198-0.069-1.258-2.138-1.699-2.47c-2.38-1.79-6.953-2.986-9.829-1.949c-1.041,0.376-4.59,4.039-5.418,3.788l6.06,1.837
					c-0.891,4.691-4.216,21.997-6.331,30.222c-2.46,9.565-7.436,14.746-8.801,14.793c-3.163,0.109-5.233-0.015-6.507-0.165
					c-0.917-0.108-1.548-0.968-1.388-1.876c0.37-2.087,0.741-5.984-0.562-9.893c-1.913-5.739-4.878-3.405-5.972,1.787
					c-0.547,2.596-1.92,4.474-2.022,7.07c-0.102,2.596-0.022,4.362-0.432,7.778c-0.82,6.832,0.622,9.105,2.809,11.018
					c2.186,1.913,8.749,2.668,13.395,5.401c4.646,2.733,6.559,7.925,6.559,7.925c1.811,5.48-7.25,34.709-12.383,41.972
					c-6.07,8.589-20.496,31.427-25.962,37.44c-5.466,6.012-10.385,15.031-10.385,15.031l-28.968-25.962
					c0,0-17.465,5.013-29.97,14.392c-12.505,9.379-18.758,15.185-18.758,15.185s34.389,26.35,48.234,35.729
					c13.845,9.379,53.146,23.67,57.613,21.437c4.466-2.233,29.607-53.609,37.962-91.108c10.61-47.62,13.648-60.844,13.648-68.883
					c0-8.039,8.787-29.234,10.499-34.736c1.565-5.032-1.04-9.511-1.46-13.694C310.112,178.365,308.689,177.062,307.788,176.274z"/>
				<path style="fill:none;stroke:#263238;stroke-linecap:round;stroke-linejoin:round;stroke-miterlimit:10;" d="M222.177,334.622
					c0,0-2.974,6.119-1.544,14.982"/>
				<path style="fill:none;stroke:#263238;stroke-linecap:round;stroke-linejoin:round;stroke-miterlimit:10;" d="M291.044,164.914
					c0,0,3.118,2.527,2.902,7.064"/>
				<path style="fill:none;stroke:#263238;stroke-linecap:round;stroke-linejoin:round;stroke-miterlimit:10;" d="M302.935,174.629
					c0,0-0.131,2.101-0.347,4.694"/>
				<polygon style="fill:#263238;stroke:#263238;stroke-linecap:round;stroke-linejoin:round;stroke-miterlimit:10;" points="
					190.95,314.003 153.282,344.545 144.482,338.237 				"/>
				<path style="fill:#E8AA14;stroke:#263238;stroke-linecap:round;stroke-linejoin:round;stroke-miterlimit:10;" d="
					M139.302,242.041c0,0-15.306,5.467-20.773,23.324c-5.466,17.857,8.747,86.371,8.747,86.371s45.19-28.79,55.759-33.164
					c10.569-4.373,13.848-6.56,13.848-6.56s-0.729-4.009-3.28-7.653c-2.551-3.644-4.373-3.28-5.831-5.831
					c-1.458-2.551-9.84-28.79-20.044-41.91"/>
			</g>
		</g>
		
			<line style="fill:#263238;stroke:#263238;stroke-linecap:round;stroke-linejoin:round;stroke-miterlimit:10;" x1="217.139" y1="260.932" x2="218.551" y2="244.938"/>
	</g>
</g>
<g id="Apples">
	<g>
		<g>
			<path style="fill:#BDBDBD;stroke:#263238;stroke-linecap:round;stroke-linejoin:round;stroke-miterlimit:10;" d="
				M382.331,397.559c0,0-6.656-1.664-11.95-1.513c-5.294,0.151-10.437,4.992-12.555,9.227c-2.118,4.236-3.782,9.227-4.235,15.58
				c-0.454,6.353,2.118,13.765,4.387,18.152c2.269,4.387,11.345,11.496,20.875,13.16c9.53,1.664,21.026-3.479,24.959-9.832
				c3.933-6.353,7.563-14.068,6.202-22.992c-1.361-8.925-7.563-16.337-11.647-18.757c-4.084-2.42-9.984-2.572-12.253-2.874
				C383.844,397.407,382.331,397.559,382.331,397.559z"/>
			<path style="fill:#263238;stroke:#263238;stroke-linecap:round;stroke-linejoin:round;stroke-miterlimit:10;" d="
				M382.331,394.331c0,0-6.656-1.664-11.95-1.513c-5.294,0.151-10.437,4.992-12.555,9.227c-2.118,4.236-3.782,9.227-4.235,15.58
				c-0.454,6.353,2.118,13.765,4.387,18.152c2.269,4.387,11.345,11.496,20.875,13.16c9.53,1.664,21.026-3.479,24.959-9.832
				c3.933-6.353,7.563-14.068,6.202-22.992c-1.361-8.925-7.563-16.337-11.647-18.757c-4.084-2.42-9.984-2.572-12.253-2.874
				C383.844,394.179,382.331,394.331,382.331,394.331z"/>
			<path style="fill:#263238;stroke:#263238;stroke-linecap:round;stroke-linejoin:round;stroke-miterlimit:10;" d="
				M380.667,395.441c0,0,1.815,1.966,2.118,3.479c0.303,1.513,0.151,3.177,0.151,3.177l1.664,0.454c0,0,0-5.899-0.756-7.261
				C383.087,393.928,381.423,394.382,380.667,395.441z"/>
			<path style="fill:none;stroke:#263238;stroke-linecap:round;stroke-linejoin:round;stroke-miterlimit:10;" d="M374.012,399.525
				c0,0,3.63,0.302,5.597,1.361c1.966,1.059,6.807,4.084,9.983,2.874c3.177-1.21,3.177-1.966,3.177-1.966"/>
		</g>
		<g>
			<path style="fill:#BDBDBD;stroke:#263238;stroke-linecap:round;stroke-linejoin:round;stroke-miterlimit:10;" d="
				M371.307,362.408c0,0-6.655-4.235-14.371-4.084c-22.518,0.441-39.92,20.508-25.109,45.985c4.677,8.046,18.757,9.53,26.018,9.53
				c7.261,0,20.421-6.353,22.992-20.27C383.408,379.652,380.232,370.727,371.307,362.408z"/>
			<path style="fill:#FFFFFF;" d="M347.893,375.878c0,2.383-1.932,4.315-4.315,4.315c-2.383,0-4.315-1.932-4.315-4.315
				c0-2.383,1.932-4.315,4.315-4.315C345.961,371.563,347.893,373.495,347.893,375.878z"/>
		</g>
		<g>
			<path style="fill:#E8AA14;stroke:#263238;stroke-linecap:round;stroke-linejoin:round;stroke-miterlimit:10;" d="
				M429.695,360.139c0,0-10.286-5.446-12.858-6.656c-2.572-1.21-8.925-4.841-18.606,0.454c-9.325,5.1-12.555,22.69-10.74,33.43
				c1.815,10.74,14.521,17.396,19.362,18.454c4.841,1.059,5.899,1.059,5.899,1.059s4.992,3.933,13.311,2.723
				c8.32-1.21,17.547-16.79,18.152-25.715c0.605-8.925-1.664-15.429-5.899-18.454C434.082,362.408,429.695,360.139,429.695,360.139z
				"/>
			<path style="fill:#263238;stroke:#263238;stroke-linecap:round;stroke-linejoin:round;stroke-miterlimit:10;" d="
				M407.689,373.005c0,0,6.008,8.297,7.725,22.316l-6.008-0.858L407.689,373.005z"/>
			<path style="fill:#263238;stroke:#263238;stroke-linecap:round;stroke-linejoin:round;stroke-miterlimit:10;" d="
				M422.132,355.903c0,0,0-6.353-0.756-8.925c-0.756-2.571-1.664-4.992-0.454-4.992c1.21,0,1.966,2.874,2.118,5.143
				c0.151,2.269,0.756,9.984,0.756,9.984L422.132,355.903z"/>
		</g>
		<path style="fill:#E8AA14;stroke:#263238;stroke-linecap:round;stroke-linejoin:round;stroke-miterlimit:10;" d="M358.903,396.745
			c0,0-4.084-2.118-6.353-3.479c-2.269-1.361-11.496-2.269-17.395,1.059c-5.899,3.328-8.32,9.53-9.984,18.606
			c-1.664,9.076,0.454,19.816,4.387,26.623c3.933,6.807,11.799,7.715,14.522,7.412c2.723-0.302,4.84-0.454,4.84-0.454
			s8.773,3.782,13.916,2.42c5.143-1.361,8.168-2.572,14.219-12.858c6.051-10.286,7.261-21.177,5.597-26.925
			c-1.664-5.748-9.53-9.076-14.219-10.437c-4.689-1.361-4.689-1.361-4.689-1.361L358.903,396.745z"/>
		<g>
			<g>
				<path style="fill:#E8AA14;stroke:#263238;stroke-linecap:round;stroke-linejoin:round;stroke-miterlimit:10;" d="
					M411.392,395.232c0,0,20.875,3.025,26.32,8.017c5.445,4.992,8.471,17.396,3.025,30.858
					c-5.446,13.463-13.009,19.816-20.572,20.118c-7.563,0.303-12.706-3.176-15.126-3.63c-2.42-0.454-8.471,0.302-12.706-2.269
					c-4.235-2.572-6.807-3.933-9.832-14.219c-3.025-10.286-1.059-21.631,1.967-29.043
					C387.492,397.652,397.778,389.635,411.392,395.232z"/>
				<path style="fill:#263238;stroke:#263238;stroke-linecap:round;stroke-linejoin:round;stroke-miterlimit:10;" d="
					M420.771,396.896c0,0,6.353-11.345,7.261-13.311c0.908-1.966,2.874-2.874,2.572-1.361c-0.303,1.513-8.622,14.975-8.622,14.975
					L420.771,396.896z"/>
			</g>
			<path style="fill:#263238;stroke:#263238;stroke-linecap:round;stroke-linejoin:round;stroke-miterlimit:10;" d="
				M368.475,410.262c0,0,10.977,5.322,11.975,16.632c0,0,15.634-0.998,23.95-12.308c8.316-11.31,10.312-17.297,10.312-17.297
				l-10.312-1.996C404.4,395.293,380.45,383.318,368.475,410.262z"/>
		</g>
		<g>
			<path style="fill:#BDBDBD;stroke:#263238;stroke-linecap:round;stroke-linejoin:round;stroke-miterlimit:10;" d="
				M383.559,361.197c0,0-6.656-1.664-11.95-1.513c-5.294,0.151-10.437,4.992-12.555,9.227c-2.118,4.235-3.782,9.227-4.235,15.58
				c-0.454,6.353,2.118,13.765,4.387,18.152c2.269,4.387,11.345,11.496,20.875,13.16c9.53,1.664,21.026-3.479,24.959-9.832
				c3.933-6.353,7.563-14.068,6.202-22.992c-1.361-8.925-7.563-16.337-11.647-18.757c-4.084-2.42-9.984-2.571-12.253-2.874
				C385.072,361.046,383.559,361.197,383.559,361.197z"/>
			<circle style="fill:#FFFFFF;" cx="374.122" cy="377.591" r="7.024"/>
			<path style="fill:#263238;stroke:#263238;stroke-linecap:round;stroke-linejoin:round;stroke-miterlimit:10;" d="M381.896,359.08
				c0,0,1.815,1.966,2.118,3.479c0.302,1.513,0.151,3.177,0.151,3.177l1.664,0.454c0,0,0-5.899-0.756-7.261
				C384.316,357.567,382.652,358.021,381.896,359.08z"/>
			<path style="fill:none;stroke:#263238;stroke-linecap:round;stroke-linejoin:round;stroke-miterlimit:10;" d="M375.24,363.164
				c0,0,3.63,0.302,5.597,1.361c1.966,1.059,6.807,4.084,9.983,2.874c3.177-1.21,3.177-1.966,3.177-1.966"/>
		</g>
		<g>
			<path style="fill:none;stroke:#263238;stroke-linecap:round;stroke-linejoin:round;stroke-miterlimit:10;" d="M406.925,467.098
				c25.726-8.469,44.141-31.11,44.141-57.722c0-0.236-0.016-0.469-0.019-0.704H318.034c-0.003,0.236-0.019,0.468-0.019,0.704
				c0,26.611,18.414,49.253,44.14,57.722H406.925z"/>
			<g>
				<path style="fill:none;stroke:#263238;stroke-linecap:round;stroke-linejoin:round;stroke-miterlimit:10;" d="M419.359,458.551
					c14.936-10.247,25.046-26.13,26.614-44.233"/>
				<path style="fill:none;stroke:#263238;stroke-linecap:round;stroke-linejoin:round;stroke-miterlimit:10;" d="M408.352,464.676
					c2.002-0.883,3.949-1.856,5.835-2.913"/>
			</g>
			<path style="fill:none;stroke:#263238;stroke-linecap:round;stroke-linejoin:round;stroke-miterlimit:10;" d="M405.63,470.242
				h-41.903c-0.868,0-1.572-0.704-1.572-1.572l0,0c0-0.868,0.704-1.572,1.572-1.572h41.903c0.868,0,1.572,0.704,1.572,1.572l0,0
				C407.202,469.539,406.499,470.242,405.63,470.242z"/>
		</g>
		<g>
			<path style="fill:#BDBDBD;stroke:#263238;stroke-linecap:round;stroke-linejoin:round;stroke-miterlimit:10;" d="
				M306.905,421.802c0,0-10.854-0.938-14.606-1.608c-3.752-0.67-11.256,1.206-15.678,6.834c-4.422,5.628-5.494,16.616-1.742,27.873
				c3.752,11.256,12.462,15.142,21.307,15.812c8.844,0.67,16.884,1.072,21.977-2.814c5.092-3.886,11.02-12.434,9.514-26.667
				c-1.114-10.531-4.69-15.813-9.514-18.359C313.337,420.328,306.905,421.802,306.905,421.802z"/>
			<path style="fill:#263238;stroke:#263238;stroke-linecap:round;stroke-linejoin:round;stroke-miterlimit:10;" d="
				M298.865,420.864c0,0-2.144-5.628-4.69-9.782c-2.546-4.154-4.422-7.37-4.288-7.772c0.134-0.402,0.804-1.608,1.876-0.134
				c1.072,1.474,5.762,9.916,6.432,12.462c0.67,2.546,2.412,5.494,2.412,5.494L298.865,420.864z"/>
			<path style="fill:#FFFFFF;" d="M297.534,433.979c0,2.383-1.932,4.315-4.315,4.315c-2.383,0-4.315-1.932-4.315-4.315
				c0-2.383,1.932-4.315,4.315-4.315C295.602,429.664,297.534,431.596,297.534,433.979z"/>
		</g>
	</g>
</g>
<g id="Table_00000111883719889773694970000016900999423542042298_">
	
		<line style="fill:none;stroke:#263238;stroke-linecap:round;stroke-linejoin:round;stroke-miterlimit:10;" x1="8.809" y1="470.404" x2="473.744" y2="470.404"/>
</g>
</svg>
