<?xml version="1.0" encoding="utf-8"?>
<!-- Generator: Adobe Illustrator 27.5.0, SVG Export Plug-In . SVG Version: 6.00 Build 0)  -->
<svg version="1.1" xmlns="http://www.w3.org/2000/svg" xmlns:xlink="http://www.w3.org/1999/xlink" x="0px" y="0px"
	 viewBox="0 0 500 500" style="enable-background:new 0 0 500 500;" xml:space="preserve">
<g id="Background_Simple">
	<g>
		<path style="fill:#E8AA14;" d="M437.397,308.598c0,0,51.096-57.415,34.851-157.332C456.002,51.348,372.579,14.542,317.219,33.778
			c-55.36,19.236-67.813,52.695-113.031,71.843S73.125,111.61,30.179,175.904c-42.945,64.294,11.876,170.828,81.668,237.629
			C181.639,480.333,359.8,438.503,437.397,308.598z"/>
		<path style="opacity:0.8;fill:#FFFFFF;" d="M437.397,308.598c0,0,51.096-57.415,34.851-157.332
			C456.002,51.348,372.579,14.542,317.219,33.778c-55.36,19.236-67.813,52.695-113.031,71.843S73.125,111.61,30.179,175.904
			c-42.945,64.294,11.876,170.828,81.668,237.629C181.639,480.333,359.8,438.503,437.397,308.598z"/>
	</g>
</g>
<g id="Clouds">
	<path style="fill:none;stroke:#263238;stroke-linecap:round;stroke-miterlimit:10;" d="M335.608,63.328
		c0,0-3.264-8.703-10.879-10.335c-7.615-1.632-10.606,2.992-12.238,6.799c-1.632,3.807-6.527,0.816-10.607,0.272
		s-6.255,3.535-7.071,6.527c-0.816,2.992-5.983-1.36-10.607,1.36c-4.623,2.72-5.439,6.255-6.527,7.071
		c-1.088,0.816-4.079-0.544-5.711,1.632c-1.632,2.176-1.632,2.176-1.632,2.176h85.124c0,0,2.72-6.255-2.448-10.879
		C347.846,63.328,338.872,70.399,335.608,63.328z"/>
	<path style="fill:none;stroke:#263238;stroke-linecap:round;stroke-miterlimit:10;" d="M120.793,86.34
		c0,0-3.264-8.703-10.879-10.335c-7.615-1.632-10.606,2.992-12.238,6.799c-1.632,3.807-6.527,0.816-10.606,0.272
		c-4.079-0.544-6.255,3.535-7.071,6.527c-0.816,2.992-5.983-1.36-10.606,1.36c-4.623,2.72-5.439,6.255-6.527,7.071
		c-1.088,0.816-4.079-0.544-5.711,1.632c-1.632,2.176-1.632,2.176-1.632,2.176h85.124c0,0,2.72-6.255-2.448-10.879
		C133.031,86.34,124.056,93.411,120.793,86.34z"/>
	<path style="fill:none;stroke:#263238;stroke-linecap:round;stroke-miterlimit:10;" d="M393.397,105.419
		c0,0-5.725-15.266-19.083-18.128c-13.358-2.862-18.605,5.248-21.468,11.927c-2.862,6.679-11.449,1.431-18.605,0.477
		c-7.156-0.954-10.972,6.202-12.404,11.45c-1.431,5.248-10.495-2.385-18.605,2.385c-8.11,4.771-9.541,10.972-11.449,12.404
		c-1.908,1.431-7.156-0.954-10.018,2.862c-2.862,3.816-2.862,3.816-2.862,3.816h149.321c0,0,4.771-10.972-4.294-19.083
		C414.865,105.419,399.122,117.822,393.397,105.419z"/>
</g>
<g id="Plants">
	<g>
		<path style="fill:#263238;" d="M458.338,431.899c0.018,0.015,0.607-1.459,0.634-1.556c0.306-1.126,0.236-3.48-0.859-4.193
			c-0.788-0.514-1.791-0.145-2.205,0.657c-0.423,0.82-0.161,1.925,0.216,2.711C456.566,430.44,458.336,431.898,458.338,431.899z"/>
		<path style="fill:#263238;" d="M435.397,428.455c0.878,0.525,3.159,0.765,3.161,0.765c0.024,0.003-0.298-1.551-0.33-1.647
			c-0.366-1.108-1.723-3.033-3.029-3.024c-0.941,0.007-1.574,0.867-1.476,1.764C433.821,427.23,434.649,428.008,435.397,428.455z"/>
		<path style="fill:#263238;" d="M435.339,435.144c0.946,0.264,3.052-0.065,3.219-0.092c0.175,1.177,0.45,2.371,0.795,3.564
			c0.196,0.682,0.415,1.363,0.644,2.043c-0.15-0.295-0.287-0.557-0.31-0.592c-0.645-0.972-2.463-2.471-3.72-2.117
			c-0.906,0.255-1.289,1.251-0.958,2.091c0.338,0.858,1.342,1.389,2.181,1.624c0.852,0.237,2.652-0.007,3.128-0.078
			c0.09,0.26,0.177,0.521,0.269,0.78c0.438,1.246,0.881,2.487,1.277,3.717c0.14,0.434,0.262,0.866,0.386,1.297
			c-0.134-0.262-0.249-0.481-0.27-0.513c-0.645-0.972-2.463-2.471-3.72-2.117c-0.906,0.255-1.289,1.251-0.958,2.092
			c0.338,0.858,1.342,1.389,2.181,1.623c0.813,0.227,2.477,0.016,3.042-0.066c0.113,0.446,0.228,0.893,0.317,1.33
			c0.054,0.3,0.128,0.585,0.165,0.89c0.044,0.301,0.087,0.598,0.13,0.893c0.062,0.571,0.129,1.159,0.176,1.717
			c0.035,0.388,0.062,0.758,0.089,1.131c-0.134-0.433-0.415-1.276-0.447-1.343c-0.49-1.059-2.06-2.815-3.357-2.656
			c-0.934,0.115-1.464,1.042-1.264,1.922c0.204,0.899,1.116,1.577,1.91,1.935c0.874,0.395,2.922,0.398,3.177,0.397
			c0.044,0.617,0.08,1.219,0.106,1.786c0.074,1.557,0.09,2.906,0.087,3.971h0.861c-0.02-1.078-0.067-2.442-0.175-4.016
			c-0.042-0.627-0.099-1.297-0.164-1.983c0.159-0.041,1.063-0.278,1.878-0.606c0.571,0.803,2.163,1.861,2.369,1.996
			c-0.304,0.539-0.605,1.061-0.897,1.548c-0.711,1.193-1.367,2.223-1.92,3.061h1.005c0.475-0.767,1.012-1.662,1.584-2.672
			c0.311-0.546,0.633-1.136,0.957-1.745c0.237,0.082,2.18,0.743,3.136,0.652c0.867-0.083,1.949-0.429,2.433-1.214
			c0.474-0.769,0.272-1.817-0.575-2.228c-1.176-0.57-3.229,0.585-4.035,1.428c-0.048,0.05-0.503,0.647-0.785,1.029
			c0.131-0.25,0.261-0.49,0.393-0.749c0.264-0.509,0.513-1.025,0.783-1.579c0.121-0.272,0.243-0.547,0.366-0.825
			c0.128-0.273,0.229-0.577,0.346-0.868c0.257-0.68,0.484-1.382,0.697-2.094c0.447,0.23,2.044,1.026,2.918,1.076
			c0.87,0.05,1.992-0.129,2.589-0.831c0.585-0.688,0.544-1.755-0.231-2.289c-1.076-0.741-3.28,0.089-4.205,0.801
			c-0.058,0.044-0.664,0.629-0.99,0.957c0.125-0.429,0.251-0.857,0.363-1.294c0.324-1.264,0.612-2.554,0.906-3.84
			c0.09-0.394,0.184-0.785,0.276-1.177c0.158,0.084,2.036,1.07,3.015,1.126c0.87,0.05,1.992-0.129,2.589-0.831
			c0.585-0.688,0.544-1.755-0.231-2.289c-1.076-0.741-3.28,0.089-4.205,0.801c-0.07,0.054-0.94,0.897-1.151,1.122
			c0.205-0.863,0.416-1.722,0.659-2.56c0.334-1.157,0.726-2.273,1.185-3.326c0.074,0.039,2.029,1.078,3.031,1.135
			c0.87,0.05,1.992-0.129,2.589-0.831c0.585-0.688,0.544-1.755-0.231-2.289c-1.076-0.741-3.28,0.089-4.205,0.801
			c-0.061,0.047-0.725,0.688-1.033,1.001c-0.034-0.023-0.028-0.019-0.062-0.043c0.506-1.122,1.137-2.146,1.775-3.075
			c0.368-0.539,0.751-1.033,1.134-1.506c0.344,0.231,1.93,1.268,2.826,1.419c0.859,0.145,1.994,0.091,2.665-0.542
			c0.657-0.62,0.734-1.685,0.022-2.301c-0.988-0.855-3.27-0.271-4.267,0.334c-0.054,0.033-0.569,0.429-0.939,0.722
			c0.176-0.211,0.354-0.431,0.526-0.63c0.647-0.747,1.284-1.391,1.854-1.957c0.327-0.319,0.628-0.601,0.913-0.862
			c0.456,0.05,2.297,0.229,3.147-0.045c0.829-0.267,1.811-0.838,2.115-1.709c0.297-0.853-0.125-1.833-1.041-2.052
			c-1.271-0.303-3.027,1.266-3.634,2.263c-0.052,0.086-0.716,1.527-0.693,1.53c0,0,0.022,0.002,0.028,0.003
			c-0.279,0.246-0.576,0.512-0.894,0.81c-0.583,0.555-1.237,1.187-1.902,1.922c-0.667,0.733-1.37,1.549-2.034,2.475
			c-0.667,0.927-1.32,1.937-1.859,3.064c-0.006,0.013-0.011,0.027-0.017,0.04c0.055-0.379,0.174-1.443,0.174-1.526
			c-0.002-1.166-0.691-3.419-1.935-3.818c-0.896-0.287-1.766,0.333-1.953,1.216c-0.191,0.902,0.353,1.899,0.924,2.557
			c0.644,0.742,2.581,1.629,2.736,1.699c-0.504,1.078-0.932,2.226-1.303,3.411c-0.212,0.677-0.405,1.366-0.59,2.059
			c0.037-0.329,0.068-0.623,0.068-0.665c-0.002-1.167-0.691-3.419-1.935-3.818c-0.896-0.287-1.766,0.333-1.953,1.216
			c-0.192,0.902,0.353,1.899,0.924,2.557c0.579,0.668,2.216,1.457,2.651,1.66c-0.068,0.267-0.139,0.532-0.206,0.799
			c-0.322,1.28-0.637,2.56-0.985,3.805c-0.122,0.439-0.259,0.867-0.394,1.295c0.033-0.292,0.058-0.539,0.058-0.577
			c-0.002-1.167-0.691-3.419-1.935-3.818c-0.896-0.287-1.766,0.332-1.953,1.216c-0.191,0.902,0.353,1.899,0.924,2.557
			c0.553,0.638,2.057,1.38,2.573,1.623c-0.152,0.434-0.303,0.87-0.47,1.284c-0.12,0.28-0.216,0.559-0.353,0.833
			c-0.129,0.275-0.257,0.547-0.384,0.816c-0.263,0.51-0.531,1.038-0.801,1.529c-0.185,0.343-0.367,0.667-0.55,0.993
			c0.127-0.436,0.358-1.293,0.369-1.367c0.116-0.766,0.003-2.051-0.428-2.999c0.018-0.113,0.026-0.227,0.022-0.342
			c-0.029-0.902-0.776-1.666-1.709-1.541c-1.295,0.173-2.37,2.269-2.577,3.417c-0.012,0.068-0.063,0.817-0.087,1.291
			c-0.028-0.281-0.052-0.553-0.085-0.841c-0.06-0.571-0.137-1.138-0.218-1.749c-0.049-0.294-0.099-0.59-0.15-0.89
			c-0.043-0.298-0.128-0.608-0.19-0.915c-0.161-0.709-0.359-1.419-0.574-2.131c0.5-0.054,2.271-0.272,3.027-0.712
			c0.753-0.438,1.59-1.206,1.701-2.121c0.108-0.896-0.514-1.764-1.455-1.782c-1.306-0.025-2.687,1.884-3.066,2.988
			c-0.024,0.069-0.206,0.891-0.298,1.345c-0.133-0.427-0.263-0.853-0.411-1.28c-0.427-1.233-0.898-2.468-1.363-3.702
			c-0.142-0.378-0.28-0.756-0.419-1.134c0.178-0.017,2.289-0.231,3.136-0.724c0.753-0.438,1.59-1.206,1.701-2.122
			c0.108-0.896-0.514-1.764-1.455-1.782c-1.306-0.025-2.687,1.884-3.065,2.987c-0.028,0.083-0.29,1.267-0.341,1.571
			c-0.306-0.833-0.603-1.666-0.862-2.499c-0.36-1.149-0.649-2.296-0.847-3.428c0.083-0.008,2.287-0.221,3.155-0.726
			c0.753-0.438,1.59-1.206,1.701-2.122c0.108-0.896-0.514-1.764-1.455-1.782c-1.306-0.025-2.687,1.884-3.065,2.987
			c-0.025,0.073-0.225,0.975-0.31,1.405c-0.041-0.001-0.034-0.001-0.074-0.001c-0.198-1.216-0.236-2.418-0.216-3.545
			c0.01-0.653,0.056-1.276,0.115-1.882c0.415,0.003,2.309-0.007,3.14-0.375c0.797-0.353,1.713-1.024,1.924-1.922
			c0.206-0.879-0.318-1.81-1.251-1.931c-1.295-0.168-2.877,1.578-3.375,2.633c-0.027,0.057-0.238,0.671-0.385,1.12
			c0.031-0.273,0.057-0.555,0.092-0.816c0.127-0.98,0.304-1.869,0.467-2.655c0.096-0.447,0.192-0.848,0.286-1.223
			c0.408-0.21,2.042-1.076,2.6-1.773c0.544-0.68,1.049-1.698,0.822-2.592c-0.222-0.875-1.116-1.46-2-1.137
			c-1.227,0.448-1.826,2.726-1.782,3.892c0.004,0.101,0.245,1.669,0.267,1.659c0,0,0.02-0.01,0.025-0.013
			c-0.097,0.359-0.198,0.745-0.299,1.169c-0.18,0.784-0.377,1.672-0.526,2.653c-0.151,0.979-0.288,2.048-0.331,3.187
			c-0.044,1.141-0.033,2.344,0.14,3.582c0.002,0.014,0.006,0.028,0.008,0.042c-0.163-0.346-0.651-1.299-0.696-1.368
			c-0.645-0.972-2.463-2.471-3.72-2.117c-0.906,0.255-1.289,1.251-0.958,2.092C433.496,434.378,434.5,434.91,435.339,435.144z"/>
		<path style="opacity:0.3;fill:#263238;" d="M435.397,428.455c0.878,0.525,3.159,0.765,3.161,0.765
			c0.024,0.003-0.298-1.551-0.33-1.647c-0.366-1.108-1.723-3.033-3.029-3.024c-0.941,0.007-1.574,0.867-1.476,1.764
			C433.821,427.23,434.649,428.008,435.397,428.455z"/>
		<path style="opacity:0.3;fill:#263238;" d="M458.338,431.899c0.018,0.015,0.607-1.459,0.634-1.556
			c0.306-1.126,0.236-3.48-0.859-4.193c-0.788-0.514-1.791-0.145-2.205,0.657c-0.423,0.82-0.161,1.925,0.216,2.711
			C456.566,430.44,458.336,431.898,458.338,431.899z"/>
		<path style="opacity:0.3;fill:#263238;" d="M435.339,435.144c0.946,0.264,3.052-0.065,3.219-0.092
			c0.175,1.177,0.45,2.371,0.795,3.564c0.196,0.682,0.415,1.363,0.644,2.043c-0.15-0.295-0.287-0.557-0.31-0.592
			c-0.645-0.972-2.463-2.471-3.72-2.117c-0.906,0.255-1.289,1.251-0.958,2.091c0.338,0.858,1.342,1.389,2.181,1.624
			c0.852,0.237,2.652-0.007,3.128-0.078c0.09,0.26,0.177,0.521,0.269,0.78c0.438,1.246,0.881,2.487,1.277,3.717
			c0.14,0.434,0.262,0.866,0.386,1.297c-0.134-0.262-0.249-0.481-0.27-0.513c-0.645-0.972-2.463-2.471-3.72-2.117
			c-0.906,0.255-1.289,1.251-0.958,2.092c0.338,0.858,1.342,1.389,2.181,1.623c0.813,0.227,2.477,0.016,3.042-0.066
			c0.113,0.446,0.228,0.893,0.317,1.33c0.054,0.3,0.128,0.585,0.165,0.89c0.044,0.301,0.087,0.598,0.13,0.893
			c0.062,0.571,0.129,1.159,0.176,1.717c0.035,0.388,0.062,0.758,0.089,1.131c-0.134-0.433-0.415-1.276-0.447-1.343
			c-0.49-1.059-2.06-2.815-3.357-2.656c-0.934,0.115-1.464,1.042-1.264,1.922c0.204,0.899,1.116,1.577,1.91,1.935
			c0.874,0.395,2.922,0.398,3.177,0.397c0.044,0.617,0.08,1.219,0.106,1.786c0.074,1.557,0.09,2.906,0.087,3.971h0.861
			c-0.02-1.078-0.067-2.442-0.175-4.016c-0.042-0.627-0.099-1.297-0.164-1.983c0.159-0.041,1.063-0.278,1.878-0.606
			c0.571,0.803,2.163,1.861,2.369,1.996c-0.304,0.539-0.605,1.061-0.897,1.548c-0.711,1.193-1.367,2.223-1.92,3.061h1.005
			c0.475-0.767,1.012-1.662,1.584-2.672c0.311-0.546,0.633-1.136,0.957-1.745c0.237,0.082,2.18,0.743,3.136,0.652
			c0.867-0.083,1.949-0.429,2.433-1.214c0.474-0.769,0.272-1.817-0.575-2.228c-1.176-0.57-3.229,0.585-4.035,1.428
			c-0.048,0.05-0.503,0.647-0.785,1.029c0.131-0.25,0.261-0.49,0.393-0.749c0.264-0.509,0.513-1.025,0.783-1.579
			c0.121-0.272,0.243-0.547,0.366-0.825c0.128-0.273,0.229-0.577,0.346-0.868c0.257-0.68,0.484-1.382,0.697-2.094
			c0.447,0.23,2.044,1.026,2.918,1.076c0.87,0.05,1.992-0.129,2.589-0.831c0.585-0.688,0.544-1.755-0.231-2.289
			c-1.076-0.741-3.28,0.089-4.205,0.801c-0.058,0.044-0.664,0.629-0.99,0.957c0.125-0.429,0.251-0.857,0.363-1.294
			c0.324-1.264,0.612-2.554,0.906-3.84c0.09-0.394,0.184-0.785,0.276-1.177c0.158,0.084,2.036,1.07,3.015,1.126
			c0.87,0.05,1.992-0.129,2.589-0.831c0.585-0.688,0.544-1.755-0.231-2.289c-1.076-0.741-3.28,0.089-4.205,0.801
			c-0.07,0.054-0.94,0.897-1.151,1.122c0.205-0.863,0.416-1.722,0.659-2.56c0.334-1.157,0.726-2.273,1.185-3.326
			c0.074,0.039,2.029,1.078,3.031,1.135c0.87,0.05,1.992-0.129,2.589-0.831c0.585-0.688,0.544-1.755-0.231-2.289
			c-1.076-0.741-3.28,0.089-4.205,0.801c-0.061,0.047-0.725,0.688-1.033,1.001c-0.034-0.023-0.028-0.019-0.062-0.043
			c0.506-1.122,1.137-2.146,1.775-3.075c0.368-0.539,0.751-1.033,1.134-1.506c0.344,0.231,1.93,1.268,2.826,1.419
			c0.859,0.145,1.994,0.091,2.665-0.542c0.657-0.62,0.734-1.685,0.022-2.301c-0.988-0.855-3.27-0.271-4.267,0.334
			c-0.054,0.033-0.569,0.429-0.939,0.722c0.176-0.211,0.354-0.431,0.526-0.63c0.647-0.747,1.284-1.391,1.854-1.957
			c0.327-0.319,0.628-0.601,0.913-0.862c0.456,0.05,2.297,0.229,3.147-0.045c0.829-0.267,1.811-0.838,2.115-1.709
			c0.297-0.853-0.125-1.833-1.041-2.052c-1.271-0.303-3.027,1.266-3.634,2.263c-0.052,0.086-0.716,1.527-0.693,1.53
			c0,0,0.022,0.002,0.028,0.003c-0.279,0.246-0.576,0.512-0.894,0.81c-0.583,0.555-1.237,1.187-1.902,1.922
			c-0.667,0.733-1.37,1.549-2.034,2.475c-0.667,0.927-1.32,1.937-1.859,3.064c-0.006,0.013-0.011,0.027-0.017,0.04
			c0.055-0.379,0.174-1.443,0.174-1.526c-0.002-1.166-0.691-3.419-1.935-3.818c-0.896-0.287-1.766,0.333-1.953,1.216
			c-0.191,0.902,0.353,1.899,0.924,2.557c0.644,0.742,2.581,1.629,2.736,1.699c-0.504,1.078-0.932,2.226-1.303,3.411
			c-0.212,0.677-0.405,1.366-0.59,2.059c0.037-0.329,0.068-0.623,0.068-0.665c-0.002-1.167-0.691-3.419-1.935-3.818
			c-0.896-0.287-1.766,0.333-1.953,1.216c-0.192,0.902,0.353,1.899,0.924,2.557c0.579,0.668,2.216,1.457,2.651,1.66
			c-0.068,0.267-0.139,0.532-0.206,0.799c-0.322,1.28-0.637,2.56-0.985,3.805c-0.122,0.439-0.259,0.867-0.394,1.295
			c0.033-0.292,0.058-0.539,0.058-0.577c-0.002-1.167-0.691-3.419-1.935-3.818c-0.896-0.287-1.766,0.332-1.953,1.216
			c-0.191,0.902,0.353,1.899,0.924,2.557c0.553,0.638,2.057,1.38,2.573,1.623c-0.152,0.434-0.303,0.87-0.47,1.284
			c-0.12,0.28-0.216,0.559-0.353,0.833c-0.129,0.275-0.257,0.547-0.384,0.816c-0.263,0.51-0.531,1.038-0.801,1.529
			c-0.185,0.343-0.367,0.667-0.55,0.993c0.127-0.436,0.358-1.293,0.369-1.367c0.116-0.766,0.003-2.051-0.428-2.999
			c0.018-0.113,0.026-0.227,0.022-0.342c-0.029-0.902-0.776-1.666-1.709-1.541c-1.295,0.173-2.37,2.269-2.577,3.417
			c-0.012,0.068-0.063,0.817-0.087,1.291c-0.028-0.281-0.052-0.553-0.085-0.841c-0.06-0.571-0.137-1.138-0.218-1.749
			c-0.049-0.294-0.099-0.59-0.15-0.89c-0.043-0.298-0.128-0.608-0.19-0.915c-0.161-0.709-0.359-1.419-0.574-2.131
			c0.5-0.054,2.271-0.272,3.027-0.712c0.753-0.438,1.59-1.206,1.701-2.121c0.108-0.896-0.514-1.764-1.455-1.782
			c-1.306-0.025-2.687,1.884-3.066,2.988c-0.024,0.069-0.206,0.891-0.298,1.345c-0.133-0.427-0.263-0.853-0.411-1.28
			c-0.427-1.233-0.898-2.468-1.363-3.702c-0.142-0.378-0.28-0.756-0.419-1.134c0.178-0.017,2.289-0.231,3.136-0.724
			c0.753-0.438,1.59-1.206,1.701-2.122c0.108-0.896-0.514-1.764-1.455-1.782c-1.306-0.025-2.687,1.884-3.065,2.987
			c-0.028,0.083-0.29,1.267-0.341,1.571c-0.306-0.833-0.603-1.666-0.862-2.499c-0.36-1.149-0.649-2.296-0.847-3.428
			c0.083-0.008,2.287-0.221,3.155-0.726c0.753-0.438,1.59-1.206,1.701-2.122c0.108-0.896-0.514-1.764-1.455-1.782
			c-1.306-0.025-2.687,1.884-3.065,2.987c-0.025,0.073-0.225,0.975-0.31,1.405c-0.041-0.001-0.034-0.001-0.074-0.001
			c-0.198-1.216-0.236-2.418-0.216-3.545c0.01-0.653,0.056-1.276,0.115-1.882c0.415,0.003,2.309-0.007,3.14-0.375
			c0.797-0.353,1.713-1.024,1.924-1.922c0.206-0.879-0.318-1.81-1.251-1.931c-1.295-0.168-2.877,1.578-3.375,2.633
			c-0.027,0.057-0.238,0.671-0.385,1.12c0.031-0.273,0.057-0.555,0.092-0.816c0.127-0.98,0.304-1.869,0.467-2.655
			c0.096-0.447,0.192-0.848,0.286-1.223c0.408-0.21,2.042-1.076,2.6-1.773c0.544-0.68,1.049-1.698,0.822-2.592
			c-0.222-0.875-1.116-1.46-2-1.137c-1.227,0.448-1.826,2.726-1.782,3.892c0.004,0.101,0.245,1.669,0.267,1.659
			c0,0,0.02-0.01,0.025-0.013c-0.097,0.359-0.198,0.745-0.299,1.169c-0.18,0.784-0.377,1.672-0.526,2.653
			c-0.151,0.979-0.288,2.048-0.331,3.187c-0.044,1.141-0.033,2.344,0.14,3.582c0.002,0.014,0.006,0.028,0.008,0.042
			c-0.163-0.346-0.651-1.299-0.696-1.368c-0.645-0.972-2.463-2.471-3.72-2.117c-0.906,0.255-1.289,1.251-0.958,2.092
			C433.496,434.378,434.5,434.91,435.339,435.144z"/>
	</g>
	<g>
		<path style="fill:#263238;" d="M67.947,432.399c-0.018,0.015-0.596-1.433-0.623-1.529c-0.301-1.106-0.232-3.419,0.843-4.12
			c0.775-0.505,1.759-0.143,2.166,0.645c0.415,0.805,0.158,1.891-0.212,2.663C69.688,430.965,67.949,432.398,67.947,432.399z"/>
		<path style="fill:#263238;" d="M90.486,429.015c-0.862,0.516-3.104,0.752-3.105,0.752c-0.023,0.002,0.293-1.524,0.324-1.618
			c0.359-1.088,1.693-2.98,2.976-2.971c0.925,0.007,1.546,0.852,1.451,1.733C92.034,427.812,91.22,428.576,90.486,429.015z"/>
		<path style="fill:#263238;" d="M90.543,435.586c-0.93,0.259-2.998-0.064-3.163-0.09c-0.172,1.157-0.442,2.329-0.781,3.501
			c-0.193,0.67-0.408,1.339-0.632,2.007c0.148-0.29,0.282-0.548,0.305-0.582c0.634-0.955,2.42-2.427,3.655-2.08
			c0.89,0.25,1.267,1.229,0.941,2.055c-0.332,0.843-1.318,1.365-2.143,1.595c-0.837,0.233-2.605-0.007-3.073-0.077
			c-0.089,0.255-0.174,0.512-0.264,0.767c-0.43,1.223-0.865,2.443-1.255,3.652c-0.138,0.426-0.258,0.85-0.379,1.275
			c0.132-0.257,0.245-0.473,0.265-0.504c0.634-0.955,2.42-2.427,3.655-2.08c0.89,0.25,1.267,1.23,0.941,2.055
			c-0.332,0.843-1.318,1.365-2.143,1.595c-0.798,0.223-2.433,0.016-2.989-0.065c-0.111,0.438-0.224,0.877-0.312,1.307
			c-0.053,0.295-0.126,0.575-0.163,0.874c-0.043,0.295-0.086,0.588-0.128,0.877c-0.061,0.56-0.127,1.139-0.173,1.687
			c-0.035,0.381-0.061,0.745-0.088,1.111c0.132-0.426,0.408-1.253,0.439-1.32c0.482-1.04,2.024-2.766,3.298-2.609
			c0.918,0.113,1.438,1.023,1.242,1.888c-0.201,0.884-1.096,1.549-1.877,1.901c-0.859,0.388-2.87,0.391-3.121,0.39
			c-0.043,0.607-0.079,1.197-0.104,1.755c-0.072,1.53-0.089,2.855-0.086,3.901h-0.846c0.02-1.059,0.066-2.399,0.172-3.945
			c0.041-0.616,0.097-1.274,0.161-1.948c-0.156-0.04-1.044-0.273-1.846-0.596c-0.561,0.789-2.125,1.828-2.328,1.961
			c0.299,0.53,0.594,1.042,0.881,1.521c0.698,1.172,1.343,2.184,1.886,3.007h-0.988c-0.466-0.753-0.994-1.633-1.556-2.625
			c-0.306-0.536-0.622-1.116-0.94-1.714c-0.233,0.081-2.142,0.729-3.081,0.64c-0.852-0.081-1.915-0.421-2.391-1.193
			c-0.466-0.755-0.267-1.785,0.565-2.189c1.155-0.56,3.172,0.575,3.964,1.403c0.047,0.049,0.494,0.636,0.771,1.011
			c-0.129-0.245-0.257-0.482-0.387-0.736c-0.26-0.5-0.504-1.007-0.769-1.552c-0.119-0.267-0.239-0.538-0.36-0.81
			c-0.126-0.268-0.225-0.567-0.34-0.853c-0.252-0.668-0.475-1.357-0.685-2.057c-0.439,0.226-2.008,1.008-2.867,1.057
			c-0.854,0.049-1.957-0.126-2.543-0.817c-0.574-0.676-0.535-1.724,0.227-2.249c1.057-0.728,3.223,0.088,4.131,0.787
			c0.057,0.043,0.652,0.618,0.973,0.94c-0.123-0.421-0.247-0.841-0.357-1.272c-0.318-1.242-0.602-2.509-0.89-3.772
			c-0.088-0.387-0.181-0.771-0.272-1.157c-0.155,0.082-2.001,1.052-2.962,1.107c-0.854,0.049-1.957-0.126-2.544-0.817
			c-0.574-0.676-0.535-1.724,0.227-2.249c1.057-0.728,3.223,0.088,4.131,0.787c0.068,0.053,0.924,0.881,1.131,1.102
			c-0.201-0.848-0.409-1.692-0.648-2.515c-0.328-1.136-0.713-2.233-1.164-3.268c-0.072,0.039-1.994,1.059-2.978,1.115
			c-0.855,0.049-1.957-0.126-2.544-0.817c-0.574-0.676-0.535-1.724,0.227-2.249c1.057-0.728,3.223,0.088,4.131,0.787
			c0.06,0.046,0.712,0.676,1.015,0.983c0.033-0.023,0.027-0.019,0.06-0.042c-0.497-1.103-1.117-2.109-1.744-3.021
			c-0.362-0.529-0.738-1.015-1.114-1.48c-0.338,0.227-1.896,1.246-2.777,1.394c-0.844,0.142-1.959,0.089-2.618-0.532
			c-0.645-0.609-0.721-1.655-0.022-2.26c0.97-0.84,3.213-0.267,4.192,0.328c0.053,0.033,0.558,0.421,0.922,0.71
			c-0.173-0.207-0.348-0.424-0.517-0.619c-0.635-0.734-1.262-1.367-1.822-1.923c-0.321-0.314-0.617-0.591-0.897-0.847
			c-0.448,0.049-2.257,0.225-3.091-0.044c-0.815-0.262-1.78-0.823-2.078-1.679c-0.292-0.838,0.123-1.801,1.022-2.016
			c1.248-0.298,2.974,1.244,3.57,2.223c0.051,0.085,0.704,1.501,0.681,1.504c0,0-0.022,0.002-0.027,0.003
			c0.274,0.241,0.566,0.503,0.878,0.796c0.573,0.545,1.215,1.166,1.869,1.889c0.655,0.721,1.346,1.522,1.998,2.432
			c0.655,0.911,1.297,1.903,1.826,3.011c0.006,0.013,0.011,0.026,0.017,0.039c-0.054-0.372-0.171-1.417-0.171-1.499
			c0.002-1.146,0.679-3.359,1.901-3.751c0.881-0.282,1.735,0.327,1.919,1.195c0.188,0.886-0.347,1.866-0.908,2.513
			c-0.633,0.729-2.536,1.601-2.688,1.669c0.495,1.06,0.916,2.187,1.28,3.351c0.209,0.665,0.398,1.342,0.58,2.023
			c-0.037-0.323-0.067-0.612-0.067-0.653c0.002-1.146,0.679-3.359,1.901-3.751c0.881-0.282,1.735,0.327,1.919,1.195
			c0.188,0.886-0.347,1.866-0.907,2.513c-0.569,0.656-2.177,1.432-2.605,1.631c0.067,0.262,0.136,0.523,0.202,0.785
			c0.316,1.258,0.626,2.515,0.968,3.738c0.12,0.431,0.255,0.852,0.387,1.272c-0.032-0.287-0.057-0.529-0.057-0.566
			c0.002-1.146,0.679-3.359,1.901-3.751c0.881-0.282,1.735,0.327,1.919,1.195c0.188,0.886-0.347,1.866-0.908,2.512
			c-0.543,0.626-2.021,1.355-2.528,1.595c0.149,0.427,0.298,0.855,0.461,1.262c0.118,0.275,0.213,0.549,0.347,0.819
			c0.127,0.27,0.253,0.537,0.377,0.802c0.259,0.501,0.522,1.02,0.786,1.503c0.182,0.337,0.361,0.655,0.54,0.975
			c-0.125-0.428-0.351-1.271-0.362-1.343c-0.114-0.753-0.003-2.015,0.42-2.946c-0.018-0.111-0.025-0.223-0.022-0.336
			c0.028-0.887,0.762-1.636,1.679-1.514c1.272,0.17,2.329,2.23,2.532,3.358c0.012,0.066,0.062,0.803,0.085,1.268
			c0.028-0.276,0.051-0.543,0.083-0.827c0.059-0.561,0.135-1.118,0.214-1.719c0.049-0.288,0.098-0.58,0.147-0.874
			c0.043-0.293,0.125-0.597,0.187-0.899c0.158-0.696,0.352-1.394,0.563-2.093c-0.491-0.053-2.231-0.267-2.974-0.7
			c-0.74-0.431-1.562-1.185-1.671-2.084c-0.106-0.881,0.505-1.733,1.43-1.751c1.283-0.024,2.64,1.851,3.012,2.935
			c0.023,0.068,0.203,0.875,0.293,1.321c0.13-0.419,0.258-0.838,0.404-1.258c0.42-1.211,0.883-2.425,1.339-3.637
			c0.14-0.371,0.275-0.743,0.412-1.114c-0.175-0.017-2.249-0.227-3.081-0.711c-0.74-0.431-1.563-1.185-1.671-2.084
			c-0.106-0.881,0.505-1.733,1.43-1.751c1.283-0.024,2.64,1.851,3.012,2.935c0.028,0.082,0.285,1.244,0.336,1.543
			c0.3-0.818,0.592-1.637,0.847-2.455c0.353-1.129,0.637-2.256,0.832-3.368c-0.081-0.008-2.247-0.217-3.099-0.713
			c-0.74-0.431-1.562-1.185-1.671-2.084c-0.106-0.881,0.505-1.733,1.43-1.75c1.283-0.025,2.64,1.851,3.012,2.935
			c0.025,0.071,0.221,0.957,0.305,1.381c0.04-0.001,0.033-0.001,0.073-0.002c0.194-1.194,0.232-2.375,0.212-3.483
			c-0.01-0.641-0.055-1.254-0.113-1.849c-0.407,0.003-2.269-0.007-3.085-0.369c-0.783-0.347-1.683-1.006-1.89-1.888
			c-0.202-0.864,0.312-1.778,1.229-1.897c1.273-0.165,2.827,1.55,3.316,2.587c0.027,0.056,0.233,0.659,0.378,1.1
			c-0.03-0.268-0.056-0.545-0.09-0.801c-0.125-0.962-0.298-1.836-0.459-2.609c-0.095-0.439-0.189-0.833-0.281-1.201
			c-0.401-0.206-2.006-1.057-2.554-1.742c-0.535-0.668-1.03-1.669-0.807-2.547c0.219-0.86,1.096-1.434,1.965-1.117
			c1.206,0.44,1.795,2.678,1.751,3.824c-0.004,0.099-0.241,1.64-0.262,1.629c0,0-0.02-0.01-0.024-0.012
			c0.096,0.353,0.194,0.732,0.293,1.148c0.177,0.77,0.371,1.643,0.517,2.606c0.149,0.962,0.283,2.012,0.325,3.131
			c0.043,1.121,0.032,2.303-0.137,3.519c-0.002,0.014-0.006,0.028-0.008,0.042c0.16-0.34,0.639-1.277,0.684-1.344
			c0.634-0.955,2.42-2.427,3.655-2.08c0.89,0.251,1.267,1.229,0.941,2.055C92.354,434.834,91.367,435.356,90.543,435.586z"/>
		<path style="opacity:0.3;fill:#263238;" d="M90.486,429.015c-0.862,0.516-3.104,0.752-3.105,0.752
			c-0.023,0.002,0.293-1.524,0.324-1.618c0.359-1.088,1.693-2.98,2.976-2.971c0.925,0.007,1.546,0.852,1.451,1.733
			C92.034,427.812,91.22,428.576,90.486,429.015z"/>
		<path style="opacity:0.3;fill:#263238;" d="M67.947,432.399c-0.018,0.015-0.596-1.433-0.623-1.529
			c-0.301-1.106-0.232-3.419,0.843-4.12c0.775-0.505,1.759-0.143,2.166,0.645c0.415,0.805,0.158,1.891-0.212,2.663
			C69.688,430.965,67.949,432.398,67.947,432.399z"/>
		<path style="opacity:0.3;fill:#263238;" d="M90.543,435.586c-0.93,0.259-2.998-0.064-3.163-0.09
			c-0.172,1.157-0.442,2.329-0.781,3.501c-0.193,0.67-0.408,1.339-0.632,2.007c0.148-0.29,0.282-0.548,0.305-0.582
			c0.634-0.955,2.42-2.427,3.655-2.08c0.89,0.25,1.267,1.229,0.941,2.055c-0.332,0.843-1.318,1.365-2.143,1.595
			c-0.837,0.233-2.605-0.007-3.073-0.077c-0.089,0.255-0.174,0.512-0.264,0.767c-0.43,1.223-0.865,2.443-1.255,3.652
			c-0.138,0.426-0.258,0.85-0.379,1.275c0.132-0.257,0.245-0.473,0.265-0.504c0.634-0.955,2.42-2.427,3.655-2.08
			c0.89,0.25,1.267,1.23,0.941,2.055c-0.332,0.843-1.318,1.365-2.143,1.595c-0.798,0.223-2.433,0.016-2.989-0.065
			c-0.111,0.438-0.224,0.877-0.312,1.307c-0.053,0.295-0.126,0.575-0.163,0.874c-0.043,0.295-0.086,0.588-0.128,0.877
			c-0.061,0.56-0.127,1.139-0.173,1.687c-0.035,0.381-0.061,0.745-0.088,1.111c0.132-0.426,0.408-1.253,0.439-1.32
			c0.482-1.04,2.024-2.766,3.298-2.609c0.918,0.113,1.438,1.023,1.242,1.888c-0.201,0.884-1.096,1.549-1.877,1.901
			c-0.859,0.388-2.87,0.391-3.121,0.39c-0.043,0.607-0.079,1.197-0.104,1.755c-0.072,1.53-0.089,2.855-0.086,3.901h-0.846
			c0.02-1.059,0.066-2.399,0.172-3.945c0.041-0.616,0.097-1.274,0.161-1.948c-0.156-0.04-1.044-0.273-1.846-0.596
			c-0.561,0.789-2.125,1.828-2.328,1.961c0.299,0.53,0.594,1.042,0.881,1.521c0.698,1.172,1.343,2.184,1.886,3.007h-0.988
			c-0.466-0.753-0.994-1.633-1.556-2.625c-0.306-0.536-0.622-1.116-0.94-1.714c-0.233,0.081-2.142,0.729-3.081,0.64
			c-0.852-0.081-1.915-0.421-2.391-1.193c-0.466-0.755-0.267-1.785,0.565-2.189c1.155-0.56,3.172,0.575,3.964,1.403
			c0.047,0.049,0.494,0.636,0.771,1.011c-0.129-0.245-0.257-0.482-0.387-0.736c-0.26-0.5-0.504-1.007-0.769-1.552
			c-0.119-0.267-0.239-0.538-0.36-0.81c-0.126-0.268-0.225-0.567-0.34-0.853c-0.252-0.668-0.475-1.357-0.685-2.057
			c-0.439,0.226-2.008,1.008-2.867,1.057c-0.854,0.049-1.957-0.126-2.543-0.817c-0.574-0.676-0.535-1.724,0.227-2.249
			c1.057-0.728,3.223,0.088,4.131,0.787c0.057,0.043,0.652,0.618,0.973,0.94c-0.123-0.421-0.247-0.841-0.357-1.272
			c-0.318-1.242-0.602-2.509-0.89-3.772c-0.088-0.387-0.181-0.771-0.272-1.157c-0.155,0.082-2.001,1.052-2.962,1.107
			c-0.854,0.049-1.957-0.126-2.544-0.817c-0.574-0.676-0.535-1.724,0.227-2.249c1.057-0.728,3.223,0.088,4.131,0.787
			c0.068,0.053,0.924,0.881,1.131,1.102c-0.201-0.848-0.409-1.692-0.648-2.515c-0.328-1.136-0.713-2.233-1.164-3.268
			c-0.072,0.039-1.994,1.059-2.978,1.115c-0.855,0.049-1.957-0.126-2.544-0.817c-0.574-0.676-0.535-1.724,0.227-2.249
			c1.057-0.728,3.223,0.088,4.131,0.787c0.06,0.046,0.712,0.676,1.015,0.983c0.033-0.023,0.027-0.019,0.06-0.042
			c-0.497-1.103-1.117-2.109-1.744-3.021c-0.362-0.529-0.738-1.015-1.114-1.48c-0.338,0.227-1.896,1.246-2.777,1.394
			c-0.844,0.142-1.959,0.089-2.618-0.532c-0.645-0.609-0.721-1.655-0.022-2.26c0.97-0.84,3.213-0.267,4.192,0.328
			c0.053,0.033,0.558,0.421,0.922,0.71c-0.173-0.207-0.348-0.424-0.517-0.619c-0.635-0.734-1.262-1.367-1.822-1.923
			c-0.321-0.314-0.617-0.591-0.897-0.847c-0.448,0.049-2.257,0.225-3.091-0.044c-0.815-0.262-1.78-0.823-2.078-1.679
			c-0.292-0.838,0.123-1.801,1.022-2.016c1.248-0.298,2.974,1.244,3.57,2.223c0.051,0.085,0.704,1.501,0.681,1.504
			c0,0-0.022,0.002-0.027,0.003c0.274,0.241,0.566,0.503,0.878,0.796c0.573,0.545,1.215,1.166,1.869,1.889
			c0.655,0.721,1.346,1.522,1.998,2.432c0.655,0.911,1.297,1.903,1.826,3.011c0.006,0.013,0.011,0.026,0.017,0.039
			c-0.054-0.372-0.171-1.417-0.171-1.499c0.002-1.146,0.679-3.359,1.901-3.751c0.881-0.282,1.735,0.327,1.919,1.195
			c0.188,0.886-0.347,1.866-0.908,2.513c-0.633,0.729-2.536,1.601-2.688,1.669c0.495,1.06,0.916,2.187,1.28,3.351
			c0.209,0.665,0.398,1.342,0.58,2.023c-0.037-0.323-0.067-0.612-0.067-0.653c0.002-1.146,0.679-3.359,1.901-3.751
			c0.881-0.282,1.735,0.327,1.919,1.195c0.188,0.886-0.347,1.866-0.907,2.513c-0.569,0.656-2.177,1.432-2.605,1.631
			c0.067,0.262,0.136,0.523,0.202,0.785c0.316,1.258,0.626,2.515,0.968,3.738c0.12,0.431,0.255,0.852,0.387,1.272
			c-0.032-0.287-0.057-0.529-0.057-0.566c0.002-1.146,0.679-3.359,1.901-3.751c0.881-0.282,1.735,0.327,1.919,1.195
			c0.188,0.886-0.347,1.866-0.908,2.512c-0.543,0.626-2.021,1.355-2.528,1.595c0.149,0.427,0.298,0.855,0.461,1.262
			c0.118,0.275,0.213,0.549,0.347,0.819c0.127,0.27,0.253,0.537,0.377,0.802c0.259,0.501,0.522,1.02,0.786,1.503
			c0.182,0.337,0.361,0.655,0.54,0.975c-0.125-0.428-0.351-1.271-0.362-1.343c-0.114-0.753-0.003-2.015,0.42-2.946
			c-0.018-0.111-0.025-0.223-0.022-0.336c0.028-0.887,0.762-1.636,1.679-1.514c1.272,0.17,2.329,2.23,2.532,3.358
			c0.012,0.066,0.062,0.803,0.085,1.268c0.028-0.276,0.051-0.543,0.083-0.827c0.059-0.561,0.135-1.118,0.214-1.719
			c0.049-0.288,0.098-0.58,0.147-0.874c0.043-0.293,0.125-0.597,0.187-0.899c0.158-0.696,0.352-1.394,0.563-2.093
			c-0.491-0.053-2.231-0.267-2.974-0.7c-0.74-0.431-1.562-1.185-1.671-2.084c-0.106-0.881,0.505-1.733,1.43-1.751
			c1.283-0.024,2.64,1.851,3.012,2.935c0.023,0.068,0.203,0.875,0.293,1.321c0.13-0.419,0.258-0.838,0.404-1.258
			c0.42-1.211,0.883-2.425,1.339-3.637c0.14-0.371,0.275-0.743,0.412-1.114c-0.175-0.017-2.249-0.227-3.081-0.711
			c-0.74-0.431-1.563-1.185-1.671-2.084c-0.106-0.881,0.505-1.733,1.43-1.751c1.283-0.024,2.64,1.851,3.012,2.935
			c0.028,0.082,0.285,1.244,0.336,1.543c0.3-0.818,0.592-1.637,0.847-2.455c0.353-1.129,0.637-2.256,0.832-3.368
			c-0.081-0.008-2.247-0.217-3.099-0.713c-0.74-0.431-1.562-1.185-1.671-2.084c-0.106-0.881,0.505-1.733,1.43-1.75
			c1.283-0.025,2.64,1.851,3.012,2.935c0.025,0.071,0.221,0.957,0.305,1.381c0.04-0.001,0.033-0.001,0.073-0.002
			c0.194-1.194,0.232-2.375,0.212-3.483c-0.01-0.641-0.055-1.254-0.113-1.849c-0.407,0.003-2.269-0.007-3.085-0.369
			c-0.783-0.347-1.683-1.006-1.89-1.888c-0.202-0.864,0.312-1.778,1.229-1.897c1.273-0.165,2.827,1.55,3.316,2.587
			c0.027,0.056,0.233,0.659,0.378,1.1c-0.03-0.268-0.056-0.545-0.09-0.801c-0.125-0.962-0.298-1.836-0.459-2.609
			c-0.095-0.439-0.189-0.833-0.281-1.201c-0.401-0.206-2.006-1.057-2.554-1.742c-0.535-0.668-1.03-1.669-0.807-2.547
			c0.219-0.86,1.096-1.434,1.965-1.117c1.206,0.44,1.795,2.678,1.751,3.824c-0.004,0.099-0.241,1.64-0.262,1.629
			c0,0-0.02-0.01-0.024-0.012c0.096,0.353,0.194,0.732,0.293,1.148c0.177,0.77,0.371,1.643,0.517,2.606
			c0.149,0.962,0.283,2.012,0.325,3.131c0.043,1.121,0.032,2.303-0.137,3.519c-0.002,0.014-0.006,0.028-0.008,0.042
			c0.16-0.34,0.639-1.277,0.684-1.344c0.634-0.955,2.42-2.427,3.655-2.08c0.89,0.251,1.267,1.229,0.941,2.055
			C92.354,434.834,91.367,435.356,90.543,435.586z"/>
	</g>
	<g>
		<path style="fill:#263238;" d="M109.62,443.417c0.011,0.009,0.362-0.869,0.377-0.926c0.182-0.67,0.141-2.073-0.511-2.497
			c-0.469-0.306-1.066-0.087-1.313,0.391c-0.252,0.488-0.096,1.146,0.128,1.614C108.565,442.548,109.62,443.417,109.62,443.417z"/>
		<path style="fill:#263238;" d="M95.959,441.366c0.523,0.313,1.881,0.456,1.882,0.456c0.014,0.001-0.178-0.924-0.196-0.981
			c-0.218-0.66-1.026-1.806-1.804-1.801c-0.56,0.004-0.937,0.516-0.879,1.051C95.02,440.637,95.513,441.1,95.959,441.366z"/>
		<path style="fill:#263238;" d="M95.924,445.349c0.564,0.157,1.817-0.039,1.917-0.055c0.104,0.701,0.268,1.412,0.473,2.122
			c0.117,0.406,0.247,0.812,0.383,1.217c-0.089-0.176-0.171-0.332-0.185-0.353c-0.384-0.579-1.467-1.471-2.215-1.261
			c-0.54,0.152-0.768,0.745-0.571,1.246c0.201,0.511,0.799,0.827,1.299,0.967c0.507,0.141,1.579-0.004,1.863-0.047
			c0.054,0.155,0.106,0.31,0.16,0.465c0.261,0.742,0.524,1.481,0.76,2.214c0.083,0.258,0.156,0.515,0.23,0.773
			c-0.08-0.156-0.148-0.286-0.161-0.305c-0.384-0.579-1.467-1.471-2.215-1.261c-0.54,0.152-0.768,0.745-0.571,1.246
			c0.201,0.511,0.799,0.827,1.299,0.967c0.484,0.135,1.475,0.009,1.812-0.039c0.067,0.266,0.135,0.532,0.189,0.792
			c0.032,0.179,0.076,0.349,0.098,0.53c0.026,0.179,0.052,0.356,0.078,0.532c0.037,0.34,0.077,0.69,0.105,1.023
			c0.021,0.231,0.037,0.452,0.053,0.674c-0.08-0.258-0.247-0.76-0.266-0.8c-0.292-0.63-1.227-1.677-1.999-1.582
			c-0.556,0.069-0.872,0.62-0.753,1.145c0.122,0.536,0.665,0.939,1.138,1.152c0.521,0.235,1.74,0.237,1.892,0.236
			c0.026,0.368,0.048,0.726,0.063,1.064c0.044,0.927,0.054,1.73,0.052,2.365h0.513c-0.012-0.642-0.04-1.454-0.104-2.391
			c-0.025-0.374-0.059-0.772-0.098-1.181c0.095-0.024,0.633-0.166,1.119-0.361c0.34,0.478,1.288,1.108,1.411,1.189
			c-0.181,0.321-0.36,0.632-0.534,0.922c-0.423,0.711-0.814,1.324-1.143,1.823h0.599c0.283-0.457,0.603-0.99,0.943-1.591
			c0.185-0.325,0.377-0.676,0.57-1.039c0.141,0.049,1.298,0.442,1.868,0.388c0.516-0.049,1.161-0.255,1.449-0.723
			c0.282-0.458,0.162-1.082-0.342-1.327c-0.7-0.339-1.923,0.349-2.403,0.851c-0.028,0.03-0.3,0.385-0.467,0.613
			c0.078-0.149,0.156-0.292,0.234-0.446c0.158-0.303,0.306-0.61,0.466-0.94c0.072-0.162,0.145-0.326,0.218-0.491
			c0.076-0.162,0.136-0.344,0.206-0.517c0.153-0.405,0.288-0.823,0.415-1.247c0.266,0.137,1.217,0.611,1.738,0.641
			c0.518,0.03,1.186-0.077,1.542-0.495c0.348-0.41,0.324-1.045-0.137-1.363c-0.641-0.441-1.953,0.053-2.504,0.477
			c-0.034,0.026-0.395,0.375-0.59,0.57c0.074-0.255,0.15-0.51,0.216-0.771c0.193-0.753,0.365-1.521,0.539-2.287
			c0.053-0.235,0.109-0.467,0.165-0.701c0.094,0.05,1.213,0.638,1.795,0.671c0.518,0.03,1.186-0.077,1.542-0.495
			c0.348-0.41,0.324-1.045-0.137-1.363c-0.641-0.441-1.953,0.053-2.504,0.477c-0.041,0.032-0.56,0.534-0.686,0.668
			c0.122-0.514,0.248-1.025,0.393-1.524c0.199-0.689,0.432-1.354,0.706-1.981c0.044,0.023,1.208,0.642,1.805,0.676
			c0.518,0.03,1.186-0.077,1.542-0.495c0.348-0.41,0.324-1.045-0.138-1.363c-0.641-0.441-1.953,0.053-2.504,0.477
			c-0.036,0.028-0.432,0.41-0.615,0.596c-0.02-0.014-0.016-0.011-0.037-0.025c0.301-0.668,0.677-1.278,1.057-1.831
			c0.219-0.321,0.447-0.615,0.675-0.897c0.205,0.137,1.149,0.755,1.683,0.845c0.512,0.086,1.187,0.054,1.587-0.323
			c0.391-0.369,0.437-1.003,0.013-1.37c-0.588-0.509-1.947-0.162-2.541,0.199c-0.032,0.02-0.339,0.255-0.559,0.43
			c0.105-0.125,0.211-0.257,0.313-0.375c0.385-0.445,0.765-0.828,1.104-1.165c0.195-0.19,0.374-0.358,0.544-0.513
			c0.272,0.03,1.368,0.136,1.874-0.027c0.494-0.159,1.079-0.499,1.26-1.018c0.177-0.508-0.075-1.092-0.62-1.222
			c-0.757-0.181-1.803,0.754-2.164,1.348c-0.031,0.051-0.427,0.91-0.413,0.911c0,0,0.013,0.001,0.016,0.002
			c-0.166,0.146-0.343,0.305-0.532,0.482c-0.347,0.33-0.737,0.707-1.133,1.145c-0.397,0.437-0.816,0.923-1.211,1.474
			c-0.397,0.552-0.786,1.154-1.107,1.825c-0.004,0.008-0.007,0.016-0.01,0.024c0.033-0.225,0.104-0.859,0.104-0.908
			c-0.001-0.695-0.412-2.036-1.152-2.274c-0.534-0.171-1.052,0.198-1.163,0.724c-0.114,0.537,0.21,1.131,0.55,1.523
			c0.383,0.442,1.537,0.97,1.629,1.012c-0.3,0.642-0.555,1.326-0.776,2.031c-0.127,0.403-0.242,0.814-0.351,1.226
			c0.022-0.196,0.041-0.371,0.04-0.396c-0.001-0.695-0.412-2.036-1.152-2.274c-0.534-0.171-1.052,0.198-1.163,0.724
			c-0.114,0.537,0.21,1.131,0.55,1.523c0.345,0.398,1.32,0.868,1.579,0.989c-0.041,0.159-0.083,0.317-0.123,0.476
			c-0.192,0.763-0.38,1.524-0.587,2.266c-0.073,0.262-0.154,0.516-0.235,0.771c0.02-0.174,0.035-0.321,0.035-0.343
			c-0.001-0.695-0.412-2.036-1.152-2.274c-0.534-0.171-1.051,0.198-1.163,0.724c-0.114,0.537,0.21,1.131,0.55,1.523
			c0.329,0.38,1.225,0.822,1.533,0.967c-0.09,0.259-0.18,0.518-0.28,0.765c-0.072,0.167-0.129,0.333-0.21,0.496
			c-0.077,0.164-0.153,0.326-0.229,0.486c-0.157,0.304-0.316,0.618-0.477,0.911c-0.11,0.204-0.218,0.397-0.327,0.591
			c0.076-0.259,0.213-0.77,0.22-0.814c0.069-0.456,0.002-1.221-0.255-1.786c0.011-0.067,0.015-0.135,0.013-0.204
			c-0.017-0.537-0.462-0.992-1.017-0.918c-0.771,0.103-1.412,1.351-1.535,2.035c-0.007,0.04-0.037,0.487-0.052,0.769
			c-0.017-0.167-0.031-0.329-0.05-0.501c-0.036-0.34-0.082-0.678-0.13-1.042c-0.029-0.175-0.059-0.352-0.089-0.53
			c-0.026-0.178-0.076-0.362-0.113-0.545c-0.096-0.422-0.214-0.845-0.341-1.269c0.297-0.032,1.352-0.162,1.803-0.424
			c0.448-0.261,0.947-0.718,1.013-1.263c0.064-0.534-0.306-1.051-0.867-1.061c-0.778-0.015-1.6,1.122-1.826,1.779
			c-0.014,0.041-0.123,0.531-0.178,0.801c-0.079-0.254-0.156-0.508-0.245-0.762c-0.255-0.734-0.535-1.47-0.812-2.205
			c-0.085-0.225-0.167-0.45-0.25-0.676c0.106-0.01,1.363-0.137,1.868-0.431c0.448-0.261,0.947-0.718,1.013-1.264
			c0.064-0.534-0.306-1.05-0.867-1.061c-0.778-0.015-1.6,1.122-1.826,1.779c-0.017,0.049-0.173,0.754-0.203,0.935
			c-0.182-0.496-0.359-0.992-0.513-1.488c-0.214-0.684-0.386-1.367-0.504-2.042c0.049-0.005,1.362-0.131,1.879-0.432
			c0.448-0.261,0.947-0.718,1.013-1.263c0.064-0.534-0.306-1.05-0.867-1.061c-0.778-0.015-1.6,1.122-1.826,1.779
			c-0.015,0.043-0.134,0.58-0.185,0.837c-0.024,0-0.02,0-0.044-0.001c-0.118-0.724-0.14-1.44-0.129-2.111
			c0.006-0.389,0.033-0.76,0.068-1.121c0.247,0.001,1.375-0.004,1.87-0.224c0.474-0.21,1.02-0.61,1.146-1.145
			c0.123-0.524-0.189-1.078-0.745-1.15c-0.771-0.1-1.713,0.94-2.01,1.568c-0.016,0.034-0.142,0.4-0.229,0.667
			c0.018-0.162,0.034-0.331,0.055-0.486c0.076-0.583,0.181-1.113,0.278-1.581c0.057-0.266,0.115-0.505,0.17-0.728
			c0.243-0.125,1.216-0.641,1.548-1.056c0.324-0.405,0.625-1.011,0.489-1.544c-0.132-0.521-0.665-0.869-1.191-0.677
			c-0.731,0.267-1.088,1.624-1.061,2.318c0.002,0.06,0.146,0.994,0.159,0.988c0,0,0.012-0.006,0.015-0.008
			c-0.058,0.214-0.118,0.444-0.178,0.696c-0.107,0.467-0.225,0.996-0.313,1.58c-0.09,0.583-0.172,1.22-0.197,1.898
			c-0.026,0.68-0.019,1.396,0.083,2.133c0.001,0.008,0.003,0.017,0.005,0.025c-0.097-0.206-0.387-0.774-0.415-0.815
			c-0.384-0.579-1.467-1.471-2.216-1.261c-0.539,0.152-0.768,0.745-0.571,1.246C94.827,444.894,95.424,445.21,95.924,445.349z"/>
		<path style="opacity:0.3;fill:#263238;" d="M95.959,441.366c0.523,0.313,1.881,0.456,1.882,0.456
			c0.014,0.001-0.178-0.924-0.196-0.981c-0.218-0.66-1.026-1.806-1.804-1.801c-0.56,0.004-0.937,0.516-0.879,1.051
			C95.02,440.637,95.513,441.1,95.959,441.366z"/>
		<path style="opacity:0.3;fill:#263238;" d="M109.62,443.417c0.011,0.009,0.362-0.869,0.377-0.926
			c0.182-0.67,0.141-2.073-0.511-2.497c-0.469-0.306-1.066-0.087-1.313,0.391c-0.252,0.488-0.096,1.146,0.128,1.614
			C108.565,442.548,109.62,443.417,109.62,443.417z"/>
		<path style="opacity:0.3;fill:#263238;" d="M95.924,445.349c0.564,0.157,1.817-0.039,1.917-0.055
			c0.104,0.701,0.268,1.412,0.473,2.122c0.117,0.406,0.247,0.812,0.383,1.217c-0.089-0.176-0.171-0.332-0.185-0.353
			c-0.384-0.579-1.467-1.471-2.215-1.261c-0.54,0.152-0.768,0.745-0.571,1.246c0.201,0.511,0.799,0.827,1.299,0.967
			c0.507,0.141,1.579-0.004,1.863-0.047c0.054,0.155,0.106,0.31,0.16,0.465c0.261,0.742,0.524,1.481,0.76,2.214
			c0.083,0.258,0.156,0.515,0.23,0.773c-0.08-0.156-0.148-0.286-0.161-0.305c-0.384-0.579-1.467-1.471-2.215-1.261
			c-0.54,0.152-0.768,0.745-0.571,1.246c0.201,0.511,0.799,0.827,1.299,0.967c0.484,0.135,1.475,0.009,1.812-0.039
			c0.067,0.266,0.135,0.532,0.189,0.792c0.032,0.179,0.076,0.349,0.098,0.53c0.026,0.179,0.052,0.356,0.078,0.532
			c0.037,0.34,0.077,0.69,0.105,1.023c0.021,0.231,0.037,0.452,0.053,0.674c-0.08-0.258-0.247-0.76-0.266-0.8
			c-0.292-0.63-1.227-1.677-1.999-1.582c-0.556,0.069-0.872,0.62-0.753,1.145c0.122,0.536,0.665,0.939,1.138,1.152
			c0.521,0.235,1.74,0.237,1.892,0.236c0.026,0.368,0.048,0.726,0.063,1.064c0.044,0.927,0.054,1.73,0.052,2.365h0.513
			c-0.012-0.642-0.04-1.454-0.104-2.391c-0.025-0.374-0.059-0.772-0.098-1.181c0.095-0.024,0.633-0.166,1.119-0.361
			c0.34,0.478,1.288,1.108,1.411,1.189c-0.181,0.321-0.36,0.632-0.534,0.922c-0.423,0.711-0.814,1.324-1.143,1.823h0.599
			c0.283-0.457,0.603-0.99,0.943-1.591c0.185-0.325,0.377-0.676,0.57-1.039c0.141,0.049,1.298,0.442,1.868,0.388
			c0.516-0.049,1.161-0.255,1.449-0.723c0.282-0.458,0.162-1.082-0.342-1.327c-0.7-0.339-1.923,0.349-2.403,0.851
			c-0.028,0.03-0.3,0.385-0.467,0.613c0.078-0.149,0.156-0.292,0.234-0.446c0.158-0.303,0.306-0.61,0.466-0.94
			c0.072-0.162,0.145-0.326,0.218-0.491c0.076-0.162,0.136-0.344,0.206-0.517c0.153-0.405,0.288-0.823,0.415-1.247
			c0.266,0.137,1.217,0.611,1.738,0.641c0.518,0.03,1.186-0.077,1.542-0.495c0.348-0.41,0.324-1.045-0.137-1.363
			c-0.641-0.441-1.953,0.053-2.504,0.477c-0.034,0.026-0.395,0.375-0.59,0.57c0.074-0.255,0.15-0.51,0.216-0.771
			c0.193-0.753,0.365-1.521,0.539-2.287c0.053-0.235,0.109-0.467,0.165-0.701c0.094,0.05,1.213,0.638,1.795,0.671
			c0.518,0.03,1.186-0.077,1.542-0.495c0.348-0.41,0.324-1.045-0.137-1.363c-0.641-0.441-1.953,0.053-2.504,0.477
			c-0.041,0.032-0.56,0.534-0.686,0.668c0.122-0.514,0.248-1.025,0.393-1.524c0.199-0.689,0.432-1.354,0.706-1.981
			c0.044,0.023,1.208,0.642,1.805,0.676c0.518,0.03,1.186-0.077,1.542-0.495c0.348-0.41,0.324-1.045-0.138-1.363
			c-0.641-0.441-1.953,0.053-2.504,0.477c-0.036,0.028-0.432,0.41-0.615,0.596c-0.02-0.014-0.016-0.011-0.037-0.025
			c0.301-0.668,0.677-1.278,1.057-1.831c0.219-0.321,0.447-0.615,0.675-0.897c0.205,0.137,1.149,0.755,1.683,0.845
			c0.512,0.086,1.187,0.054,1.587-0.323c0.391-0.369,0.437-1.003,0.013-1.37c-0.588-0.509-1.947-0.162-2.541,0.199
			c-0.032,0.02-0.339,0.255-0.559,0.43c0.105-0.125,0.211-0.257,0.313-0.375c0.385-0.445,0.765-0.828,1.104-1.165
			c0.195-0.19,0.374-0.358,0.544-0.513c0.272,0.03,1.368,0.136,1.874-0.027c0.494-0.159,1.079-0.499,1.26-1.018
			c0.177-0.508-0.075-1.092-0.62-1.222c-0.757-0.181-1.803,0.754-2.164,1.348c-0.031,0.051-0.427,0.91-0.413,0.911
			c0,0,0.013,0.001,0.016,0.002c-0.166,0.146-0.343,0.305-0.532,0.482c-0.347,0.33-0.737,0.707-1.133,1.145
			c-0.397,0.437-0.816,0.923-1.211,1.474c-0.397,0.552-0.786,1.154-1.107,1.825c-0.004,0.008-0.007,0.016-0.01,0.024
			c0.033-0.225,0.104-0.859,0.104-0.908c-0.001-0.695-0.412-2.036-1.152-2.274c-0.534-0.171-1.052,0.198-1.163,0.724
			c-0.114,0.537,0.21,1.131,0.55,1.523c0.383,0.442,1.537,0.97,1.629,1.012c-0.3,0.642-0.555,1.326-0.776,2.031
			c-0.127,0.403-0.242,0.814-0.351,1.226c0.022-0.196,0.041-0.371,0.04-0.396c-0.001-0.695-0.412-2.036-1.152-2.274
			c-0.534-0.171-1.052,0.198-1.163,0.724c-0.114,0.537,0.21,1.131,0.55,1.523c0.345,0.398,1.32,0.868,1.579,0.989
			c-0.041,0.159-0.083,0.317-0.123,0.476c-0.192,0.763-0.38,1.524-0.587,2.266c-0.073,0.262-0.154,0.516-0.235,0.771
			c0.02-0.174,0.035-0.321,0.035-0.343c-0.001-0.695-0.412-2.036-1.152-2.274c-0.534-0.171-1.051,0.198-1.163,0.724
			c-0.114,0.537,0.21,1.131,0.55,1.523c0.329,0.38,1.225,0.822,1.533,0.967c-0.09,0.259-0.18,0.518-0.28,0.765
			c-0.072,0.167-0.129,0.333-0.21,0.496c-0.077,0.164-0.153,0.326-0.229,0.486c-0.157,0.304-0.316,0.618-0.477,0.911
			c-0.11,0.204-0.218,0.397-0.327,0.591c0.076-0.259,0.213-0.77,0.22-0.814c0.069-0.456,0.002-1.221-0.255-1.786
			c0.011-0.067,0.015-0.135,0.013-0.204c-0.017-0.537-0.462-0.992-1.017-0.918c-0.771,0.103-1.412,1.351-1.535,2.035
			c-0.007,0.04-0.037,0.487-0.052,0.769c-0.017-0.167-0.031-0.329-0.05-0.501c-0.036-0.34-0.082-0.678-0.13-1.042
			c-0.029-0.175-0.059-0.352-0.089-0.53c-0.026-0.178-0.076-0.362-0.113-0.545c-0.096-0.422-0.214-0.845-0.341-1.269
			c0.297-0.032,1.352-0.162,1.803-0.424c0.448-0.261,0.947-0.718,1.013-1.263c0.064-0.534-0.306-1.051-0.867-1.061
			c-0.778-0.015-1.6,1.122-1.826,1.779c-0.014,0.041-0.123,0.531-0.178,0.801c-0.079-0.254-0.156-0.508-0.245-0.762
			c-0.255-0.734-0.535-1.47-0.812-2.205c-0.085-0.225-0.167-0.45-0.25-0.676c0.106-0.01,1.363-0.137,1.868-0.431
			c0.448-0.261,0.947-0.718,1.013-1.264c0.064-0.534-0.306-1.05-0.867-1.061c-0.778-0.015-1.6,1.122-1.826,1.779
			c-0.017,0.049-0.173,0.754-0.203,0.935c-0.182-0.496-0.359-0.992-0.513-1.488c-0.214-0.684-0.386-1.367-0.504-2.042
			c0.049-0.005,1.362-0.131,1.879-0.432c0.448-0.261,0.947-0.718,1.013-1.263c0.064-0.534-0.306-1.05-0.867-1.061
			c-0.778-0.015-1.6,1.122-1.826,1.779c-0.015,0.043-0.134,0.58-0.185,0.837c-0.024,0-0.02,0-0.044-0.001
			c-0.118-0.724-0.14-1.44-0.129-2.111c0.006-0.389,0.033-0.76,0.068-1.121c0.247,0.001,1.375-0.004,1.87-0.224
			c0.474-0.21,1.02-0.61,1.146-1.145c0.123-0.524-0.189-1.078-0.745-1.15c-0.771-0.1-1.713,0.94-2.01,1.568
			c-0.016,0.034-0.142,0.4-0.229,0.667c0.018-0.162,0.034-0.331,0.055-0.486c0.076-0.583,0.181-1.113,0.278-1.581
			c0.057-0.266,0.115-0.505,0.17-0.728c0.243-0.125,1.216-0.641,1.548-1.056c0.324-0.405,0.625-1.011,0.489-1.544
			c-0.132-0.521-0.665-0.869-1.191-0.677c-0.731,0.267-1.088,1.624-1.061,2.318c0.002,0.06,0.146,0.994,0.159,0.988
			c0,0,0.012-0.006,0.015-0.008c-0.058,0.214-0.118,0.444-0.178,0.696c-0.107,0.467-0.225,0.996-0.313,1.58
			c-0.09,0.583-0.172,1.22-0.197,1.898c-0.026,0.68-0.019,1.396,0.083,2.133c0.001,0.008,0.003,0.017,0.005,0.025
			c-0.097-0.206-0.387-0.774-0.415-0.815c-0.384-0.579-1.467-1.471-2.216-1.261c-0.539,0.152-0.768,0.745-0.571,1.246
			C94.827,444.894,95.424,445.21,95.924,445.349z"/>
	</g>
</g>
<g id="Floor">
	<g>
		
			<line style="fill:none;stroke:#263238;stroke-linecap:round;stroke-linejoin:round;stroke-miterlimit:10;" x1="462.473" y1="460.375" x2="486.771" y2="460.375"/>
		
			<line style="fill:none;stroke:#263238;stroke-linecap:round;stroke-linejoin:round;stroke-miterlimit:10;" x1="10.374" y1="460.375" x2="452.9" y2="460.375"/>
	</g>
</g>
<g id="Buildings">
	<g>
		<polyline style="fill:none;stroke:#263238;stroke-linecap:round;stroke-miterlimit:10;" points="8.835,274.22 24.174,274.22 
			24.174,202.585 44.987,202.585 44.987,169.117 84.364,169.117 84.364,235.467 94.489,235.467 94.489,106.781 137.804,106.781 
			137.804,163.245 164.805,163.245 164.805,114.51 210.932,114.51 210.932,224.311 273.935,224.311 273.935,158.699 315.09,158.699 
			315.09,224.898 340.313,224.898 340.313,232.531 356.063,232.531 356.063,181.338 366.751,181.338 366.751,232.531 
			374.064,232.531 374.064,178.511 385.877,178.511 385.877,230.182 400.503,230.182 400.503,143.281 426.942,143.281 
			426.942,200.237 442.13,200.237 442.13,115.097 479.257,115.097 479.257,287.138 		"/>
		<g>
			
				<rect x="30.361" y="214.329" style="fill:none;stroke:#263238;stroke-linecap:round;stroke-miterlimit:10;" width="4.5" height="5.872"/>
			
				<rect x="37.674" y="214.329" style="fill:none;stroke:#263238;stroke-linecap:round;stroke-miterlimit:10;" width="4.5" height="5.872"/>
			
				<rect x="44.987" y="214.329" style="fill:none;stroke:#263238;stroke-linecap:round;stroke-miterlimit:10;" width="4.5" height="5.872"/>
			
				<rect x="52.3" y="214.329" style="fill:none;stroke:#263238;stroke-linecap:round;stroke-miterlimit:10;" width="4.5" height="5.872"/>
			
				<rect x="59.613" y="214.329" style="fill:none;stroke:#263238;stroke-linecap:round;stroke-miterlimit:10;" width="4.5" height="5.872"/>
			
				<rect x="66.925" y="214.329" style="fill:none;stroke:#263238;stroke-linecap:round;stroke-miterlimit:10;" width="4.5" height="5.872"/>
		</g>
		<g>
			
				<rect x="101.24" y="170.878" style="fill:none;stroke:#263238;stroke-linecap:round;stroke-miterlimit:10;" width="4.5" height="5.872"/>
			
				<rect x="108.552" y="170.878" style="fill:none;stroke:#263238;stroke-linecap:round;stroke-miterlimit:10;" width="4.5" height="5.872"/>
			
				<rect x="115.865" y="170.878" style="fill:none;stroke:#263238;stroke-linecap:round;stroke-miterlimit:10;" width="4.5" height="5.872"/>
			
				<rect x="123.178" y="170.878" style="fill:none;stroke:#263238;stroke-linecap:round;stroke-miterlimit:10;" width="4.5" height="5.872"/>
			
				<rect x="101.24" y="160.309" style="fill:none;stroke:#263238;stroke-linecap:round;stroke-miterlimit:10;" width="4.5" height="5.872"/>
			
				<rect x="108.552" y="160.309" style="fill:none;stroke:#263238;stroke-linecap:round;stroke-miterlimit:10;" width="4.5" height="5.872"/>
			
				<rect x="115.865" y="160.309" style="fill:none;stroke:#263238;stroke-linecap:round;stroke-miterlimit:10;" width="4.5" height="5.872"/>
			
				<rect x="123.178" y="160.309" style="fill:none;stroke:#263238;stroke-linecap:round;stroke-miterlimit:10;" width="4.5" height="5.872"/>
			
				<rect x="101.24" y="149.74" style="fill:none;stroke:#263238;stroke-linecap:round;stroke-miterlimit:10;" width="4.5" height="5.872"/>
			
				<rect x="108.552" y="149.74" style="fill:none;stroke:#263238;stroke-linecap:round;stroke-miterlimit:10;" width="4.5" height="5.872"/>
			
				<rect x="115.865" y="149.74" style="fill:none;stroke:#263238;stroke-linecap:round;stroke-miterlimit:10;" width="4.5" height="5.872"/>
			
				<rect x="123.178" y="149.74" style="fill:none;stroke:#263238;stroke-linecap:round;stroke-miterlimit:10;" width="4.5" height="5.872"/>
			
				<rect x="101.24" y="139.171" style="fill:none;stroke:#263238;stroke-linecap:round;stroke-miterlimit:10;" width="4.5" height="5.872"/>
			
				<rect x="108.552" y="139.171" style="fill:none;stroke:#263238;stroke-linecap:round;stroke-miterlimit:10;" width="4.5" height="5.872"/>
			
				<rect x="115.865" y="139.171" style="fill:none;stroke:#263238;stroke-linecap:round;stroke-miterlimit:10;" width="4.5" height="5.872"/>
			
				<rect x="123.178" y="139.171" style="fill:none;stroke:#263238;stroke-linecap:round;stroke-miterlimit:10;" width="4.5" height="5.872"/>
			
				<rect x="101.24" y="128.602" style="fill:none;stroke:#263238;stroke-linecap:round;stroke-miterlimit:10;" width="4.5" height="5.872"/>
			
				<rect x="108.552" y="128.602" style="fill:none;stroke:#263238;stroke-linecap:round;stroke-miterlimit:10;" width="4.5" height="5.872"/>
			
				<rect x="115.865" y="128.602" style="fill:none;stroke:#263238;stroke-linecap:round;stroke-miterlimit:10;" width="4.5" height="5.872"/>
			
				<rect x="123.178" y="128.602" style="fill:none;stroke:#263238;stroke-linecap:round;stroke-miterlimit:10;" width="4.5" height="5.872"/>
			
				<rect x="130.491" y="170.878" style="fill:none;stroke:#263238;stroke-linecap:round;stroke-miterlimit:10;" width="4.5" height="5.872"/>
			
				<rect x="137.804" y="170.878" style="fill:none;stroke:#263238;stroke-linecap:round;stroke-miterlimit:10;" width="4.5" height="5.872"/>
		</g>
		<g>
			
				<rect x="101.24" y="182.622" style="fill:none;stroke:#263238;stroke-linecap:round;stroke-miterlimit:10;" width="4.5" height="5.872"/>
			
				<rect x="108.552" y="182.622" style="fill:none;stroke:#263238;stroke-linecap:round;stroke-miterlimit:10;" width="4.5" height="5.872"/>
			
				<rect x="115.865" y="182.622" style="fill:none;stroke:#263238;stroke-linecap:round;stroke-miterlimit:10;" width="4.5" height="5.872"/>
			
				<rect x="123.178" y="182.622" style="fill:none;stroke:#263238;stroke-linecap:round;stroke-miterlimit:10;" width="4.5" height="5.872"/>
			
				<rect x="130.491" y="182.622" style="fill:none;stroke:#263238;stroke-linecap:round;stroke-miterlimit:10;" width="4.5" height="5.872"/>
			
				<rect x="137.804" y="182.622" style="fill:none;stroke:#263238;stroke-linecap:round;stroke-miterlimit:10;" width="4.5" height="5.872"/>
		</g>
		<g>
			
				<rect x="30.361" y="226.659" style="fill:none;stroke:#263238;stroke-linecap:round;stroke-miterlimit:10;" width="4.5" height="5.872"/>
			
				<rect x="37.674" y="226.659" style="fill:none;stroke:#263238;stroke-linecap:round;stroke-miterlimit:10;" width="4.5" height="5.872"/>
			
				<rect x="44.987" y="226.659" style="fill:none;stroke:#263238;stroke-linecap:round;stroke-miterlimit:10;" width="4.5" height="5.872"/>
			
				<rect x="52.3" y="226.659" style="fill:none;stroke:#263238;stroke-linecap:round;stroke-miterlimit:10;" width="4.5" height="5.872"/>
			
				<rect x="59.613" y="226.659" style="fill:none;stroke:#263238;stroke-linecap:round;stroke-miterlimit:10;" width="4.5" height="5.872"/>
			
				<rect x="66.925" y="226.659" style="fill:none;stroke:#263238;stroke-linecap:round;stroke-miterlimit:10;" width="4.5" height="5.872"/>
		</g>
		<g>
			
				<rect x="30.361" y="238.99" style="fill:none;stroke:#263238;stroke-linecap:round;stroke-miterlimit:10;" width="4.5" height="5.872"/>
			
				<rect x="37.674" y="238.99" style="fill:none;stroke:#263238;stroke-linecap:round;stroke-miterlimit:10;" width="4.5" height="5.872"/>
			
				<rect x="44.987" y="238.99" style="fill:none;stroke:#263238;stroke-linecap:round;stroke-miterlimit:10;" width="4.5" height="5.872"/>
			
				<rect x="52.3" y="238.99" style="fill:none;stroke:#263238;stroke-linecap:round;stroke-miterlimit:10;" width="4.5" height="5.872"/>
			
				<rect x="59.613" y="238.99" style="fill:none;stroke:#263238;stroke-linecap:round;stroke-miterlimit:10;" width="4.5" height="5.872"/>
			
				<rect x="66.925" y="238.99" style="fill:none;stroke:#263238;stroke-linecap:round;stroke-miterlimit:10;" width="4.5" height="5.872"/>
		</g>
		<g>
			
				<rect x="30.361" y="251.32" style="fill:none;stroke:#263238;stroke-linecap:round;stroke-miterlimit:10;" width="4.5" height="5.872"/>
			
				<rect x="37.674" y="251.32" style="fill:none;stroke:#263238;stroke-linecap:round;stroke-miterlimit:10;" width="4.5" height="5.872"/>
			
				<rect x="44.987" y="251.32" style="fill:none;stroke:#263238;stroke-linecap:round;stroke-miterlimit:10;" width="4.5" height="5.872"/>
			
				<rect x="52.3" y="251.32" style="fill:none;stroke:#263238;stroke-linecap:round;stroke-miterlimit:10;" width="4.5" height="5.872"/>
			
				<rect x="59.613" y="251.32" style="fill:none;stroke:#263238;stroke-linecap:round;stroke-miterlimit:10;" width="4.5" height="5.872"/>
			
				<rect x="66.925" y="251.32" style="fill:none;stroke:#263238;stroke-linecap:round;stroke-miterlimit:10;" width="4.5" height="5.872"/>
		</g>
		<g>
			
				<rect x="30.361" y="263.651" style="fill:none;stroke:#263238;stroke-linecap:round;stroke-miterlimit:10;" width="4.5" height="5.872"/>
			
				<rect x="37.674" y="263.651" style="fill:none;stroke:#263238;stroke-linecap:round;stroke-miterlimit:10;" width="4.5" height="5.872"/>
			
				<rect x="44.987" y="263.651" style="fill:none;stroke:#263238;stroke-linecap:round;stroke-miterlimit:10;" width="4.5" height="5.872"/>
			
				<rect x="52.3" y="263.651" style="fill:none;stroke:#263238;stroke-linecap:round;stroke-miterlimit:10;" width="4.5" height="5.872"/>
			
				<rect x="59.613" y="263.651" style="fill:none;stroke:#263238;stroke-linecap:round;stroke-miterlimit:10;" width="4.5" height="5.872"/>
			
				<rect x="66.925" y="263.651" style="fill:none;stroke:#263238;stroke-linecap:round;stroke-miterlimit:10;" width="4.5" height="5.872"/>
		</g>
		
			<rect x="456.193" y="127.428" style="fill:none;stroke:#263238;stroke-linecap:round;stroke-miterlimit:10;" width="4.5" height="5.872"/>
		
			<rect x="463.506" y="127.428" style="fill:none;stroke:#263238;stroke-linecap:round;stroke-miterlimit:10;" width="4.5" height="5.872"/>
		
			<rect x="470.819" y="127.428" style="fill:none;stroke:#263238;stroke-linecap:round;stroke-miterlimit:10;" width="4.5" height="5.872"/>
		
			<rect x="456.193" y="142.107" style="fill:none;stroke:#263238;stroke-linecap:round;stroke-miterlimit:10;" width="4.5" height="5.872"/>
		
			<rect x="463.506" y="142.107" style="fill:none;stroke:#263238;stroke-linecap:round;stroke-miterlimit:10;" width="4.5" height="5.872"/>
		
			<rect x="470.819" y="142.107" style="fill:none;stroke:#263238;stroke-linecap:round;stroke-miterlimit:10;" width="4.5" height="5.872"/>
		
			<rect x="456.193" y="156.786" style="fill:none;stroke:#263238;stroke-linecap:round;stroke-miterlimit:10;" width="4.5" height="5.872"/>
		
			<rect x="463.506" y="156.786" style="fill:none;stroke:#263238;stroke-linecap:round;stroke-miterlimit:10;" width="4.5" height="5.872"/>
		
			<rect x="470.819" y="156.786" style="fill:none;stroke:#263238;stroke-linecap:round;stroke-miterlimit:10;" width="4.5" height="5.872"/>
		
			<rect x="456.193" y="171.465" style="fill:none;stroke:#263238;stroke-linecap:round;stroke-miterlimit:10;" width="4.5" height="5.872"/>
		
			<rect x="463.506" y="171.465" style="fill:none;stroke:#263238;stroke-linecap:round;stroke-miterlimit:10;" width="4.5" height="5.872"/>
		
			<rect x="470.819" y="171.465" style="fill:none;stroke:#263238;stroke-linecap:round;stroke-miterlimit:10;" width="4.5" height="5.872"/>
		
			<rect x="456.193" y="186.145" style="fill:none;stroke:#263238;stroke-linecap:round;stroke-miterlimit:10;" width="4.5" height="5.872"/>
		
			<rect x="463.506" y="186.145" style="fill:none;stroke:#263238;stroke-linecap:round;stroke-miterlimit:10;" width="4.5" height="5.872"/>
		
			<rect x="470.819" y="186.145" style="fill:none;stroke:#263238;stroke-linecap:round;stroke-miterlimit:10;" width="4.5" height="5.872"/>
		
			<rect x="456.193" y="200.824" style="fill:none;stroke:#263238;stroke-linecap:round;stroke-miterlimit:10;" width="4.5" height="5.872"/>
		
			<rect x="463.506" y="200.824" style="fill:none;stroke:#263238;stroke-linecap:round;stroke-miterlimit:10;" width="4.5" height="5.872"/>
		
			<rect x="470.819" y="200.824" style="fill:none;stroke:#263238;stroke-linecap:round;stroke-miterlimit:10;" width="4.5" height="5.872"/>
		
			<rect x="456.193" y="215.503" style="fill:none;stroke:#263238;stroke-linecap:round;stroke-miterlimit:10;" width="4.5" height="5.872"/>
		
			<rect x="463.506" y="215.503" style="fill:none;stroke:#263238;stroke-linecap:round;stroke-miterlimit:10;" width="4.5" height="5.872"/>
		
			<rect x="470.819" y="215.503" style="fill:none;stroke:#263238;stroke-linecap:round;stroke-miterlimit:10;" width="4.5" height="5.872"/>
		
			<rect x="456.193" y="230.182" style="fill:none;stroke:#263238;stroke-linecap:round;stroke-miterlimit:10;" width="4.5" height="5.872"/>
		
			<rect x="463.506" y="230.182" style="fill:none;stroke:#263238;stroke-linecap:round;stroke-miterlimit:10;" width="4.5" height="5.872"/>
		
			<rect x="470.819" y="230.182" style="fill:none;stroke:#263238;stroke-linecap:round;stroke-miterlimit:10;" width="4.5" height="5.872"/>
		
			<rect x="456.193" y="244.862" style="fill:none;stroke:#263238;stroke-linecap:round;stroke-miterlimit:10;" width="4.5" height="5.872"/>
		
			<rect x="463.506" y="244.862" style="fill:none;stroke:#263238;stroke-linecap:round;stroke-miterlimit:10;" width="4.5" height="5.872"/>
		
			<rect x="408.315" y="156.786" style="fill:none;stroke:#263238;stroke-linecap:round;stroke-miterlimit:10;" width="4.5" height="5.872"/>
		
			<rect x="415.628" y="156.786" style="fill:none;stroke:#263238;stroke-linecap:round;stroke-miterlimit:10;" width="4.5" height="5.872"/>
		
			<rect x="408.315" y="171.465" style="fill:none;stroke:#263238;stroke-linecap:round;stroke-miterlimit:10;" width="4.5" height="5.872"/>
		
			<rect x="415.628" y="171.465" style="fill:none;stroke:#263238;stroke-linecap:round;stroke-miterlimit:10;" width="4.5" height="5.872"/>
		
			<rect x="408.315" y="186.145" style="fill:none;stroke:#263238;stroke-linecap:round;stroke-miterlimit:10;" width="4.5" height="5.872"/>
		
			<rect x="415.628" y="186.145" style="fill:none;stroke:#263238;stroke-linecap:round;stroke-miterlimit:10;" width="4.5" height="5.872"/>
		
			<rect x="408.315" y="200.824" style="fill:none;stroke:#263238;stroke-linecap:round;stroke-miterlimit:10;" width="4.5" height="5.872"/>
		
			<rect x="415.628" y="200.824" style="fill:none;stroke:#263238;stroke-linecap:round;stroke-miterlimit:10;" width="4.5" height="5.872"/>
		
			<rect x="408.315" y="215.503" style="fill:none;stroke:#263238;stroke-linecap:round;stroke-miterlimit:10;" width="4.5" height="5.872"/>
		
			<rect x="415.628" y="215.503" style="fill:none;stroke:#263238;stroke-linecap:round;stroke-miterlimit:10;" width="4.5" height="5.872"/>
		
			<rect x="408.315" y="230.182" style="fill:none;stroke:#263238;stroke-linecap:round;stroke-miterlimit:10;" width="4.5" height="5.872"/>
		
			<rect x="415.628" y="230.182" style="fill:none;stroke:#263238;stroke-linecap:round;stroke-miterlimit:10;" width="4.5" height="5.872"/>
		
			<rect x="408.315" y="244.862" style="fill:none;stroke:#263238;stroke-linecap:round;stroke-miterlimit:10;" width="4.5" height="5.872"/>
		
			<rect x="415.628" y="244.862" style="fill:none;stroke:#263238;stroke-linecap:round;stroke-miterlimit:10;" width="4.5" height="5.872"/>
		
			<rect x="279.431" y="171.465" style="fill:none;stroke:#263238;stroke-linecap:round;stroke-miterlimit:10;" width="4.5" height="5.872"/>
		
			<rect x="286.744" y="171.465" style="fill:none;stroke:#263238;stroke-linecap:round;stroke-miterlimit:10;" width="4.5" height="5.872"/>
		
			<rect x="279.431" y="186.145" style="fill:none;stroke:#263238;stroke-linecap:round;stroke-miterlimit:10;" width="4.5" height="5.872"/>
		
			<rect x="286.744" y="186.145" style="fill:none;stroke:#263238;stroke-linecap:round;stroke-miterlimit:10;" width="4.5" height="5.872"/>
		
			<rect x="279.431" y="200.824" style="fill:none;stroke:#263238;stroke-linecap:round;stroke-miterlimit:10;" width="4.5" height="5.872"/>
		
			<rect x="286.744" y="200.824" style="fill:none;stroke:#263238;stroke-linecap:round;stroke-miterlimit:10;" width="4.5" height="5.872"/>
		
			<rect x="279.431" y="215.503" style="fill:none;stroke:#263238;stroke-linecap:round;stroke-miterlimit:10;" width="4.5" height="5.872"/>
		
			<rect x="286.744" y="215.503" style="fill:none;stroke:#263238;stroke-linecap:round;stroke-miterlimit:10;" width="4.5" height="5.872"/>
		
			<rect x="279.431" y="230.182" style="fill:none;stroke:#263238;stroke-linecap:round;stroke-miterlimit:10;" width="4.5" height="5.872"/>
		
			<rect x="286.744" y="230.182" style="fill:none;stroke:#263238;stroke-linecap:round;stroke-miterlimit:10;" width="4.5" height="5.872"/>
		
			<rect x="279.431" y="244.862" style="fill:none;stroke:#263238;stroke-linecap:round;stroke-miterlimit:10;" width="4.5" height="5.872"/>
		
			<rect x="286.744" y="244.862" style="fill:none;stroke:#263238;stroke-linecap:round;stroke-miterlimit:10;" width="4.5" height="5.872"/>
		
			<rect x="295.991" y="171.465" style="fill:none;stroke:#263238;stroke-linecap:round;stroke-miterlimit:10;" width="4.5" height="5.872"/>
		
			<rect x="303.304" y="171.465" style="fill:none;stroke:#263238;stroke-linecap:round;stroke-miterlimit:10;" width="4.5" height="5.872"/>
		
			<rect x="295.991" y="186.145" style="fill:none;stroke:#263238;stroke-linecap:round;stroke-miterlimit:10;" width="4.5" height="5.872"/>
		
			<rect x="303.304" y="186.145" style="fill:none;stroke:#263238;stroke-linecap:round;stroke-miterlimit:10;" width="4.5" height="5.872"/>
		
			<rect x="295.991" y="200.824" style="fill:none;stroke:#263238;stroke-linecap:round;stroke-miterlimit:10;" width="4.5" height="5.872"/>
		
			<rect x="303.304" y="200.824" style="fill:none;stroke:#263238;stroke-linecap:round;stroke-miterlimit:10;" width="4.5" height="5.872"/>
		
			<rect x="295.991" y="215.503" style="fill:none;stroke:#263238;stroke-linecap:round;stroke-miterlimit:10;" width="4.5" height="5.872"/>
		
			<rect x="303.304" y="215.503" style="fill:none;stroke:#263238;stroke-linecap:round;stroke-miterlimit:10;" width="4.5" height="5.872"/>
		
			<rect x="295.991" y="230.182" style="fill:none;stroke:#263238;stroke-linecap:round;stroke-miterlimit:10;" width="4.5" height="5.872"/>
		
			<rect x="303.304" y="230.182" style="fill:none;stroke:#263238;stroke-linecap:round;stroke-miterlimit:10;" width="4.5" height="5.872"/>
		
			<rect x="295.991" y="244.862" style="fill:none;stroke:#263238;stroke-linecap:round;stroke-miterlimit:10;" width="4.5" height="5.872"/>
		
			<rect x="303.304" y="244.862" style="fill:none;stroke:#263238;stroke-linecap:round;stroke-miterlimit:10;" width="4.5" height="5.872"/>
		
			<rect x="181.041" y="127.428" style="fill:none;stroke:#263238;stroke-linecap:round;stroke-miterlimit:10;" width="4.5" height="5.872"/>
		
			<rect x="188.354" y="127.428" style="fill:none;stroke:#263238;stroke-linecap:round;stroke-miterlimit:10;" width="4.5" height="5.872"/>
		
			<rect x="181.041" y="142.107" style="fill:none;stroke:#263238;stroke-linecap:round;stroke-miterlimit:10;" width="4.5" height="5.872"/>
		
			<rect x="188.354" y="142.107" style="fill:none;stroke:#263238;stroke-linecap:round;stroke-miterlimit:10;" width="4.5" height="5.872"/>
		
			<rect x="181.041" y="156.786" style="fill:none;stroke:#263238;stroke-linecap:round;stroke-miterlimit:10;" width="4.5" height="5.872"/>
		
			<rect x="188.354" y="156.786" style="fill:none;stroke:#263238;stroke-linecap:round;stroke-miterlimit:10;" width="4.5" height="5.872"/>
		
			<rect x="181.041" y="171.465" style="fill:none;stroke:#263238;stroke-linecap:round;stroke-miterlimit:10;" width="4.5" height="5.872"/>
		
			<rect x="188.354" y="171.465" style="fill:none;stroke:#263238;stroke-linecap:round;stroke-miterlimit:10;" width="4.5" height="5.872"/>
		
			<rect x="181.041" y="186.145" style="fill:none;stroke:#263238;stroke-linecap:round;stroke-miterlimit:10;" width="4.5" height="5.872"/>
		
			<rect x="188.354" y="186.145" style="fill:none;stroke:#263238;stroke-linecap:round;stroke-miterlimit:10;" width="4.5" height="5.872"/>
		
			<rect x="181.041" y="200.824" style="fill:none;stroke:#263238;stroke-linecap:round;stroke-miterlimit:10;" width="4.5" height="5.872"/>
		
			<rect x="188.354" y="200.824" style="fill:none;stroke:#263238;stroke-linecap:round;stroke-miterlimit:10;" width="4.5" height="5.872"/>
		
			<rect x="181.041" y="215.503" style="fill:none;stroke:#263238;stroke-linecap:round;stroke-miterlimit:10;" width="4.5" height="5.872"/>
		
			<rect x="188.354" y="215.503" style="fill:none;stroke:#263238;stroke-linecap:round;stroke-miterlimit:10;" width="4.5" height="5.872"/>
		
			<rect x="181.041" y="230.182" style="fill:none;stroke:#263238;stroke-linecap:round;stroke-miterlimit:10;" width="4.5" height="5.872"/>
		
			<rect x="188.354" y="230.182" style="fill:none;stroke:#263238;stroke-linecap:round;stroke-miterlimit:10;" width="4.5" height="5.872"/>
		
			<rect x="181.041" y="244.862" style="fill:none;stroke:#263238;stroke-linecap:round;stroke-miterlimit:10;" width="4.5" height="5.872"/>
		
			<rect x="188.354" y="244.862" style="fill:none;stroke:#263238;stroke-linecap:round;stroke-miterlimit:10;" width="4.5" height="5.872"/>
		
			<rect x="470.819" y="244.862" style="fill:none;stroke:#263238;stroke-linecap:round;stroke-miterlimit:10;" width="4.5" height="5.872"/>
	</g>
</g>
<g id="Trees">
	<g>
		<path style="fill:#E8AA14;" d="M398.32,361.544c0,32.897-18.447,35.381-41.203,35.381c-22.756,0-41.203-2.484-41.203-35.381
			c0-32.897,18.447-101.664,41.203-101.664C379.873,259.88,398.32,328.647,398.32,361.544z"/>
		<path style="opacity:0.58;fill:#FFFFFF;" d="M398.32,361.544c0,32.897-18.447,35.381-41.203,35.381
			c-22.756,0-41.203-2.484-41.203-35.381c0-32.897,18.447-101.664,41.203-101.664C379.873,259.88,398.32,328.647,398.32,361.544z"/>
		<polygon style="fill:#263238;" points="371.049,376.471 364.234,376.94 381.986,364.973 369.308,371.382 371.049,366.375 
			365.253,373.431 358.454,376.868 357.915,353.245 361.515,344.502 357.827,349.418 357.514,335.721 368.805,320.666 
			357.436,332.306 356.747,302.158 356.139,321.454 348.896,313.375 356.022,325.161 355.058,355.725 348.752,351.602 
			343.007,341.418 345.31,349.352 334.033,341.978 354.923,359.996 351.76,460.317 360.361,460.317 358.544,380.776 360.53,379.437 
					"/>
	</g>
	<g>
		<path style="fill:#E8AA14;" d="M484.868,324.877c0,45.109-25.295,48.515-56.499,48.515s-56.499-3.406-56.499-48.515
			c0-45.109,25.295-139.405,56.499-139.405S484.868,279.767,484.868,324.877z"/>
		<path style="opacity:0.31;fill:#FFFFFF;" d="M484.868,324.877c0,45.109-25.295,48.515-56.499,48.515s-56.499-3.406-56.499-48.515
			c0-45.109,25.295-139.405,56.499-139.405S484.868,279.767,484.868,324.877z"/>
		<polygon style="fill:#263238;" points="447.472,345.344 438.127,345.988 462.469,329.578 445.084,338.366 447.472,331.501 
			439.524,341.177 430.202,345.889 429.462,313.496 434.398,301.508 429.342,308.249 428.913,289.467 444.396,268.823 
			428.806,284.784 427.861,243.445 427.027,269.904 417.094,258.825 426.866,274.987 425.545,316.898 416.897,311.244 
			409.02,297.278 412.178,308.158 396.715,298.047 425.36,322.754 421.022,460.317 432.817,460.317 430.325,351.248 
			433.049,349.412 		"/>
	</g>
	<g>
		<path style="fill:#E8AA14;" d="M93.782,364.985c0,31.751,17.804,34.148,39.768,34.148s39.768-2.397,39.768-34.148
			c0-31.751-17.805-98.123-39.768-98.123S93.782,333.234,93.782,364.985z"/>
		<path style="opacity:0.58;fill:#FFFFFF;" d="M93.782,364.985c0,31.751,17.804,34.148,39.768,34.148s39.768-2.397,39.768-34.148
			c0-31.751-17.805-98.123-39.768-98.123S93.782,333.234,93.782,364.985z"/>
		<polygon style="fill:#263238;" points="120.103,379.391 126.681,379.845 109.548,368.294 121.784,374.48 120.103,369.648 
			125.697,376.458 132.259,379.775 132.78,356.974 129.305,348.536 132.864,353.281 133.166,340.061 122.269,325.531 
			133.242,336.765 133.907,307.667 134.494,326.291 141.485,318.494 134.607,329.869 135.537,359.369 141.624,355.389 
			147.169,345.559 144.945,353.217 155.83,346.1 135.667,363.491 138.721,460.317 130.418,460.317 132.173,383.547 130.255,382.254 
					"/>
	</g>
	<g>
		<path style="fill:#E8AA14;" d="M7.612,325.329c0,44.959,25.211,48.353,56.31,48.353c31.099,0,56.31-3.395,56.31-48.353
			c0-44.959-25.211-138.939-56.31-138.939C32.823,186.39,7.612,280.371,7.612,325.329z"/>
		<path style="opacity:0.31;fill:#FFFFFF;" d="M7.612,325.329c0,44.959,25.211,48.353,56.31,48.353
			c31.099,0,56.31-3.395,56.31-48.353c0-44.959-25.211-138.939-56.31-138.939C32.823,186.39,7.612,280.371,7.612,325.329z"/>
		<polygon style="fill:#263238;" points="44.882,345.728 54.196,346.37 29.936,330.015 47.262,338.773 44.882,331.931 
			52.804,341.574 62.095,346.271 62.832,313.986 57.913,302.038 62.952,308.757 63.38,290.038 47.949,269.463 63.486,285.371 
			64.428,244.169 65.259,270.54 75.159,259.499 65.419,275.606 66.737,317.377 75.355,311.742 83.207,297.823 80.059,308.666 
			95.47,298.589 66.921,323.213 71.244,460.317 59.489,460.317 61.973,351.613 59.258,349.782 		"/>
	</g>
</g>
<g id="Character">
	<g id="XMLID_1_">
		<g>
			<path id="XMLID_16_" style="fill:#E8AA14;stroke:#263238;stroke-linecap:round;stroke-linejoin:round;stroke-miterlimit:10;" d="
				M261.397,223.264c0.096,0.122,0.202,0.239,0.316,0.342c1.775,1.606,16.989,15.331,24.264,20.569
				c7.732,5.567,13.918,10.207,11.753,16.702c-2.165,6.495-14.537,30.929-16.084,33.713c-1.546,2.784-8.042-2.165-8.66-4.33
				c-0.618-2.165-3.711-11.135-1.856-15.465c1.294-3.019,3.339-8.292,4.459-11.21c0.469-1.222,0.023-2.601-1.07-3.321l-9.984-6.575
				c-0.538-0.354-0.936-0.88-1.127-1.496c-0.768-2.47-2.852-9.365-4.34-16.061C257.229,227.849,255.387,215.608,261.397,223.264z"/>
			<path style="fill:none;stroke:#263238;stroke-linecap:round;stroke-linejoin:round;stroke-miterlimit:10;" d="M286.621,261.331
				c0.734-0.103,1.479-0.243,2.224-0.429"/>
			<path style="fill:none;stroke:#263238;stroke-linecap:round;stroke-linejoin:round;stroke-miterlimit:10;" d="M276.81,260.902
				c0,0,3.268,0.817,7.395,0.645"/>
			<path style="fill:none;stroke:#263238;stroke-linecap:round;stroke-linejoin:round;stroke-miterlimit:10;" d="M277.938,263.535
				c0,0,3.385,2.257,6.017,2.633"/>
		</g>
		<path id="XMLID_15_" style="fill:#FFFFFF;stroke:#263238;stroke-linecap:round;stroke-linejoin:round;stroke-miterlimit:10;" d="
			M293.092,373.151c0,0,4.949-3.093,16.702-1.237c11.753,1.856,25.362,4.64,35.26,4.64c9.897,0,15.465,0.928,17.32,0
			c1.856-0.928,9.279-11.135,10.516-9.279c1.237,1.856,7.732,13.918,9.588,22.578c1.856,8.66,4.021,12.99,0.618,13.3
			c-1.393,0.127-3.895-4.519-6.465-7.456c-3.708-4.237-7.524-7.334-8.072-7.699c-0.928-0.619-32.476,0-49.797,1.856
			c-17.32,1.856-33.713,3.711-40.518,0c-6.804-3.712-9.897-6.805-7.732-10.516C272.678,375.626,293.092,373.151,293.092,373.151z"/>
		<path id="XMLID_14_" style="fill:#FFFFFF;stroke:#263238;stroke-linecap:round;stroke-linejoin:round;stroke-miterlimit:10;" d="
			M237.11,365.11c0,0-3.402,10.825-5.567,23.506c-2.165,12.681-4.639,21.032-11.444,28.455
			c-6.805,7.423-16.039,23.729-16.967,26.512c-0.928,2.784-4.33,13.3-5.876,13.609c-1.547,0.309-10.207-4.33-13.3-6.186
			c-3.093-1.856-11.135-5.258-13.3-8.042c-2.165-2.784-4.33-7.114-2.165-7.114c2.165,0,13.918,3.093,17.939,2.784
			c4.021-0.309,5.567-1.856,7.732-5.876c2.165-4.021,13.255-30.842,16.657-41.358c3.402-10.516,3.402-22.579,5.567-27.218
			c2.165-4.639,1.237-8.042,8.66-8.66C232.47,354.903,237.11,365.11,237.11,365.11z"/>
		<path id="XMLID_13_" style="fill:#263238;stroke:#263238;stroke-linecap:round;stroke-linejoin:round;stroke-miterlimit:10;" d="
			M280.72,307.581c0,0,4.33,5.567,4.33,12.372c0,6.804-0.928,12.372-0.619,14.228c0.309,1.856,12.372,36.188,12.372,37.115
			c0,0.928-8.042,10.207-17.32,12.681c-9.279,2.474-10.825,1.856-10.825,1.856l-15.703-32.431l-9.041,25.626
			c0,0-16.145-1.385-20.166-3.859c-4.021-2.474-12.31-7.585-12.31-7.585s4.639-13.609,12.372-30.311
			c7.732-16.702,8.97-21.032,9.279-27.527c0.309-6.495,0-9.897,0-9.897L280.72,307.581z"/>
		<g>
			<path style="fill:none;stroke:#FFFFFF;stroke-linecap:round;stroke-linejoin:round;stroke-miterlimit:10;" d="M239.778,310.562
				c0,0,0,5.055,4.278,8.166s10.888-1.167,16.721,1.944c5.833,3.111,5.833,6.611,5.833,6.611"/>
			<path style="fill:none;stroke:#FFFFFF;stroke-linecap:round;stroke-linejoin:round;stroke-miterlimit:10;" d="M237.478,310.783
				c0,0-1.732,4.546-0.65,8.443s3.68,5.629,3.68,9.525"/>
		</g>
		<path id="XMLID_12_" style="fill:#E8AA14;stroke:#263238;stroke-linecap:round;stroke-linejoin:round;stroke-miterlimit:10;" d="
			M280.465,300.067l2.131,7.554c0.363,1.288-0.24,2.646-1.435,3.248c-3.789,1.911-12.427,5.436-22.091,3.825
			c-9.754-1.626-19.508-3.6-23.763-4.483c-1.292-0.268-2.218-1.407-2.218-2.727l0,0c0-1.37,0.996-2.536,2.348-2.751l41.909-6.661
			C278.741,297.851,280.081,298.708,280.465,300.067z"/>
		<path id="XMLID_11_" style="fill:#E8AA14;stroke:#263238;stroke-linecap:round;stroke-linejoin:round;stroke-miterlimit:10;" d="
			M261.808,225.398c0.234,0.342,0.384,0.726,0.448,1.135c0.639,4.08,4.529,27.861,10.732,43.932
			c6.805,17.63,13.918,25.672,5.258,30.62c-8.66,4.949-37.734,6.495-42.683,6.495c-4.949,0-5.258-2.165-7.114-8.97
			c-1.856-6.805-12.681-64.643-10.825-70.828c1.856-6.186,2.784-8.97,6.805-11.753c4.021-2.784,26.909-1.546,30.62,1.546
			C258.048,220.075,260.845,223.988,261.808,225.398z"/>
		<path id="XMLID_10_" style="fill:#FFFFFF;stroke:#263238;stroke-linecap:round;stroke-linejoin:round;stroke-miterlimit:10;" d="
			M233.089,198.4l4.33,11.444l-8.97,8.042l-5.258-16.083C223.191,201.802,228.449,194.688,233.089,198.4z"/>
		<path id="XMLID_9_" style="fill:#FFFFFF;stroke:#263238;stroke-linecap:round;stroke-linejoin:round;stroke-miterlimit:10;" d="
			M232.779,201.493c0,0,5.845-1.313,7.083-12.139c1.237-10.825-10.587-17.707-18.01-18.326c-7.423-0.619-14.537,4.33-15.156,8.969
			c-0.618,4.639,0.411,9.432,0.411,10.36c0,0.928-3.97,9.203-3.042,10.441c0.928,1.237,3.97,2.55,3.97,2.55
			s1.547,17.63,3.402,20.413c1.856,2.784,3.711,3.402,6.804,1.237c3.093-2.165,8.66-7.423,10.207-11.753
			c1.547-4.33-0.618-10.825-0.618-10.825S231.542,203.967,232.779,201.493z"/>
		<ellipse style="fill:#263238;" cx="211.11" cy="192.04" rx="0.948" ry="1.896"/>
		<path style="fill:none;stroke:#263238;stroke-width:2;stroke-linecap:round;stroke-linejoin:round;stroke-miterlimit:10;" d="
			M208.74,188.88c0,0,2.844-3.002,5.371,0.474"/>
		<path style="fill:#263238;stroke:#263238;stroke-linecap:round;stroke-linejoin:round;stroke-miterlimit:10;" d="M221.852,171.028
			c-4.121-0.343-8.142,1.032-11.014,3.115c-0.387,0.461-0.671,1.025,0.149,1.116c1.422,0.158,6.003-1.264,8.69,0
			c2.081,0.98,2.999,1.553,3.733,3.696c0.671,1.957,0.38,4.489-1.02,6.045c-1.44,1.6-2.762,1.673-1.674,4.122
			c1.237,2.783,0.928,0,1.546,6.495c0.619,6.495,4.33,10.207,0.309,12.063c-4.021,1.856-3.947-2.092-7.04-3.948
			c-1.338-0.802-3.265,0.125-3.949,0.124c-1.073-0.001-1.514,0.336-2.42-0.065c-0.393-0.174-1.129-0.441-1.129-0.441
			s1.546,17.63,3.402,20.413c1.856,2.784,3.711,3.402,6.804,1.237c3.093-2.165,8.66-7.423,10.207-11.753
			c1.547-4.33-0.618-10.825-0.618-10.825s3.712,1.547,4.949-0.928c0,0,5.845-1.313,7.082-12.139
			C241.099,178.529,229.275,171.647,221.852,171.028z"/>
		<path style="fill:none;stroke:#FFFFFF;stroke-linecap:round;stroke-linejoin:round;stroke-miterlimit:10;" d="M210.32,207.996
			c0,0,2.844-0.316,4.581-2.528"/>
		<path id="XMLID_8_" style="fill:#FFFFFF;stroke:#263238;stroke-linecap:round;stroke-linejoin:round;stroke-miterlimit:10;" d="
			M226.284,200.874c0,0-1.544-7.734,0.312-8.662c1.856-0.928,5.874,0.62,4.328,4.332
			C229.377,200.256,226.284,200.874,226.284,200.874z"/>
		<g>
			<path id="XMLID_7_" style="fill:#E8AA14;stroke:#263238;stroke-linecap:round;stroke-linejoin:round;stroke-miterlimit:10;" d="
				M221.761,222.932c-2.456,0.494-1.578-1.457-0.161-3.523c2.124-3.099,5.245-7.017,9.324-10.492
				c8.351-7.114,16.119-10.269,20.449-8.104c4.33,2.165,10.79,12.434,12.645,18.929c1.856,6.495,3.402,10.516,2.165,11.135
				c-1.237,0.618-24.743-9.279-26.909-9.588C237.931,221.096,227.469,221.784,221.761,222.932z"/>
			<g>
				<path style="fill:none;stroke:#263238;stroke-linecap:round;stroke-linejoin:round;stroke-miterlimit:10;" d="M242.896,210.099
					c6.233,1.141,13.783,4.284,14.089,3.518c0.409-1.022-0.818-2.453-4.497-3.475"/>
				<path style="fill:none;stroke:#263238;stroke-linecap:round;stroke-linejoin:round;stroke-miterlimit:10;" d="M221.761,222.932
					c0,0,9.786-11.956,15.658-13.088c0.734-0.142,1.584-0.173,2.51-0.121"/>
				<path style="fill:none;stroke:#263238;stroke-linecap:round;stroke-linejoin:round;stroke-miterlimit:10;" d="M239.275,221.288
					c0,0,8.308,0.096,13.01,1.527"/>
			</g>
			<path style="fill:none;stroke:#FFFFFF;stroke-linecap:round;stroke-linejoin:round;stroke-miterlimit:10;" d="M225.942,222.448
				c0,0,5.311,3.54,9.104,3.288s5.311-7.081,12.645-8.345c7.334-1.264,7.358,0.186,7.358,0.186"/>
		</g>
		<g>
			<path id="XMLID_6_" style="fill:#FFFFFF;stroke:#263238;stroke-linecap:round;stroke-linejoin:round;stroke-miterlimit:10;" d="
				M186.385,279.126c0,0-8.66-5.877-10.516-6.805c-1.856-0.928-7.114,3.402-7.114,3.402s-4.021-0.618-4.639,1.237
				c-0.618,1.856-0.928,4.639,0,4.949c0.928,0.31,2.165,0.619,2.474,1.547c0.309,0.928,0.619,4.33,2.784,5.876
				c2.165,1.547,6.495,1.547,9.588,1.237c3.093-0.309,7.114-0.928,7.114-0.928L186.385,279.126z"/>
			<path id="XMLID_5_" style="fill:#E8AA14;stroke:#263238;stroke-linecap:round;stroke-linejoin:round;stroke-miterlimit:10;" d="
				M193.808,278.816l-4.878,0.203c-1.441,0.06-2.598,1.21-2.667,2.651l-0.37,7.76c-0.071,1.498,1.056,2.784,2.551,2.909l4.744,0.395
				L193.808,278.816z"/>
			<path id="XMLID_4_" style="fill:#E8AA14;stroke:#263238;stroke-linecap:round;stroke-linejoin:round;stroke-miterlimit:10;" d="
				M238.656,231.494c1.237,0,7.114-2.165,8.042,7.423c0.928,9.588,2.165,46.085,0.309,51.034c-1.856,4.949-5.876,6.495-10.516,6.495
				c-4.639,0-41.136-0.618-43.301-3.711c-2.165-3.093-3.712-12.372,0.618-13.918c4.33-1.547,28.764-2.784,30.002-6.495
				c1.237-3.712-3.402-22.578-1.237-29.692c2.165-7.114,5.876-10.516,5.876-10.516"/>
		</g>
		<g>
			<path id="XMLID_3_" style="fill:#FFFFFF;stroke:#263238;stroke-linecap:round;stroke-linejoin:round;stroke-miterlimit:10;" d="
				M372.89,367.275c1.237,1.856,9.639,15.766,11.495,24.426c1.856,8.66,2.114,11.143-1.288,11.452
				c-1.586,0.144-4.616-5.233-7.529-8.697c-2.962-3.523-5.801-5.143-6.741-6.194c0.174-0.688,0.446-1.513,0.97-2.429
				c1.237-2.165,4.33,0,4.33,0s-2.165-4.639-5.567-8.042c-2.968-2.967-5.462-1.701-6.052-1.328
				C364.544,375.191,371.678,365.457,372.89,367.275z"/>
			<path style="fill:#FFFFFF;stroke:#263238;stroke-linecap:round;stroke-linejoin:round;stroke-miterlimit:10;" d="
				M383.097,403.153c3.402-0.309,3.144-2.792,1.288-11.452c-1.856-8.66-10.258-22.57-11.495-24.426
				c-0.537-0.805-2.236,0.657-4.139,2.646c2.665,3.08,8.336,9.94,11.226,15.719c3.208,6.417,4.5,12.449,2.786,17.469
				C382.88,403.145,382.992,403.162,383.097,403.153z"/>
		</g>
		<g>
			<path id="XMLID_2_" style="fill:#FFFFFF;stroke:#263238;stroke-linecap:round;stroke-linejoin:round;stroke-miterlimit:10;" d="
				M170.656,442.965c-2.165-2.784-4.33-7.114-2.165-7.114c2.165,0,13.918,3.093,17.939,2.784c1.889-0.145,3.222-0.579,4.339-1.398
				c1.158,0.612,2.316,1.431,2.465,2.326c0.309,1.856-0.309,3.712-0.309,3.712s0.928,0.619,4.639,2.474
				c1.446,0.723,2.931,1.348,4.214,1.846c-1.418,4.08-3.432,9.379-4.523,9.598c-1.547,0.309-10.207-4.33-13.3-6.186
				C180.863,449.151,172.821,445.748,170.656,442.965z"/>
			<path style="fill:#FFFFFF;stroke:#263238;stroke-linecap:round;stroke-linejoin:round;stroke-miterlimit:10;" d="
				M197.255,457.192c0.466-0.093,1.101-1.116,1.785-2.571c-6.124-2.588-17.553-7.559-22.667-10.706
				c-3.885-2.391-6.059-5.585-7.244-8.014c-0.259-0.031-0.477-0.05-0.638-0.05c-2.165,0,0,4.33,2.165,7.114
				c2.165,2.783,10.207,6.186,13.3,8.042C187.049,452.862,195.709,457.502,197.255,457.192z"/>
		</g>
	</g>
</g>
</svg>
